<?xml version="1.0" standalone="no"?>
<!DOCTYPE svg PUBLIC "-//W3C//DTD SVG 20010904//EN"
 "http://www.w3.org/TR/2001/REC-SVG-20010904/DTD/svg10.dtd">
<svg version="1.0" xmlns="http://www.w3.org/2000/svg"
 width="1418.000000pt" height="1418.000000pt" viewBox="0 0 1418.000000 1418.000000"
 preserveAspectRatio="xMidYMid meet">
<metadata>
Created by potrace 1.14, written by Peter Selinger 2001-2017
</metadata>
<g transform="translate(0.000000,1418.000000) scale(0.100000,-0.100000)"
fill="#000000" stroke="none">
<path d="M7140 11900 c-19 -19 -20 -36 -20 -368 0 -325 1 -350 18 -365 38 -35
91 -11 93 41 0 15 1 172 1 350 1 270 -1 326 -14 338 -23 23 -57 25 -78 4z"/>
<path d="M5529 11689 c-26 -26 -23 -46 46 -274 13 -44 45 -154 71 -245 52
-182 59 -198 89 -202 37 -7 65 13 65 45 0 25 -51 222 -89 342 -5 17 -28 95
-51 175 -23 80 -48 151 -54 158 -21 22 -56 22 -77 1z"/>
<path d="M9005 11689 c-14 -11 -25 -26 -25 -32 0 -10 -59 -221 -102 -366 -5
-18 -11 -41 -13 -50 -2 -9 -18 -63 -34 -119 -33 -110 -31 -130 9 -152 23 -12
54 0 69 28 7 13 79 255 96 322 2 8 25 87 50 174 25 87 45 162 45 165 -1 15
-30 42 -48 46 -12 2 -32 -5 -47 -16z"/>
<path d="M4035 11040 c-12 -13 -15 -27 -11 -45 10 -39 343 -567 371 -590 24
-18 28 -18 53 -4 15 8 28 22 30 31 4 23 -25 83 -80 164 -32 48 -79 122 -94
149 -37 68 -181 292 -194 302 -23 18 -55 15 -75 -7z"/>
<path d="M10498 11048 c-9 -7 -35 -44 -58 -83 -24 -38 -57 -92 -75 -120 -131
-203 -235 -379 -235 -400 0 -34 43 -62 73 -48 14 7 72 90 146 209 137 221 166
267 191 304 39 58 50 88 41 113 -14 36 -53 48 -83 25z"/>
<path d="M7144 10126 c-7 -6 -67 -62 -134 -125 -114 -107 -123 -113 -146 -102
-65 29 -78 19 -335 -265 -67 -74 -228 -273 -311 -386 -80 -107 -256 -365 -272
-398 -11 -23 -31 -56 -42 -71 -6 -8 -25 -39 -41 -69 -38 -70 -96 -174 -99
-179 -2 -2 -25 9 -51 25 -260 153 -719 360 -963 435 -36 11 -74 24 -85 29 -30
14 -275 86 -405 118 -126 32 -149 30 -186 -14 -21 -25 -23 -26 -75 -15 -101
21 -129 26 -235 45 l-72 12 -16 -51 c-8 -27 -31 -113 -51 -189 -39 -151 -39
-151 -50 -213 -4 -24 -13 -43 -19 -44 -75 -5 -94 -38 -121 -209 -3 -19 -7 -46
-10 -60 -3 -14 -7 -47 -11 -75 -3 -27 -7 -52 -9 -55 -2 -3 -6 -41 -10 -85 -3
-44 -8 -87 -10 -95 -2 -8 -7 -46 -11 -85 -3 -38 -8 -92 -11 -120 -3 -27 -6
-214 -7 -415 l-3 -365 -29 -1 c-57 -2 -239 -15 -269 -19 -16 -2 -52 -7 -80
-10 -27 -3 -61 -7 -75 -10 -14 -2 -47 -7 -75 -10 -62 -7 -155 -22 -215 -35
-25 -5 -58 -12 -75 -15 -43 -7 -74 -13 -93 -19 -9 -3 -28 -7 -42 -10 -14 -2
-56 -12 -95 -21 -38 -9 -77 -18 -85 -20 -63 -15 -229 -63 -348 -101 -127 -40
-145 -48 -162 -76 -10 -17 -16 -41 -14 -53 4 -22 -1 -25 -51 -40 -15 -4 -163
-63 -215 -84 -25 -11 -52 -22 -61 -25 -15 -4 -15 -13 8 -93 13 -48 49 -160 79
-248 45 -135 52 -161 39 -168 -21 -12 -43 -58 -39 -83 17 -102 285 -664 440
-921 229 -380 438 -649 716 -924 71 -69 128 -128 128 -131 0 -3 -10 -5 -22 -5
-13 0 -48 -5 -78 -11 -30 -7 -73 -15 -95 -18 -22 -3 -71 -12 -110 -21 -38 -8
-83 -17 -100 -20 -26 -4 -72 -15 -275 -63 -19 -4 -82 -22 -140 -38 -451 -131
-670 -281 -670 -459 0 -101 91 -223 167 -223 20 0 44 7 54 15 15 15 23 13 85
-19 61 -31 119 -57 134 -60 3 -1 10 -4 15 -7 6 -4 28 -12 50 -18 22 -7 49 -16
60 -21 34 -15 163 -51 339 -95 168 -41 170 -42 173 -70 5 -32 17 -51 43 -65
14 -8 179 -42 265 -55 11 -2 47 -8 80 -13 33 -6 76 -13 95 -16 48 -8 229 -35
265 -41 34 -4 255 -33 325 -41 25 -3 56 -7 70 -9 14 -2 72 -9 130 -15 58 -5
123 -12 145 -15 63 -7 155 -16 215 -20 30 -2 75 -6 100 -9 61 -7 149 -15 245
-21 44 -3 96 -8 115 -10 19 -2 80 -7 135 -10 55 -4 125 -8 155 -10 85 -6 225
-14 330 -20 52 -3 131 -7 175 -10 44 -3 132 -7 195 -10 63 -2 185 -6 270 -10
321 -12 459 -15 991 -21 605 -7 585 -9 608 57 l10 29 148 1 c81 0 225 2 318 4
94 1 217 3 275 4 58 1 112 2 121 2 9 -1 20 -12 23 -26 8 -30 46 -57 84 -58 34
-1 432 13 527 18 39 2 135 6 215 10 80 3 168 8 195 10 28 2 102 7 165 10 63 4
135 8 160 10 125 8 249 17 280 20 19 2 76 6 125 10 50 3 108 8 130 10 43 4
132 12 230 21 33 3 71 7 85 9 14 2 59 7 100 10 101 8 286 29 360 40 14 2 50 6
80 10 90 10 134 15 160 20 14 3 45 7 70 10 25 3 56 7 70 10 14 2 45 7 70 10
25 3 70 10 100 15 30 5 70 12 88 15 79 13 106 17 261 46 90 16 203 39 250 51
47 11 93 21 101 23 8 2 51 13 95 25 44 11 89 23 100 24 11 2 21 5 23 6 1 1 5
3 10 4 165 43 382 133 485 200 244 160 246 354 5 518 -32 21 -58 36 -58 33 0
-3 -10 1 -22 9 -32 23 -62 20 -96 -9 l-30 -25 -68 26 c-101 38 -347 113 -424
129 -8 2 -45 10 -81 19 -37 8 -78 17 -90 20 -13 3 -35 7 -49 10 -14 3 -41 9
-60 13 -19 4 -38 8 -42 9 -5 1 -15 2 -23 3 -10 1 -15 12 -15 31 0 37 -32 67
-79 77 -20 4 -38 8 -41 8 -3 1 -27 5 -55 10 -27 5 -53 10 -57 11 -5 1 -13 2
-19 3 -6 0 52 63 129 139 225 220 399 435 588 723 106 161 104 159 202 333
102 181 240 471 322 675 45 114 46 150 5 183 l-23 18 19 53 c40 104 117 345
132 408 7 29 -3 34 -263 136 -53 21 -74 34 -72 45 4 26 -16 66 -40 82 -20 13
-239 87 -300 101 -13 3 -101 25 -196 50 -95 25 -187 47 -205 50 -17 4 -52 11
-77 16 -25 6 -56 12 -70 14 -14 2 -48 8 -77 14 -29 6 -74 13 -100 17 -26 3
-57 8 -68 10 -11 2 -60 9 -110 14 -49 6 -103 13 -120 15 -39 5 -231 18 -273
19 l-33 0 6 91 c7 101 7 463 0 540 -2 28 -7 93 -10 145 -12 164 -20 242 -40
378 -20 137 -38 244 -50 302 -2 8 -4 23 -4 33 -1 27 -56 77 -84 77 -21 0 -25
7 -36 55 -7 30 -12 56 -12 57 0 2 -13 55 -30 118 -17 63 -33 126 -35 139 -3
13 -13 46 -23 75 -19 55 -24 57 -96 42 -16 -3 -46 -8 -65 -11 -19 -3 -75 -14
-125 -24 l-90 -19 -25 29 c-14 16 -36 32 -50 34 -65 12 -622 -160 -938 -291
-152 -63 -457 -210 -568 -274 l-51 -29 -20 39 c-104 194 -292 482 -447 685
-88 115 -171 221 -186 235 -3 3 -36 41 -75 85 -164 189 -191 208 -246 181 -25
-12 -30 -8 -175 133 -182 178 -225 213 -240 197z"/>
<path d="M2787 10012 c-41 -45 -25 -68 147 -217 38 -33 81 -71 95 -85 27 -26
146 -133 216 -195 59 -52 108 -45 120 15 5 26 23 9 -288 289 -128 115 -238
207 -251 208 -13 2 -30 -5 -39 -15z"/>
<path d="M11744 10008 c-16 -12 -31 -25 -34 -28 -3 -3 -45 -41 -95 -85 -104
-93 -154 -138 -199 -180 -18 -16 -62 -56 -99 -89 -75 -66 -86 -87 -63 -121 30
-45 64 -33 165 60 24 22 49 45 55 50 6 6 56 51 111 100 55 50 117 106 139 125
96 85 116 108 116 133 0 25 -31 57 -56 57 -6 0 -24 -10 -40 -22z"/>
<path d="M1869 8677 c-22 -17 -28 -38 -18 -65 6 -17 51 -43 171 -101 90 -43
229 -110 310 -150 81 -39 153 -71 160 -71 39 0 69 59 45 88 -10 13 -115 66
-552 278 -76 37 -92 40 -116 21z"/>
<path d="M12640 8666 c-25 -12 -54 -27 -65 -34 -11 -6 -87 -43 -170 -83 -303
-144 -335 -162 -342 -188 -7 -30 6 -53 38 -65 21 -7 70 14 294 122 383 186
360 172 359 217 -2 60 -38 70 -114 31z"/>
</g>
</svg>
