<?xml version="1.0" standalone="no"?>
<!DOCTYPE svg PUBLIC "-//W3C//DTD SVG 1.1//EN" "http://www.w3.org/Graphics/SVG/1.1/DTD/svg11.dtd" >
<svg>
<metadata>
Created by FontForge 20090622 at Thu Sep 27 04:48:19 2018
 By ffonts
Aron Veraart
</metadata>
<defs>
<font id="HelloAugustHand" horiz-adv-x="650" >
  <font-face 
    font-family="Hello August"
    font-weight="500"
    font-stretch="normal"
    units-per-em="1000"
    panose-1="0 0 0 0 0 0 0 0 0 0"
    ascent="800"
    descent="-200"
    x-height="388"
    cap-height="745"
    bbox="-193.514 -656 819.635 1085.14"
    underline-thickness="50"
    underline-position="-100"
    unicode-range="U+000D-U+221E"
  />
<missing-glyph 
 />
    <glyph glyph-name=".notdef" 
 />
    <glyph glyph-name=".notdef" 
 />
    <glyph glyph-name=".null" horiz-adv-x="0" 
 />
    <glyph glyph-name="nonmarkingreturn" horiz-adv-x="333" 
 />
    <glyph glyph-name="controlCR" unicode="&#xd;" horiz-adv-x="177" 
 />
    <glyph glyph-name="space" unicode=" " horiz-adv-x="405" 
 />
    <glyph glyph-name="exclam" unicode="!" horiz-adv-x="107" 
d="M14 348q1 28 1 42q-6 2 -5 21.5t4 36.5l7 38.5t5 28.5q3 23 3.5 76t5.5 81q5 34 25 57t51 7q12 -5 18 -18.5t6 -33.5t-1 -35t-4.5 -38t-3.5 -28q-6 -48 -7 -134.5t-2 -113.5q-1 -8 1 -42.5t0.5 -61.5t-9.5 -37q-14 -20 -47 -23.5t-49 14.5q-1 108 1 163zM4 83
q0 33 30.5 45t60.5 -4.5t30 -53.5q0 -50 -39 -57q-35 -5 -63 24q-19 20 -19 46z" />
    <glyph glyph-name="numbersign" unicode="#" horiz-adv-x="485" 
d="M212 316q11 -9 42.5 -9t45.5 6q35 16 27 57q-8 -1 -32 2.5t-43.5 2t-28.5 -13.5q0 -2 -0.5 -8.5t-3 -18t-7.5 -18.5zM522 404q0 -25 -16 -33t-37 -4t-42.5 3.5t-31.5 -9.5q-28 -29 15 -38q8 -1 29 -4q45 -6 52 -15q8 -13 8 -23t-6.5 -16t-16 -10t-22.5 -6t-24.5 -3
t-23 -2.5t-16.5 -3.5q-15 -5 -25 -17.5t-15 -32t-7 -34.5t-3.5 -39.5t-2.5 -32.5q-1 -2 -1.5 -8.5t-0.5 -9.5t-1 -8t-2.5 -8t-3.5 -6.5t-5 -6t-7 -4t-9 -2.5q-29 -4 -36 29q-2 9 6 36.5t17.5 55t14 53.5t-3.5 33q-11 9 -58.5 -1t-54.5 -21q-6 -10 -5.5 -38.5t-4.5 -39.5
q-5 -10 -13 -16.5t-16 -9.5t-21 -5q-26 8 -28 26t7 44.5t6 40.5q-20 1 -44 10.5t-38 28t6 44.5q10 13 20 13.5t22.5 -5.5t21.5 -6q17 0 28 8.5t15.5 20.5t7.5 30q-47 -29 -86 23q-29 38 -25 74q3 22 19 23q2 2 17 -2.5t33 -10.5l35 -11.5t21 -5.5q11 23 20 53t17 67.5
t13 55.5q22 21 39.5 9.5t19.5 -38.5q3 -26 -11.5 -75t-15.5 -70q8 0 27 -5t29.5 -6t26.5 3q18 8 25 36.5t7 57.5q-7 5 -7.5 18.5t4.5 28.5t14.5 28.5t22.5 18.5t27 -1q23 -11 27 -36.5t-4.5 -51l-18 -56t-9.5 -44.5q7 -6 25 -7.5t33.5 -0.5t28 -6.5t12.5 -26.5z" />
    <glyph glyph-name="dollar" unicode="$" horiz-adv-x="419" 
d="M256 194q0 -14 4.5 -28.5t9.5 -20.5l17.5 13t19.5 15.5t15 15t13.5 19.5t6.5 22q3 33 -17 43.5t-55 4.5q-1 -8 2 -23.5t2 -23.5q-1 -7 -9.5 -19t-8.5 -18zM153 394v2v-2zM155 453l2 30q-20 -22 -29 -70q12 -6 26 -5q3 6 3 13t-1 18.5t-1 13.5zM399 112q-17 -13 -27 -18
l-2 -4q-3 -32 -38.5 -59t-61.5 -6q-10 -14 -11 -38.5t2 -46.5t2 -42t-14.5 -29.5t-42.5 -4.5q-27 4 -41.5 21.5t-16.5 40.5t-3 50t-1 50q-12 4 -33 3t-33 4q-15 6 -33 24.5t-26 34.5q-23 46 9 62q12 3 21.5 2t25 -9t25.5 -15l23 -16t17 -12q1 1 7 6t8.5 7.5t6 7t5.5 9t2 9.5
q-8 6 -19 27q7 5 9.5 19t1.5 29t-1.5 31t0.5 26q-30 3 -61.5 17t-53 41t-14.5 58q-9 6 -20 10q-8 41 0.5 70.5t39.5 56.5q1 2 2 6q4 16 6.5 24t7 19.5t10.5 21.5t15 18q9 11 34 26.5t35 25.5q12 14 17.5 42t7 69.5t2.5 50.5q2 0 6 1q21 6 34 7.5t31 -2t28 -17.5
q11 -15 10.5 -34.5t-7.5 -36.5t-10 -37.5t5 -36.5q5 -11 14.5 -19.5t19.5 -14t19.5 -12t17 -16.5t10.5 -24q5 -23 -1 -34.5t-19 -11.5t-28 5.5t-30 15.5q-22 -4 -32.5 -54t-2.5 -72q7 -18 29 -29.5t51.5 -20.5t43.5 -18q79 -49 84 -128q2 -20 -6 -38l-16.5 -36t-7.5 -36
q-14 -7 -32 -20z" />
    <glyph glyph-name="percent" unicode="%" horiz-adv-x="463" 
d="M368 235q-11 -7 -25.5 -22.5t-24 -36t-0.5 -32.5q26 4 37.5 32.5t12.5 58.5zM392 312q57 0 52 -66q-4 -61 -49 -121q-32 -41 -60 -44q-53 -4 -72.5 31t6.5 76q54 87 83 118q6 1 19.5 3.5t20.5 2.5zM152 500q26 13 43.5 34t14.5 47q-11 -1 -23 -4q-30 -47 -35 -77z
M281 589q0 -34 -40 -80.5t-84 -83.5q-41 -1 -66.5 13.5t-21.5 52.5h2q6 40 19 60.5t47 49.5q5 5 21 25t30 27q3 -2 18.5 -6.5t25.5 -9t23 -11.5t19.5 -16t6.5 -21zM463 666q-15 -39 -68 -107q-10 -13 -24.5 -44t-26.5 -44q6 -8 -28 -43q0 -7 -6 -19.5t-13 -24l-15 -24
t-11 -18.5q-4 -9 -15 -31.5l-17 -34l-16.5 -31.5t-19 -33t-20 -28t-23.5 -27q0 -14 -4.5 -27.5t-15 -31t-12.5 -23.5q-3 -5 -11.5 -28t-16.5 -35q-7 0 -20 -4.5t-23 -8.5t-21.5 -2t-19.5 12q-11 16 4 48.5t30 42.5q0 9 6.5 17t14.5 10q23 32 62.5 121t75.5 129q2 23 21 35
q9 30 31 70.5t42 62.5h1q6 19 20 42l29.5 47t24.5 41q1 2 4 9t4 9t4 6t6 5.5t7.5 3.5t9.5 2q16 1 33 -13.5t17 -30.5z" />
    <glyph glyph-name="ampersand" unicode="&#x26;" horiz-adv-x="595" 
d="M409 268q2 1 3 2l-13 3zM243 484l8 -6q1 3 0 7zM24 249q4 9 6 28t8 29q7 9 13.5 24l13.5 30.5t15 25.5q2 3 7 9.5t6 8t4 6.5t3 6t1 5.5t0.5 7t-1.5 8t-3 10t-5 12.5q-32 86 2 156q6 11 20.5 27.5t25 31.5t12.5 29q25 17 54.5 31t66 25.5t70 7.5t55.5 -27q24 44 48 -44
q9 -37 11 -55q1 -9 0 -20t-3 -21t-10 -16.5t-21 -6.5q-11 1 -17.5 7t-12 15.5t-11.5 13.5q-41 19 -95 0.5t-83 -50.5q-14 -16 -25.5 -43t0.5 -39q4 -3 9 -4t10.5 0.5t10 3.5l11 5l10.5 5q6 9 23 6v-7q2 -1 34 -20t49 -35t17 -34q0 -8 -3 -15t-11.5 -12.5l-14 -9t-18 -7.5
t-16 -4.5t-14.5 -4.5q-28 -7 -54.5 -19t-51.5 -30.5t-38 -45t-9 -57.5q9 -56 63.5 -94t105.5 -17q58 24 88.5 68.5t24.5 104.5q-24 -38 -57.5 -60t-71.5 -12q-17 5 -31.5 14.5t-15.5 23.5q-2 17 11 28t25 -5q46 13 105 133q28 58 59 101t72 69q34 22 73 15q36 -6 22 -35
q-5 -10 -16 -21q-10 -11 -27 -22.5t-31.5 -23.5t-23.5 -28q-46 -80 -47 -90q0 -2 6.5 -12t15 -21.5t16 -24t8.5 -17.5q3 -18 -1.5 -39t-10 -34t-16.5 -36q-62 -135 -187 -150q-26 -3 -62 1t-71.5 17t-52.5 32q-30 31 -59 95.5t-13 92.5z" />
    <glyph glyph-name="parenleft" unicode="(" horiz-adv-x="385" 
d="M251 1020q17 16 31.5 26t30 12t26 2t27.5 -9.5t28 -16.5t35 -24q0 -17 -6 -27t-13.5 -13t-22 -8t-22.5 -9q-18 -8 -37.5 -24t-43 -39t-33.5 -31q-18 -16 -33 -34.5t-28.5 -43t-21.5 -40.5t-21 -46q-21 -47 -29 -86t-12 -97q0 -8 -1 -21t-1.5 -20.5t-1 -18.5t-1 -19t0 -18
t1.5 -19t3 -19.5l4 -21.5q14 -55 44 -137q10 -29 33 -59t45.5 -51l53 -50t47.5 -49q-135 10 -230 155q-51 79 -65 111q-6 13 -10 41.5t-6 36.5q-15 58 -3 79q-12 13 -14 66t2 70q2 20 6 40t11 48.5t9 38.5q-1 1 15 37l34 75t23 45q72 101 146 168z" />
    <glyph glyph-name="parenright" unicode=")" horiz-adv-x="364" 
d="M90 9q-9 0 -17.5 2.5t-16.5 9l-13.5 11t-13 14.5t-10.5 14.5l-10.5 16.5t-8.5 14q22 9 39.5 22t32 30.5t24 31.5t24 38t23.5 37q-9 27 3 54.5t35 46.5q-3 13 0 28t13.5 34t17.5 29.5t22.5 31.5t16.5 23q-4 3 -11.5 10l-11.5 11q4 13 16.5 43.5t17.5 51.5t4 45
q-1 23 2 61.5t3.5 61.5t-6.5 62q-19 81 -73 144q-7 8 -20 19.5l-22 19.5t-16.5 21.5t-7.5 28.5q24 13 57.5 7.5t63.5 -20t51 -33.5q25 -22 50.5 -53.5t35.5 -57.5q6 -13 6.5 -22.5t-1 -22t-1.5 -22.5q0 -18 7 -59q3 -21 3.5 -44t-1.5 -43.5t-5.5 -45t-7.5 -44t-8.5 -44.5
l-7.5 -43q-3 -20 -10 -37t-16.5 -35t-14.5 -34q-4 -12 -10.5 -34.5t-10.5 -35t-12.5 -30.5t-19.5 -34q6 -11 2.5 -20t-8.5 -12.5t-14.5 -9t-13.5 -10.5q-8 -9 -13 -21t-9.5 -29t-7.5 -24q-8 -21 -18 -43t-26 -49.5t-36 -44.5t-40 -17z" />
    <glyph glyph-name="asterisk" unicode="*" horiz-adv-x="223" 
d="M212 645q-16 -12 -21 -17q1 0 16 -8.5t21 -13l17.5 -13t16 -17t3.5 -16.5q-2 -15 -9 -19.5t-18 -0.5t-21.5 10l-22 13t-16.5 8q-1 -4 -4 -22t-6.5 -31t-8.5 -29.5t-12 -27.5t-16 -14q-16 -6 -26 -0.5t-12 17t-3 25t0 24.5q-31 -30 -50 -21t3 49q4 7 17 22t22 28.5t9 22.5
q-1 6 -15 18.5l-27.5 24t-20.5 25.5t6 23q6 7 17 4t19 -8t18 -12t15 -9q1 6 2 22.5t4.5 29.5t11.5 18q16 11 32 -1t25 -30q22 31 54 2q36 -32 -20 -76z" />
    <glyph glyph-name="plus" unicode="+" horiz-adv-x="301" 
d="M145 140q-28 0 -38 14t-6.5 33.5t4.5 41t-4 36.5q-7 12 -24 19t-33 10t-29.5 16t-14.5 37q17 12 34 12.5t39 -5t36 -5.5q7 9 7.5 28.5t-1.5 36t0 33t12.5 20t35.5 -3.5q25 -9 31.5 -26.5t7 -41t8.5 -36.5q15 -7 49 1.5t51 -1.5q16 -8 24.5 -21t0.5 -27q-5 -9 -20.5 -11.5
t-36 -1.5t-23.5 0q-29 -3 -42 -19t-15 -37t-3 -42t-12.5 -38.5t-37.5 -21.5z" />
    <glyph glyph-name="comma" unicode="," horiz-adv-x="87" 
d="M132 10q0 -57 -79 -119q-18 14 -18 32l11 2h-11q0 12 1.5 35.5t1.5 27.5q-9 15 -15.5 31t-5 35.5t16.5 30.5q28 18 63 -13.5t35 -61.5z" />
    <glyph glyph-name="period" unicode="." horiz-adv-x="75" 
d="M120 69q0 -45 -37 -54q-34 -9 -58 18q-19 21 -15 54q3 20 15 30.5t27.5 10.5t31 -6t26 -20.5t10.5 -32.5z" />
    <glyph glyph-name="slash" unicode="/" horiz-adv-x="385" 
d="M331 661q13 34 35 39t41 -28q15 -34 2.5 -75t-42.5 -63q-4 -28 -17 -55t-36.5 -61t-31.5 -48q-11 -19 -28.5 -53t-33 -61t-33.5 -51q3 -9 -6.5 -28.5t-25.5 -44t-18 -28.5q-28 -52 -69 -66q-15 5 -24.5 12t-15 15.5t-7 18.5t-0.5 20t5 21.5t8.5 22t11.5 22.5l40 76.5
t51 93.5q20 32 65.5 97t77 118.5t51.5 105.5z" />
    <glyph glyph-name="zero" unicode="0" horiz-adv-x="298" 
d="M291 466q2 11 9 21q-1 18 -13 55t-15 50q0 9 -26 31.5t-37 23.5q-5 -3 -20.5 -10t-22.5 -14q-9 -9 -15 -20.5t-13 -31t-9 -23.5q-4 -11 -14 -33l-15.5 -35t-12.5 -32t-11.5 -37t-6.5 -35q-2 -7 -2.5 -22t0.5 -33.5t1 -22.5q0 -3 1 -22t0.5 -33t-3.5 -18l17 -58t17 -55
q12 -3 35.5 -17.5t36.5 -11.5q44 8 87 118q25 63 34.5 130.5t-2.5 134.5zM8 311q-6 70 19.5 162t65.5 159q22 38 43 50.5t65 14.5q30 2 46 -1t28.5 -13.5t29.5 -35.5q9 -17 15 -42.5t8 -40t5 -51.5t3 -39l3 -4l-2 -4q3 -33 -2.5 -96.5t-5.5 -85.5h-1l-1 -2q-11 -18 -20 -63
t-12 -56q-43 -125 -105 -162q-27 -18 -53 -16.5t-47 15.5t-39 40q-16 22 -26 70.5t-24 68.5l4 3q-6 56 3 129z" />
    <glyph glyph-name="one" unicode="1" horiz-adv-x="356" 
d="M278 245h-1l7 -3q-1 7 -6 3zM341 470q-1 -1 -1 -4q25 -8 -2 -41v-2l14 5q-9 -10 -11 -25t-4 -21l1 -6q-18 -13 -18 -26q7 -7 10 -18t-6 -17q0 -2 -1 -5.5t-1.5 -4.5t-1.5 -3.5t-1.5 -3.5t-2 -3t-2.5 -3l-2.5 -2.5t-3.5 -3t-5 -2.5q14 -2 20 -8q0 -2 0.5 -11t0.5 -14h14
q-11 -17 -27 -32q9 -15 10 -49.5t-4 -49.5q5 -5 3.5 -11t-4.5 -9.5t-8 -8.5t-7 -8q0 -14 3 -28t6.5 -22.5t5 -18t-1.5 -17t-12 -17t-26 -20.5q-22 -16 -41 -8q-12 4 -17.5 13.5t-6 17.5t0.5 22.5t1 17.5t-1 19.5t-1 27t1.5 27t5 26.5t11 19t18.5 11q-15 21 -20 30
q2 3 9.5 13t12 18t5.5 14q-8 12 -11.5 28t-2 36.5t4 35.5t8 39t6.5 32q3 13 11.5 46.5t11.5 51.5q0 4 2.5 20t3.5 24.5t2.5 24.5t-1.5 20q-15 -4 -30.5 -24t-31.5 -47t-23 -35q-17 -20 -43.5 -61t-41.5 -59l-8.5 -12.5l-11.5 -16.5t-13.5 -17t-15 -14t-16 -7.5t-16.5 2.5
q-6 4 -8.5 9.5t-1 12.5t5 15t9 16.5l11.5 17t13 16.5l13 14.5t11 12.5t7 9l35.5 49l43.5 59t38 47l16.5 17t17.5 17.5t16.5 17.5t14.5 19q5 7 11.5 20t13.5 22.5t17 15.5q41 24 58.5 -0.5t3.5 -63.5q-8 -23 -14.5 -53.5l-13.5 -61t-15 -53.5z" />
    <glyph glyph-name="two" unicode="2" horiz-adv-x="372" 
d="M136 100q0 9 18 24q1 16 1 22q-22 -15 -39 -34.5t-27.5 -44t-11.5 -49.5q11 3 32 32t27 50zM125 536q0 37 27.5 74t68 57t75.5 13t52 -36t11 -66q-15 -97 -46 -133q6 -28 1.5 -47.5t-25.5 -39.5v-7h-4q6 -7 2.5 -16t-8.5 -15l-12 -14t-9 -12q-3 -6 -10.5 -25.5
t-16.5 -29.5q1 -5 12.5 -8.5t25 -6.5t16.5 -4q19 -9 58 -42q4 -4 13 -10.5l15.5 -11t14.5 -12.5t11.5 -14t6 -15.5t-3.5 -17.5q-12 -29 -31 -31t-39 14t-39 35.5t-36.5 33t-27.5 7.5q4 -15 -7 -24q8 -12 3.5 -26t-19.5 -18q1 -8 5 -16q-9 -17 -23 -38t-30 -41t-28 -32
q-14 -14 -34.5 -24t-36.5 -8q-13 2 -31.5 19.5t-25.5 20.5q0 94 20 144q19 47 64 76q12 7 41.5 15.5t41.5 17.5q44 32 57 159q3 30 16 102.5t16 111.5q-12 -17 -18 -51t-14 -48q-9 -15 -22 -21t-26 -2.5t-25 12t-19 22.5t-7 29z" />
    <glyph glyph-name="three" unicode="3" horiz-adv-x="352" 
d="M176 680q24 17 53.5 20t53 -6.5t36 -33t4.5 -55.5q-10 -41 -37 -96.5t-52 -81.5q24 -10 43 -6t44 2t42 -19q22 -22 25 -62t-16 -65l6 -3q-2 -18 -22 -35q2 -11 -3.5 -35t-15 -47t-18.5 -31q1 -7 -1 -14t-7.5 -13.5t-10.5 -11.5t-12.5 -11.5t-10.5 -9.5l1 -8
q-22 -37 -44 -61.5t-52 -39.5l-1 -2h-10v12l-5 -11q-33 11 -59 31.5t-26 49.5q1 15 4.5 23t8.5 11t13 1.5t14.5 -4t16.5 -7t15 -6.5q4 5 29 13q14 23 47.5 71.5t47.5 75.5q11 20 19 44.5t12 51t-8.5 42t-41.5 11.5q-45 -43 -70 -76t-39 -81l-18.5 -12t-16.5 -11
q-16 6 -28 13.5t-17 17t-8 18t0.5 21l6 21t11.5 22.5l13.5 21t16.5 20.5l15.5 17.5l14.5 16q13 15 25.5 35.5t21 40t17.5 46t14 44.5l13 46l12 42q-24 -7 -44 -25.5t-28 -42.5h-3q-2 -1 -11.5 -13.5t-16.5 -20t-18.5 -18.5t-20.5 -15t-18.5 -4.5t-16.5 9t-12 28.5
q-12 57 123 156z" />
    <glyph glyph-name="four" unicode="4" horiz-adv-x="337" 
d="M282 228q-2 -2 -2 -3l4 2v0h1l1 -2l1 2q-2 2 -2 3q-1 -1 -3 -2zM41 357q37 81 37 133q-15 12 6.5 101t42.5 98q63 25 49 -66q-4 -31 -36 -138q-4 -13 -4 -18q15 -21 8.5 -37l-14.5 -37.5t0 -34.5q9 3 40.5 9.5t50.5 15t28 24.5q11 17 13.5 63t4.5 55q7 34 22.5 50.5
t45.5 4.5q17 -6 26.5 -20.5t11.5 -33t0.5 -36t-6.5 -34.5q-1 -7 -4.5 -17.5t-5 -16t-2.5 -14.5t-1 -20q1 -72 -26 -135q-2 -7 -6.5 -16t-5.5 -12t-3 -8.5t-2 -10.5t0.5 -12t1.5 -17q2 -19 2 -56.5t2 -55.5l1 -1q3 -6 4 -13q-8 -8 -11.5 -18.5t-6 -27.5t-3.5 -22l-12 11
q-2 -9 -6.5 -15.5t-7.5 -9.5t-12.5 -3h-12.5t-15.5 2.5t-14.5 3.5q-21 31 -23 76.5t7.5 85.5t17.5 89t4 81q-25 -5 -76 -42.5t-77 -35.5t-38.5 16.5t-12.5 35.5t5 41t14 38z" />
    <glyph glyph-name="five" unicode="5" horiz-adv-x="321" 
d="M266 155l1 -3h3l-3 -1l1 -3q6 5 -2 7zM0 285q3 32 25.5 88.5t26.5 89.5v7l5 37.5t7.5 41t12.5 43t19.5 32.5t29.5 21q12 5 44.5 10.5t51.5 14.5q6 3 19 10.5t19 10t16 5.5t19.5 2t20.5 -6q19 -9 32.5 -28.5t4.5 -37.5q-7 -14 -58.5 -28.5t-73.5 -14.5q-7 -5 -24.5 -6
t-25.5 -9q-5 -5 -7 -13.5t-2.5 -20t-1.5 -16.5l-4.5 -14t-6.5 -21.5t-5 -21.5t0 -18t9 -7q12 13 33 8.5t42 -17.5t38.5 -29.5t22.5 -27.5q18 -36 17 -122q-1 -139 -89 -245q-10 -3 -27 -19.5t-30 -20.5q-23 -7 -57.5 2t-43.5 30l-1 -3q-52 78 18 86q56 -39 91.5 -12.5
t50.5 83.5t5 106q-12 62 -41 83q-32 23 -58 -39q-2 -5 -7.5 -21.5t-9 -24.5t-10.5 -15.5t-16 -3.5t-21 19q-14 -1 -28 -4q-6 4 -11.5 9.5t-11.5 14.5t-9 12z" />
    <glyph glyph-name="six" unicode="6" horiz-adv-x="416" 
d="M216 102q3 20 9 39q-15 18 -26.5 27t-24.5 12.5t-25.5 -7t-24.5 -34.5q-7 -12 -8.5 -24.5t0 -21.5t9 -22t12.5 -20t16 -21q24 -4 44 14t26 43q-7 9 -7 15zM46 364l6 6q-14 20 14 68l27 49t30 53q14 23 37 50t52 53t61.5 39t57.5 5q32 -10 62 -48q33 -43 1 -54
q-11 -4 -30 -3q-6 0 -15.5 1.5t-14.5 1.5h-12t-14.5 -3t-16.5 -7q-20 -11 -43 -38.5t-37 -37.5v-17l-7 2q-6 -9 -21.5 -27t-22.5 -29q-3 -6 -5.5 -18t-7.5 -19.5t-17 -11.5q-2 -21 -11 -49l-17.5 -55.5t-9.5 -48.5q2 1 6 5q11 8 16 12t14 9.5t16 7t17.5 1t22.5 -3.5
q8 9 21 9t25.5 -6t27.5 -16t24 -17.5l17 -14.5l15 -15.5t10 -15l6 -13t2 -15v-14.5t-1 -19t-1 -21q-8 -11 -16 -28l-13.5 -29.5t-15 -26.5t-22.5 -24q-22 -18 -56 -34.5t-41 2.5l-20.5 3t-19 3.5t-14 4.5t-15.5 8.5t-15 13.5q-59 67 -45 90q-6 10 -11.5 23.5t-9.5 29
t-3 30.5t9 24q-11 6 -10.5 17t10.5 18l-7 7q-2 30 15 47q-11 6 -15.5 12t-3 13t4 10.5t8.5 13.5q1 16 22 37z" />
    <glyph glyph-name="seven" unicode="7" horiz-adv-x="420" 
d="M268 215h-1q1 -1 1 -2v2zM251 88q-3 -2 -3 -5zM32 681q13 0 36.5 -9.5t35.5 -10t26 1t33 5t26 4.5q5 1 61 14t79 10q36 -3 54.5 -33t9.5 -64q-3 -13 -14 -38.5t-14 -38.5q-3 -11 -6.5 -34.5t-8.5 -42.5t-12 -31q1 -10 1 -21q5 -1 23 -1q64 -2 65 -20q-1 -11 -15 -26
q-10 -10 -24.5 -14t-28 -4.5t-26.5 -3t-22.5 -12.5t-12.5 -28l2 -2h-3q-3 -11 -12 -18l4 -1l12 6q-12 -34 -22 -41v-2v1q-3 -5 -7 -9h6l3 2q6 -3 12 -2v-3l3 -1v-14q-10 -18 -29 -16l-4 -10q18 -1 24.5 -14.5t-10.5 -24.5q10 -5 10.5 -12.5t-7 -14t-14.5 -11.5t-13 -8
q21 -1 26 -25t-8.5 -48.5t-35.5 -26.5q-15 -21 -38 -11.5t-29 31.5q-3 11 -0.5 25t8 31t7.5 25q3 14 8.5 58t11.5 67q13 52 16 74q-4 1 -23 -4.5t-24 -5.5q-8 1 -16.5 3t-16 6t-14.5 9t-13 12t-10 14q-10 15 -8.5 33t22.5 23q6 1 19 -6t18 -7q9 -1 21.5 1.5t27 7t21.5 6.5
q6 9 10 20.5t5.5 19.5t3.5 22.5l3 21.5l9.5 49l10.5 56l9 49q-10 -1 -19 -2q-13 -17 -66.5 -23.5t-86.5 -4.5q-20 2 -42.5 12.5t-33.5 25.5q-4 6 -8 14.5t-5.5 17.5t3.5 15.5t16 6.5z" />
    <glyph glyph-name="eight" unicode="8" horiz-adv-x="441" 
d="M303 473q21 65 37 73q10 57 -12 65.5t-51 -44.5q-19 -36 -26 -90t4 -93q5 15 20 39.5t25 30.5q-2 5 -1 20zM220 222q-3 -4 -22 -27.5t-18 -42.5q-15 -8 -27 -21.5t-13 -28.5q4 -5 9.5 -13t8.5 -13t8 -11.5t9 -10.5l9 -9t10 -7.5t12 -5.5t14 -4t16 -1t19 2q31 4 62.5 23
t48.5 44q43 62 -1 96q-13 11 -42 20t-40 15l-16 10.5t-14 8.5t-10 2t-11.5 -6.5t-11.5 -19.5zM0 57h12l-4 11q13 7 26 19.5t21.5 24l20 27.5l18.5 25q11 13 36 39t41.5 47.5t26.5 45.5q-4 8 -8 22.5t-8.5 25.5t-11.5 20q-8 28 -8 58t4.5 50.5t13 54t11.5 55.5q8 10 27.5 43
t39.5 54.5t43 24.5q19 3 56.5 -20t55 -51t-9.5 -50q-26 -72 -32 -119q-11 2 -18 -5t-10 -17t-7.5 -23t-8.5 -19l-2 1q-1 -11 -19 -39.5t-15 -38.5q1 -6 9 -12t16 -9.5l19 -8t13 -5.5q4 -2 11 -5q26 -12 38.5 -18.5t32 -20t28.5 -26.5t14.5 -33.5t1.5 -44.5q-6 -50 -38.5 -90
t-78.5 -60t-95.5 -24t-96.5 16.5t-76 63.5q-4 -2 -12 -6.5t-13 -6.5l-12 -5t-13 -3t-12.5 1.5t-12 6.5t-11.5 13l-3 1v10z" />
    <glyph glyph-name="nine" unicode="9" horiz-adv-x="436" 
d="M266 117l-3 -1l2 1h1zM262 116v2l-1 -1zM258 120q0 -3 2 -3l-1 5zM137 623q83 66 156 28q46 -24 39 -51q-3 -10 -11.5 -14.5t-16.5 -4t-21 2.5t-19 1q-52 -1 -108.5 -43t-68.5 -93q-10 -45 20 -40q23 3 101 56q24 17 31 19q8 21 48.5 51.5t50.5 44.5q5 7 10.5 21t12 22.5
t18.5 11.5t33.5 -4.5t30.5 -16.5q13 -13 14.5 -30.5t-3 -29.5t-15.5 -33.5t-14 -29.5q-4 -11 -15 -50.5t-24 -66.5t-33 -38q-6 -12 -12 -20q7 -3 18 -10q-9 -13 -21 -22v-9q6 -7 3 -14.5t-9 -12.5l-13.5 -11.5t-9.5 -11.5q7 -5 8 -12.5t-4 -14.5q5 -8 1.5 -17.5t-12.5 -13.5
q7 -14 6 -26t-12 -24q8 -29 -8 -43l-2 1q-1 -1 -3 -2q4 -18 -9 -40.5t-33 -38.5t-38 -21q-35 -9 -62.5 7.5t-51.5 52.5q15 22 45 29q9 2 22.5 -2t21.5 2q4 2 8.5 7t9 11t6.5 8q12 13 21.5 29.5t13.5 26.5t12.5 35t10.5 32q8 23 28 113q3 14 11.5 48.5t13 59.5t5.5 49
q-7 -6 -25 -20t-27 -22t-22 -21.5t-21.5 -27t-13.5 -29.5q-6 -4 -16 -10l-16 -9.5l-15 -8.5t-16 -7.5t-16 -4.5t-18 -1.5t-19 2.5q-37 25 -63 72t-17 86q3 13 8.5 25.5t15.5 25l16 20.5t21 21l20 17.5t23 18.5t20 15z" />
    <glyph glyph-name="colon" unicode=":" horiz-adv-x="126" 
d="M50 488q4 32 28.5 42.5t49.5 -3t29 -44.5q8 -46 -28 -61q-32 -12 -58 12q-21 21 -21 54zM63 132q46 0 63 -43q14 -37 -7 -63q-17 -20 -46 -15q-24 4 -39 34t-8 58.5t37 28.5z" />
    <glyph glyph-name="semicolon" unicode=";" horiz-adv-x="133" 
d="M58 558q3 28 12 39.5t35 8.5q21 -2 39.5 -17.5t20.5 -35.5q7 -46 -29 -61q-32 -14 -58 11q-20 20 -20 55zM42 81q2 16 2 24q-13 20 -15 40t5.5 33.5t19.5 20t30 0.5t35 -26q18 -20 19 -44t-12 -46t-29 -40t-35 -34q-18 13 -21.5 32t1.5 40z" />
    <glyph glyph-name="less" unicode="&#x3c;" horiz-adv-x="298" 
d="M179 210l-27 8t-30.5 12t-31.5 16t-26 19.5t-18 24t-4 28t13 32.5q7 11 20.5 18.5t31.5 14t26 11.5q14 7 39.5 26t38.5 27q17 9 29.5 13.5t27.5 1t27 -18.5q4 -6 6.5 -11t4 -9t0.5 -8.5t-1.5 -7.5t-3.5 -6.5t-5 -5.5t-7.5 -5.5l-8 -5t-8.5 -5.5l-9 -6q-9 -5 -58 -29.5
t-66 -40.5q1 0 55.5 -20.5t86 -39.5t38.5 -41q19 -68 -105 -9q-7 3 -19 9z" />
    <glyph glyph-name="equal" unicode="=" horiz-adv-x="358" 
d="M276 218v1v-1zM16 412q0 16 14 25t38 10.5t46 1t46 -2.5t30 -2q1 0 14.5 0.5t23 0.5h27.5t31 -2t28.5 -5t25 -8.5t16.5 -12.5t6 -18t-9 -25t-27.5 -17.5t-48.5 0t-34 3.5q-10 0 -31.5 -3t-40 -6t-37 -3t-27.5 5q-27 -15 -59 5.5t-32 53.5zM187 204q-8 0 -29 -4.5t-34 -6
t-28 3.5q-36 -19 -66 16.5t-27 75.5h118.5h104.5q5 0 19.5 0.5t22 0t19 -1.5t20.5 -5.5t17 -10.5q31 -27 10 -57q-14 -20 -28 -15l-5 4q-24 4 -38 4t-38.5 -2.5t-37.5 -1.5z" />
    <glyph glyph-name="greater" unicode="&#x3e;" horiz-adv-x="277" 
d="M75 164q-26 0 -34.5 12.5t-1.5 30t18 33.5t22 25q10 9 38 27t49.5 36t28.5 34q0 7 -30 18l-64 23t-40 20q-20 23 -13 65q4 29 18 27q8 -1 17 -13v-2q9 -16 37.5 -31t60 -27.5t61 -26.5t45 -35.5t7.5 -48.5q-5 -15 -21 -29.5t-42.5 -31.5l-32.5 -21q-7 -5 -33.5 -30
t-49 -40t-40.5 -15z" />
    <glyph glyph-name="question" unicode="?" horiz-adv-x="351" 
d="M298 528v3l-4 -2v4l5 -1v2q-5 3 -10 0v0l5 -1v-4l-4 -2q4 -4 8 1zM141 15q-21 -15 -39 13q-20 30 -6 59q9 19 32 25q45 13 62 -22q15 -29 -6 -55q-14 -19 -43 -20zM220 714q50 0 78.5 -25t34 -62t-1 -82.5t-20.5 -84.5t-31 -69q-11 -20 -34.5 -52.5t-39.5 -61t-21 -58.5
q-3 -13 -7 -26t-11 -26t-16 -21t-22 -7.5t-28 11.5q-21 16 -28 39t-1.5 50t16.5 55t29.5 58l34 53.5l33 48t24.5 35.5q11 18 23 51t11.5 67.5t-27.5 37.5q-28 3 -60.5 -40t-39.5 -75q19 -20 -5.5 -32t-43.5 -8q-36 6 -60 39q16 78 75.5 131.5t137.5 53.5z" />
    <glyph glyph-name="at" unicode="@" horiz-adv-x="503" 
d="M429 98q-26 -48 -75 -70.5t-102.5 -15.5t-93.5 39q-48 39 -88 96t-41 109q-10 15 -11.5 32.5t2 30.5t9.5 31.5t7 31.5q-16 20 -15 41q12 22 21.5 68t15.5 62q26 73 58.5 119t89.5 72q143 66 253 -15q13 -9 25.5 -22t23.5 -29t15 -30q4 -15 4.5 -49t-6.5 -47
q13 -39 6 -116.5t-28 -111.5q-36 -57 -100 -8q-10 7 -17.5 15.5t-11.5 16t-7 17.5t-5 18l-5 20.5t-7 22.5q-51 -73 -53 -114q23 -46 -17 -64q-37 -16 -77 3q-14 7 -24 18q-43 53 -7 187l13.5 47.5t18.5 43t30 36.5q14 7 44.5 -1t58.5 -20t55.5 -15t34.5 13q-1 6 -8 28.5
t-10 37t-3 29.5q-32 31 -64 35.5t-58 -10.5t-49.5 -43.5t-40 -59t-27.5 -62.5q-26 -75 -34 -164q-3 -30 2.5 -56.5t21.5 -68l20 -52.5q22 -11 32 -36q18 -9 26 -12.5t23 -9t25 -6.5t23.5 0.5t27.5 6.5q26 9 48 31.5t43 47.5t41 37q10 6 23 9.5t26 4t22.5 -7t11.5 -21.5
q2 -22 -26.5 -49.5t-52.5 -39.5q-2 -4 -4.5 -7.5t-4.5 -5.5t-7 -5.5t-6 -4t-7.5 -4.5t-7.5 -4z" />
    <glyph glyph-name="A" unicode="A" horiz-adv-x="449" 
d="M229 487q-3 -17 -18.5 -55t-15.5 -63q58 3 80 15l18 7q-2 3 2 15q10 26 -2.5 91.5t-12.5 78.5q-1 2 -7 29q-5 -9 -15 -48t-25 -52q-1 -6 -4 -18l-12 1zM0 62q0 7 6 12q6 16 12.5 48.5t12.5 47.5q2 8 14.5 36t15.5 45q2 8 -1 41.5t2.5 53t25.5 12.5q2 20 6.5 40t12 44
t10.5 38q5 22 23.5 59.5t23.5 57.5q1 4 4 13q6 27 11 43l14.5 46.5t20.5 50t25.5 40t33 30t38.5 7.5q19 -2 34.5 -11.5t26 -24t15.5 -33.5q5 -9 3.5 -43.5t-0.5 -44.5q1 -13 7 -37t7 -35q2 -19 4.5 -81t11.5 -101.5t33 -72.5q-2 -6 -5 -17t-5 -16q4 -17 15 -59l17.5 -68.5
t11.5 -62.5t5 -63q-45 -51 -83 -42t-53 72q-5 18 -10.5 53t-7.5 46q-1 1 -5 30.5t-9 51t-12 27.5q-15 -1 -43 -11.5t-43 -11.5q-10 -11 -37 -15.5t-38 -20.5q-10 -15 -19 -56t-10 -43q0 -1 -3 -10.5l-4 -12.5l-4 -12t-5 -13t-5 -11.5t-6 -12l-6.5 -10t-7.5 -10t-9 -8.5
q-12 -9 -28.5 -11.5t-30 7t-13.5 29.5z" />
    <glyph glyph-name="B" unicode="B" horiz-adv-x="598" 
d="M417 194q3 10 10.5 25.5l13.5 27t12 27.5t6 26.5t-4 23.5q-69 -67 -109.5 -131.5t-40.5 -138.5q18 0 40.5 13t29.5 29q-4 2 7.5 20.5t26.5 39.5t16 24q-1 1 -8 14zM231 584q0 -5 -1.5 -10t-3.5 -9.5t-5.5 -10t-6.5 -9l-8 -9.5t-7 -9t-7.5 -8.5l-6.5 -6.5v-5
q10 -10 10.5 -25.5t-8.5 -26.5v-13h-5q-1 -3 -1.5 -5t-0.5 -3v-3v-3.5t-1 -5.5t-3 -10q14 13 51 42.5t55 49.5l22.5 21.5t30 31t15.5 26.5q3 11 2.5 33t1.5 35q1 4 5 17t6.5 22.5t3.5 23t-4 18.5q-9 -1 -18 -4.5t-20.5 -9t-16.5 -7.5v-8h-8q-1 -7 -19 -23.5t-26 -17.5
q-3 -20 -13 -37l5 -5q-3 -3 -8 -7.5t-9 -9t-7 -7.5q6 -5 6 -12zM141 526v-1l4 1h-4zM20 262q6 7 7 11q-16 17 10 33q-11 13 -15.5 28t-3 33.5t4 32t8.5 35.5t8 30l8.5 36.5t9 37t7.5 37t3.5 37t-2.5 36.5q-1 7 -5 15.5t-3.5 15t8.5 16.5q12 16 33 16.5t35 -11.5
q10 -7 16.5 -18t9.5 -21t3.5 -26t0 -25t-2 -26.5t-2.5 -22.5q11 10 18 22q2 30 18 71t40 47q11 29 36 54.5t53 29.5q16 35 67 18q36 -12 44 -30q2 -6 -1 -10q22 -16 26.5 -60.5t-7.5 -68.5q-3 -11 -14.5 -32.5t-25.5 -42.5t-21 -24q6 -1 20.5 -1t22.5 -0.5t20 -3t21 -7.5
q7 -4 16.5 -14.5t18.5 -19.5t17 -12q11 -3 22.5 1.5t18.5 4.5q37 3 49.5 -17.5t-17.5 -50.5q-5 -5 -21 -13t-24 -19q-18 -25 -18 -85q9 -8 5 -28t-11.5 -36.5l-17 -37t-11.5 -29.5q-14 -15 -29 -43.5t-27.5 -56t-29 -53.5t-41 -41t-56.5 -13q-45 2 -67.5 26.5t-23.5 60
t10 76t27 74t32 55.5q57 77 130 144l11.5 9l11 9t9 10t4.5 12l-3 15q-9 23 -54 23q-21 0 -45.5 -14t-39 -27t-36.5 -35q-5 -5 -17.5 -21.5t-23.5 -28.5t-25 -22.5t-28 -7.5t-25 20q-2 -8 -2 -13q7 -6 12 -27l-11 2q-4 -10 -2.5 -38.5t0.5 -38.5q-1 -11 -8 -30.5t-9 -26.5
q9 -15 0.5 -47.5t-21.5 -45.5q-17 -18 -45.5 -19t-45.5 17q-15 19 -21 97.5t7 92.5z" />
    <glyph glyph-name="C" unicode="C" horiz-adv-x="382" 
d="M354 293h2q0 1 -2 0zM17 288h1q-5 14 -6.5 30.5t1.5 40t5 33.5t9 39.5t7 31.5q5 19 8 55.5t6 52.5t26 40t23 41h9v1l-9 2q2 8 4.5 15.5t5.5 14t6.5 12l7.5 11.5l8 11.5l9 12t9 12.5q3 5 15 30.5t25 35.5q26 21 83 16.5t81 -30.5q16 -19 3 -83t-35 -83q-40 -38 -45 22
q-1 11 -2 35q0 28 -2 35q-13 -4 -22.5 -17t-21 -37t-12.5 -25q1 -4 -0.5 -9t-4 -10.5t-6 -11t-8 -11.5t-9 -11l-9 -10.5l-8.5 -10l-7.5 -8.5t-6.5 -7q2 -5 1 -18h-4q-30 -96 -28 -212q0 -7 -0.5 -39t0 -51t6 -43.5t15.5 -38.5q17 -22 34 -25t31 9t28.5 31t26 39t24.5 35.5
t22 18.5q3 13 11.5 24.5t19.5 12.5q2 24 37 48l6 -10q3 23 24 23q10 -6 10 -22h4q2 -11 -1 -19.5t-10.5 -13.5t-18.5 -5q-6 4 -7 7q-2 -9 -6 -14q1 -3 1 -9l4 -3l-8 -19l-4 1l-5 -5l-7 7q0 -2 0.5 -13t0.5 -15.5t-2 -12t-6 -12.5q-12 -3 -18 4q0 -31 -21 -64.5t-49 -51.5
q-3 -6 -13 -19.5t-24.5 -29t-28 -20t-22.5 7.5q-12 -5 -21 -6q-7 2 -26 4t-30 8t-12 20q-2 3 -9.5 10t-9.5 9l-8 8t-7.5 8.5t-6.5 8.5t-6.5 9.5t-5 9t-5 11t-3.5 12t-3 13.5q-5 22 -9 88q-17 21 1 38z" />
    <glyph glyph-name="D" unicode="D" horiz-adv-x="553" 
d="M542 389q-1 -41 -17 -48q2 -12 -13.5 -30t-16.5 -30q2 -18 -12 -31q0 7 6.5 20.5t15 28.5t10.5 20.5t7 21.5t10 30t10 18zM246 470q0 -10 -13 -27t-15 -25q-1 0 0 -15.5t1 -16.5q0 -3 1 -15t1.5 -22.5t-0.5 -22.5t-4 -19t-9 -7q9 -32 -8 -37q0 -8 1.5 -9.5t-1.5 -8t-3 -7
t-4 -7t-5 -7.5q5 -11 -3 -23t-7 -16q2 -7 5 -10.5t6 -5l8 -4t9 -6.5q46 -45 104 -33q8 25 33 55t46 26q11 15 25.5 64.5t32.5 64.5q-12 16 -4 59.5t27 54.5q-9 21 4 37h3q-1 16 2 31q-9 22 4 44q-4 7 -6.5 30t-4.5 28q-10 41 -25 71q-16 36 -35 40.5t-50 -24.5l1 -2
q-11 -14 -16 -31l-7.5 -2.5t-9 -2.5t-7.5 -2q3 -26 -5 -33q1 -1 -2 -18q-10 -21 -17 -21q0 -12 -4 -20t-11.5 -17t-11.5 -16q-7 -12 -16 -40.5zM483 250q-2 -40 -46 -90.5t-84 -57.5q8 -14 -12 -29t-47 -22.5t-37 -2.5q-7 -6 -15.5 -7t-18.5 3t-17 8t-18 11.5t-13 9.5
q-1 -2 -5 -11.5t-8 -18t-10.5 -20.5t-13 -20t-13.5 -13.5t-14.5 -5t-14.5 8.5q-25 -1 -41.5 7.5t-24 26t-10 36.5t-1.5 46q0 9 5 27.5t5 27.5q0 12 -4 25t-7.5 20.5t-2 20.5t10.5 28q-3 8 -2 11t5 9t5 9q0 2 -1 11.5t-2 21t-1 13.5q-1 54 4 72q6 27 6 40q1 10 -1 19.5t-2 19
t4 24.5q-5 11 3 39.5t8 31.5q1 5 0.5 12.5t-0.5 13t-1 13.5t-2 13l-2.5 13l-2.5 13l-2.5 12.5t-2.5 11.5q-8 42 23.5 54.5t68.5 -10.5q36 -22 51 -80q5 -14 3.5 -28.5t-3.5 -21t-7 -20t-8 -24.5q-27 -120 -18 -179l1 1q-8 40 20 78v9l5 1q-1 26 20 40l2 -3q5 13 3 39t8 39
l-1 5q7 7 15 13q0 3 2.5 9l5 11.5t5.5 7.5q-2 25 38 60q0 2 2 4v2l2 1l1 1q5 38 35 68t67.5 42t77 2t59.5 -45q9 -2 17 -12.5t13 -22.5t9.5 -31t6 -31t4 -30t3.5 -21q6 -14 8 -31.5t0.5 -34.5t-6 -38t-9 -37l-10.5 -36t-9 -32q-5 -19 -32 -71t-29 -79z" />
    <glyph glyph-name="E" unicode="E" horiz-adv-x="431" 
d="M19 448q9 11 5 72q-3 44 1 94q1 8 0 32t0 45t4 43.5t13 35.5t26 13l3 -5q27 -10 62.5 -12.5t64 0t64.5 -0.5q109 -7 142 -20q45 -16 19 -42q34 -32 -38 -40q-27 -2 -67 -1q-123 3 -174 11h-1q0 -13 -4 -65t-2 -89.5t15 -61.5q1 -3 5 -4.5t13.5 -1.5h16t21.5 1q19 2 29 2
t27.5 -0.5t25.5 -4t16 -9.5t7.5 -17.5t-8.5 -27.5q-6 -13 -19.5 -19.5t-26 -8t-31.5 -2t-27 -1.5q-19 -2 -28 -7t-11 -12t-1.5 -15t-2.5 -20.5t-11 -24.5q20 -13 6 -29q9 -18 8 -25.5t-6 -22t-4 -25.5q14 -7 16.5 -22t-1.5 -30q28 -1 46 0t46.5 3t46.5 2l2.5 2t5.5 4l3 2
q16 -1 27 -2t26.5 -5.5t24.5 -10.5t14 -18t1 -27q-5 -19 -18.5 -28.5t-33.5 -11t-38.5 0t-40 4.5t-31.5 3q-18 0 -57.5 -5.5t-63 -7.5t-55.5 4q-22 8 -35 28t-16 44t-4.5 50t-0.5 45l4 -1q5 18 10 26q-6 16 -7.5 34.5t-0.5 34.5t1.5 34.5t-0.5 34.5v13.5t-1 14.5q0 6 -3 13
t-5.5 11.5t-1.5 11t8 14.5z" />
    <glyph glyph-name="F" unicode="F" horiz-adv-x="377" 
d="M9 667q-3 24 5 38.5t23.5 19.5t35 7t38.5 0q31 -1 88 4.5t82 5.5q15 2 45.5 0t41.5 -13q16 -21 14.5 -33.5t-23 -19t-38.5 -9t-32 -2.5v1q-14 -2 -46 -2.5t-57 -4.5t-43 -15q8 -33 2.5 -106t-1.5 -106q10 0 33.5 1t43 1.5t41 -2t36 -12.5t19.5 -27q1 -11 2.5 -19
t-3 -13.5l-7.5 -9t-11 -5.5t-13.5 -3t-14.5 -1t-15 0.5t-15 1.5t-13 1q-19 1 -31.5 0t-22.5 -6t-15 -9.5t-10 -17t-7.5 -22t-6.5 -30.5q14 7 22 -5t10 -37t2 -48.5t-1.5 -47.5t-1.5 -27q1 -26 -3 -46t-14.5 -38t-29.5 -22t-49 3q3 -7 -11 -5q-21 3 -26 7q0 16 12 24
q-7 14 -11 27t-5.5 26t-2.5 24t-1.5 27t-2.5 29q0 5 -3.5 32t-4 40.5t0.5 34.5t6 34q-7 11 -7.5 24t3 31t3.5 25q0 1 1.5 11l3 21t1.5 12q0 8 -4.5 24t-5.5 24q-3 31 -1.5 101t-4.5 102z" />
    <glyph glyph-name="G" unicode="G" horiz-adv-x="561" 
d="M305 77q16 50 45 77q1 5 2 15t2 16t4.5 13.5t9.5 12.5v8q-13 -3 -26 -12t-21 -18.5l-19 -23.5t-18 -21l-19.5 -19t-19.5 -20.5l-14 -18.5t-13.5 -24t-6.5 -27q11 1 30 5t27 5q6 10 13 11q8 9 24 21zM0 413q0 4 3 16.5t6 15.5q3 32 16.5 75t30.5 62q-17 30 26 62
q2 29 23 35q4 20 23 39.5t37.5 30t48 25.5t38.5 21q14 8 19 10.5t14 5t17 0t20 -8.5l31.5 -13l41.5 -17.5t35 -20t24 -24.5q8 -23 5 -33.5t-23.5 -9.5t-35 4t-29.5 8q-39 13 -70 -4t-67 -57q-47 -51 -70 -110q-1 -3 -6 -15.5t-7.5 -19.5l-7 -20t-6 -21.5t-1 -18.5t3.5 -16
q66 16 161 85q5 4 21 18l31 27t34.5 27.5t32 18.5t23.5 0q52 6 74.5 -19.5t20.5 -81.5h-2q-4 -23 -18.5 -81t-19.5 -89q17 -1 28.5 -2.5t24.5 -6t18 -11.5t1 -18.5t-19 -27.5q-4 -1 -34.5 -1t-44.5 -6q-36 -77 -60 -109l2 -2q-9 -6 -15.5 -15.5t-9.5 -18.5t-8 -20t-11 -19
q-39 -50 -57 -51q-11 -21 -36 -35t-52.5 -16t-52 4t-37 27t-6.5 52q16 79 88.5 147t158.5 108q11 23 18 49t8 55.5t-10 50.5q-19 -17 -29 -17q-8 -10 -23 -21.5l-30.5 -24t-24.5 -21.5q-51 -55 -109 -58q-23 -22 -39 4q-40 -16 -88.5 19t-48.5 79z" />
    <glyph glyph-name="H" unicode="H" horiz-adv-x="458" 
d="M132 631h-1h1zM127 624v2h-5q3 -3 5 -2zM107 473v1l-1 -1h1zM371 607q2 21 10.5 49l16 55t7.5 51q0 5 -1 20t-0.5 20.5t3 15.5t9.5 15.5t19 10.5q33 11 60.5 -7t28.5 -52q0 -10 -5 -39t-12.5 -57t-13.5 -31q3 -1 3.5 -9t-1 -20t-4 -23.5t-4.5 -22.5t-2 -14q21 24 32 -3
q11 -29 0 -51q-9 -16 -22.5 -29.5t-21.5 -26t-11 -35.5q-7 -60 -41 -265q-1 -6 -4 -30.5t-6 -41.5t-9 -38.5t-16 -36t-24 -20.5q-34 -13 -48 47q-15 68 -1 151q2 18 6 26q-6 17 -5 30t6 33t5 25q1 7 -1 23.5t-2 25.5q1 4 3.5 19t3.5 24t-2 18q-106 -14 -153 -29
q-28 -9 -33.5 -15.5t-6.5 -35.5q-1 -16 -0.5 -34t2.5 -43t3 -34q0 -7 9.5 -71.5t3.5 -94.5q-3 -12 -9.5 -26.5t-17.5 -28t-23 -15.5q-11 -2 -29.5 9.5t-26.5 25.5t4 25q-2 20 -10 54.5l-14 59t-7.5 58t9.5 51.5q-7 11 -8.5 30.5t1 50t2.5 32.5q0 20 6 54t7 50q1 14 7 39.5
t7 37.5q2 18 1 32.5t2 31.5t11 30q-10 10 -15 49.5t6 47.5q3 11 2 32.5t1 32.5q32 18 72 12q23 -3 33.5 -20.5t9 -39.5t-4.5 -44q16 -7 10.5 -57.5t-16.5 -65.5q6 -10 5.5 -13t-5 -9t-4.5 -12v-17v-17q-4 -37 -18 -57q24 -1 55.5 5.5t53.5 14.5l59.5 22.5l50.5 19.5z" />
    <glyph glyph-name="I" unicode="I" 
d="M653 96v1v-1zM0 64q0 21 25 33.5t55 16.5l64 8.5t45 10.5q-2 185 34 271q-7 3 -0.5 24.5t10.5 27.5q-3 8 -4.5 18t-1.5 20.5t0.5 19t1.5 21t1 19.5q1 6 1 16q2 27 -3.5 35t-36.5 12q-5 1 -26 3t-30 3.5t-23.5 7.5t-23.5 16q-15 14 -26 40t-4 41q4 8 15.5 12.5t29 4.5
t30 -1t31 -3t21.5 -3q53 -4 106 2q48 6 131.5 -5.5t112.5 -12.5q27 18 53 -9q25 -26 14 -52q-13 -34 -81 -25q-11 -19 -43.5 -18.5t-43.5 18.5q0 -6 -23 -12.5t-31 -6.5q-7 -4 -13 -4q1 -3 6 -46t2 -65q-1 -15 -9.5 -41.5t-10.5 -40.5q4 -4 6 -8q1 -6 -1 -11l3 -4l-8 -8
l-4 3l3 -4q-17 -14 -24 -21q4 -3 5.5 -31.5t5.5 -35.5q-9 -14 -16 -29.5t-13.5 -34.5t-12.5 -31q13 -8 15 -29q26 5 80 7.5t80 6.5q16 3 47 3t46 2q6 1 20 4t21.5 4t18 -0.5t17.5 -9t12 -21.5q22 -7 25.5 -20.5t-19.5 -28.5q20 -14 7 -30q-14 -16 -34 -3q-2 1 -5 3
q-9 -11 -15 -13t-17 0.5t-18 3.5q-4 0 -61 -5q-9 -11 -64 -15t-62 7q-5 0 -10 -3t-10.5 -7.5t-9.5 -6.5q-13 -5 -38.5 -8t-33.5 -5q-11 -3 -28 -6.5l-32.5 -7t-28.5 -7.5q-11 -3 -32.5 -11.5t-38.5 -13.5t-33 -5q-31 0 -64.5 22t-33.5 52z" />
    <glyph glyph-name="J" unicode="J" horiz-adv-x="436" 
d="M409 526zM0 606q0 15 6.5 20.5t14 3.5t18.5 -5.5t15 -2.5q38 1 89 39q26 4 58.5 23.5t60 39.5t57 36t60 15t59.5 -26q12 -10 18.5 -23.5t6.5 -30.5t-1.5 -30t-6 -33.5t-5.5 -29.5q-1 -3 -3.5 -49t-10 -75.5t-22.5 -34.5q-7 -9 -9.5 -25t-2.5 -38v-27q3 -2 8 -7
q0 -42 -26 -76q9 -6 13 -15q-1 -6 -2 -19t-2 -21t-4 -19t-7 -18q1 -10 -2 -21.5t-6 -18.5t-10 -20.5l-9 -17.5q5 -5 7 -11q-9 -26 -21 -41t-37 -38q-8 -1 -18 2q-20 -24 -47.5 -39.5t-59 -13.5t-51.5 29q-8 2 -21 9q-12 -5 -30 6.5t-31 9.5v6q-22 16 -28.5 39.5t7 38.5
t42.5 10q23 -5 60 -36t60 -37q2 1 12 3.5t17 6t9 7.5q0 9 5 19.5t13 22t11 17.5q8 6 13.5 15.5t7.5 17t4.5 21t3.5 19.5q4 13 13.5 38.5t12.5 42.5q-3 4 -3.5 8t0.5 7t2.5 6l3.5 7t3 8q0 -1 -2.5 4.5t-5 12t-3.5 7.5q8 14 13.5 43.5t8.5 38.5q-4 15 -4.5 34.5t0 31.5t3 38
t2.5 32q-11 8 -13.5 26t0.5 46.5t3 32.5q-21 -8 -52 -13q-29 -26 -111 -53q-127 -44 -150 4q-4 9 -4 21z" />
    <glyph glyph-name="K" unicode="K" horiz-adv-x="440" 
d="M102 164l-1 1l-1 -1h2zM7 423q3 29 3 101.5t6 111.5q3 21 4.5 67t8 80.5t23.5 60.5q37 -2 62 -13.5t36 -32.5t15.5 -44.5t0.5 -54.5t-8.5 -56.5t-11.5 -58t-9 -51.5q-9 -76 -2 -81q9 -2 15.5 -1t15.5 9.5t15 15.5t13 17t10 12l34 36.5l37 40.5t31.5 39t28.5 44
q10 5 15.5 13.5t10.5 20t10 18.5q17 23 49 42q3 -2 15.5 -8t16.5 -8.5t12 -8.5t11.5 -13.5t4.5 -16.5q3 -15 -6.5 -34.5t-23.5 -34.5t-27 -23q-7 -31 -21.5 -51.5t-40.5 -43t-39 -36.5q-8 -9 -53 -52.5t-60 -71.5q11 -8 20.5 -41t10.5 -35q22 -45 70 -85q8 -6 28 -15.5
t37.5 -17t31.5 -18.5t13 -23q-1 -19 -18 -27.5t-40 -6.5t-42.5 7t-32.5 11q-31 14 -57 38t-55 57.5t-47 49.5q-9 -13 -2 -48.5t3 -49.5q5 -5 7 -11l-2 -2l3 -3q-2 -9 -6 -12q8 -22 3 -56.5t-24 -49.5q1 -24 -15 -36q-12 5 -22 11t-17 14.5t-12.5 14t-9 18t-5.5 17.5
t-3.5 20.5t-2 20t-1.5 23.5t-1 24q-2 29 -7.5 92t-7 93.5t0.5 91.5z" />
    <glyph glyph-name="L" unicode="L" horiz-adv-x="447" 
d="M113 312v1q-1 1 -2 1v-2h2zM113 307q0 1 1 2h-3v-6zM10 507q-3 10 -4 20.5t-1 19t1 20t2 19.5l2.5 20t1.5 20q1 14 0.5 32t-2 33.5t-0.5 33.5t7 32q8 23 32.5 35t52.5 10q13 -1 22.5 -6t14.5 -9.5t8 -16.5t3.5 -18t0.5 -22v-21q6 -168 -2 -306q-1 -7 -5 -26.5t-3 -29.5
q1 -8 6 -24.5t6 -25.5q1 -13 -1.5 -37t-2 -44.5t7.5 -35.5q41 8 161 40q45 10 66 7t58 -25q47 -72 -83 -83q-7 -1 -26 -2q-4 -3 -71 -20l-40.5 -9t-48 -11t-40.5 -11q-13 -5 -29 -6.5t-32.5 1t-30 8t-22.5 17.5t-10 28q0 4 5.5 9.5t5.5 8.5q1 10 -3 28t-5 26q0 15 2 47t1 52
q-1 2 -5 45.5t-5 65.5q-1 14 5 55.5t0 55.5z" />
    <glyph glyph-name="M" unicode="M" 
d="M519 396zM507 842q31 -8 51 -70t21 -107q1 -22 -5.5 -73.5t-3.5 -80.5q2 -18 5.5 -45l6.5 -51t5 -45q9 -117 6 -282q-1 -38 -12 -59q-10 -23 -27 -34t-34.5 -4t-26.5 36l3 4q-1 4 -4 11.5t-4 11.5q5 11 1.5 62.5t-3.5 64.5q1 58 -10 163q-9 78 -8 154q0 18 -2.5 39
l-5 43.5t-3.5 39.5q-1 21 -1.5 28.5t-5 20.5t-12.5 24q-2 0 7.5 39.5t26.5 77t35 32.5zM61 385h-1h1zM63 387l-2 2q-5 1 -7 -4l3 1l3 3v-3zM54 385h2h-2zM52 452l2 1q-1 1 -2 1v-1v0v-1zM51 454zM438 693q-9 5 -22 -14.5t-24 -48t-19 -53.5t-10 -34l-12 -30.5t-14 -33
t-15.5 -28t-23.5 -25t-32 -13.5q-22 -5 -36.5 1t-30.5 22q-4 3 -7.5 8t-6 10t-5.5 10t-6 8t-6.5 5t-8 0.5t-9.5 -5.5q-19 -17 -15 -117q1 -12 2 -29.5l2 -34.5t1 -31l4 -4l-1 -1q11 -13 -2 -25q5 -7 6 -16q-3 -5 -5 -7q10 -17 -2 -29q5 -4 5.5 -11t-2 -13t-5.5 -14.5
t-4 -13.5q-5 -2 -10 -7t-8 -10t-8 -10t-10 -7q-8 -3 -14.5 -3t-11 3t-8 6.5t-6.5 10t-5 11.5t-4.5 12.5t-3.5 11.5q-13 33 -15 74q-1 12 -5.5 29.5l-8 30.5t-4.5 30.5t5 27.5q6 40 2 74t2 74t27 68q-10 17 -10.5 46.5t4 56.5t9 59t3.5 49v12h7h1v1l-8 2q18 74 68 75
q7 1 12.5 0t10 -4t7 -5t5.5 -8.5t4 -8.5t3.5 -11t3.5 -12q4 -13 13 -38t15 -45.5t11 -39.5q24 -102 36 -105q14 22 33.5 55.5l37.5 63.5l34 55q5 7 12.5 19.5l13 22t13 20t14.5 17.5q7 6 23.5 14t23.5 14l7 -3q11 4 28.5 1.5t23.5 -13.5l-8 -26.5t-16.5 -51.5t-23.5 -55.5
t-21 -15.5z" />
    <glyph glyph-name="N" unicode="N" horiz-adv-x="460" 
d="M442 575l-1 -1h2zM62 454h4v3q-2 0 -4 -3zM62 390l-1 -1h1v1zM64 397v2q-1 0 -3 -1q-1 -1 -2 -1h5zM59 394v1v-1zM443 219q0 -15 4 -46t5.5 -54t-1.5 -48.5t-18 -43t-42 -25.5q-7 9 -12.5 20t-8 20t-6.5 22t-7 21q-1 4 -22.5 47t-21.5 64q-9 11 -20 18q-7 10 -14.5 34
t-14.5 34q-6 9 -19 23t-19.5 26t-7.5 30l-3 3q-7 -2 -13 5.5t-10 21t-6.5 26.5t-4.5 25.5t-3 14.5q-7 28 -9 30q-1 2 -3.5 8t-4.5 8q-1 0 -6.5 2t-10.5 3.5l-5 1.5q-14 -21 -15 -42.5t4.5 -49.5t5.5 -43q0 -18 -1.5 -65t-0.5 -73q0 -16 -6 -47t-5 -46q0 -13 5.5 -38.5
t5 -45.5t-10.5 -40q-16 -30 -40.5 -32.5t-45.5 23.5q-10 14 -14.5 29t-4.5 24.5t2 28.5t2 28q3 70 -10 133q-5 24 4 57.5t6 53.5q-16 16 1 50q-15 9 -4 149q1 5 3 42t4 56t10 44t21 37q15 13 30 17t28 -2t25.5 -16t24 -27.5t21 -34.5t19 -38.5t15.5 -37l13 -34t10 -25.5
q4 0 6.5 -1t3.5 -2t2.5 -3.5t2 -4t1 -4.5t1.5 -5q10 -6 26 -39t17 -46q17 -3 37.5 -59t29.5 -65v6q-4 4 -4.5 11.5t1.5 14t5 15t3 11.5q-12 12 -9 44.5t14 45.5l-6 8q2 51 14 142q1 9 1.5 31.5t0 42t2.5 40t8 29.5q11 18 40.5 21t43.5 -14q7 -7 10 -19.5t2.5 -29t-1.5 -27.5
t-3.5 -29t-3.5 -21l-12 -99l-14 -115t-9.5 -94t-7.5 -111z" />
    <glyph glyph-name="O" unicode="O" horiz-adv-x="504" 
d="M451 554q1 12 10 23q-4 19 -32 55.5t-34 49.5q0 4 -6.5 8t-16 8l-18 7.5t-18 6.5t-11.5 4q-26 12 -41 11t-35 -25q-41 -47 -74.5 -128.5t-34.5 -140.5q0 -2 3 -19t7 -35t4 -20q0 -3 -2 -15t-1 -16q1 -5 6.5 -12.5t9.5 -12.5t5 -12.5t-7 -14.5l40 -57l39 -56q10 0 23.5 -7
l26.5 -13.5t23 -5.5q18 1 54 27q61 45 90 137q8 27 13.5 60t6 68t-6.5 68.5t-23 56.5zM18 358q-19 60 17 213q23 95 85 165q19 21 41 30t61.5 13.5t51.5 7.5q75 15 119 -7q6 -3 12.5 -8t10.5 -10t10 -10.5t11 -8.5q10 -9 17.5 -19.5t11.5 -19l9.5 -20.5t10.5 -21v-1l1 -1
l-2 -3q4 -10 18 -41t20 -49l6 -4l-4 -4l17 -44q-9 -16 -10.5 -36t1 -35t8.5 -39.5t8 -34.5h-2v-3l-7 -5q-5 -16 -14 -74.5t-27 -89.5q-16 -29 -28.5 -47.5t-30.5 -41t-40 -38t-48 -24.5q-108 -39 -209 35q-13 9 -20 14.5t-16 14t-15.5 17.5t-12.5 20q-4 7 -12 24t-15 28
t-18 19l6 4q-22 57 -22 134z" />
    <glyph glyph-name="P" unicode="P" horiz-adv-x="461" 
d="M167 236q-5 0 -16 7.5t-19 4.5l1 -17q-1 -7 -4 -4q51 -124 19 -182q-4 -7 -15 -17.5t-13 -13.5q-3 -3 -6.5 -12t-6 -13.5t-9.5 -3.5t-18 12q-22 -4 -35 2.5t-17 22.5t-5 31t0.5 37t0.5 31q-1 20 -9.5 59t-10.5 60q0 26 -0.5 38.5t1.5 38.5t3.5 38.5l4.5 38.5t4 38
q1 10 2.5 27t2.5 29.5t3 28t5 29t8 26.5q-12 14 3 82.5t32 81.5q24 17 39.5 14.5t25 -20t13.5 -36.5t4 -35q-1 -13 -3 -25.5t-6 -28.5t-5 -24q-4 -19 2 -53t5 -48q0 -7 -5.5 -27l-10.5 -38t-6.5 -37.5t7.5 -24.5v-1q15 -10 26 -32h8.5t8.5 -3.5t8 -5l7 -5.5t7 -5
q14 15 41.5 33.5t51 37t36.5 35.5q24 32 36.5 92.5t10.5 107.5q-1 24 -4 40t-10.5 28t-21.5 10.5t-34 -16.5q-13 -10 -32 -38.5t-39 -48.5t-45 -20q-3 -3 -7 -8q-50 2 14 88q31 43 49 57q3 13 12 19t25 9l12 14l3 -1l2 -1q49 54 85 27q10 8 22 5.5t17 -13.5l17 -1
l13.5 -17.5t14.5 -20t9.5 -19t3.5 -22.5q8 -6 11 -15.5t2.5 -24t-2 -24.5t-5 -26t-4.5 -20q-16 -89 -40 -132q-33 -59 -69 -101t-84 -67v-5q-2 -3 -4 -5t-5 -3t-5 -1.5t-6 -1t-6 -1.5q-3 -7 -6 -11q-6 -7 -9 -13q-8 0 -16 1q-5 -12 -33.5 -7t-31.5 15z" />
    <glyph glyph-name="Q" unicode="Q" horiz-adv-x="452" 
d="M382 651q0 -1 -1 -1q0 -1 2 -3.5l2 -2.5q-1 5 -3 7zM324 723q0 -1 1 -3q1 1 2 3h-3zM377 626l-7 1q-1 4 -10.5 11.5t-23.5 17.5t-15 10q-14 11 -36 21.5t-34 8.5q-16 -3 -32.5 -22.5t-29.5 -45.5t-22 -49.5t-14 -40.5q-7 -26 -6 -76.5t-4 -76.5q-32 -144 12 -196
q8 -1 14 -6q5 -30 37 -49q14 -9 26 -11t22 3.5t17 12.5t17 20q-3 4 -8 11.5t-7.5 12t-5 11.5t-1.5 15q16 9 28.5 9.5t20 -2t27.5 -12.5q-1 6 14 31t15 28q10 29 29 117q2 7 5.5 22t5 23t4 23t2.5 22.5t-1 22.5q-1 9 -5 33.5t-4 31.5v34q-12 13 -17 30zM53 359l1 -1v2h-1v-1z
M70 95q-9 13 -22 17q-50 71 -46 197q1 12 1.5 40t1 42.5t2 39t4 42t6.5 39t9 40.5q37 128 87 186q7 8 18.5 14t16.5 10q3 3 10.5 14t12.5 13q17 9 85 0q13 13 32 -2q2 1 5.5 2.5t5.5 2.5q30 -5 32 -18q6 3 8 5l22 -3l7 -18q5 -1 8 -4t7 -11.5t6 -11.5q13 -2 24 -17t19 -19
q3 -6 8.5 -14.5t9 -15l7.5 -14.5t6 -16.5t3 -17.5q19 3 27 -120q7 -118 -12 -194q-18 -71 -52 -152q-8 -18 -8 -32.5t6 -26t13 -21.5t15.5 -24.5t12.5 -29.5q-11 -23 -23.5 -28.5t-25 3t-23.5 21.5t-24.5 27.5t-23.5 18.5q3 -1 -11 -9.5t-31 -17t-18 -9.5q-42 -3 -80.5 -2
t-76 19.5t-61.5 54.5z" />
    <glyph glyph-name="R" unicode="R" horiz-adv-x="461" 
d="M282 511q-1 -10 -20 -52.5t-13 -58.5q11 2 32 12q5 7 25 14q-3 8 5.5 37t21 62.5t24 69.5t14.5 57.5t-9 27.5q-22 -8 -36.5 -39.5t-25 -71t-18.5 -52.5v-6zM119 10q-28 -1 -46.5 11.5t-25.5 31t-9 46t0 51l4.5 52t1.5 42.5q-2 83 1 170q1 21 -5 67.5t-3 72.5
q2 8 2.5 22.5t0.5 30t0.5 33.5t2.5 34t5.5 31t10 26t15.5 17t22.5 5.5t31.5 -9.5q15 -7 24 -19t12 -28t3.5 -30t1 -33t1.5 -30q3 -24 3.5 -49t-1 -57.5t-1.5 -48.5q21 101 73 201q83 158 168 113q23 -12 46 -41q0 -6 2.5 -35t3.5 -54t0 -54t-8 -49t-20 -25q-7 -42 -58 -111
q-1 -2 -11.5 -18t-13.5 -18q-4 -4 -26 -16.5t-25 -21.5q18 -18 34.5 -53t24.5 -48q8 -11 33 -39t35 -47q1 -3 26 -44.5t35.5 -69t6.5 -49.5q-16 -89 -98 0q-20 23 -39 50l-40.5 61t-52 76t-45.5 58q-4 -16 -7 -44.5l-5.5 -52.5t-8.5 -48t-21 -39.5t-38 -18.5l-4 -4
q-9 5 -19 2z" />
    <glyph glyph-name="S" unicode="S" horiz-adv-x="617" 
d="M415 179h-1q-1 -3 -3 -8q4 2 4 8zM376 163v1l-1 -1h1zM375 168q-1 0 -1 -1h1h-2v0h2v0v1zM215 81l1 2q21 4 39.5 16.5t28 23.5t27.5 35q1 16 25.5 37.5t23.5 38.5q-29 -15 -62 -38t-64 -56.5t-32 -60.5q7 2 13 2zM242 22q-21 -10 -46 -12.5t-49 6t-36 28.5q-7 13 -8.5 26
t1.5 23.5t10.5 23t14.5 21l18 21t16 19.5q35 46 83 81q10 8 51 31t55 38q27 11 35 28t-22 26q-28 6 -96 -27l-24.5 -11l-33 -14t-39.5 -14t-40.5 -10t-39.5 -3.5t-32 6t-23.5 18.5t-8.5 35q-8 9 -10 24t1.5 30t9.5 31.5t12.5 29t12.5 22.5q6 9 36 34.5t34 42.5l-1 5
q3 9 12 18t21.5 18t17.5 14q37 34 92 74q77 56 120 71q89 -32 91 -69q1 -12 -8 -19t-19 -8.5t-27 -2t-22 -1.5q-14 -2 -28.5 -7t-30.5 -15.5t-25 -17t-27.5 -21.5l-23.5 -19q-12 -9 -32 -29t-25 -24q-4 -4 -23 -26t-28 -27v-1q-4 1 -8 0q-1 -10 -20.5 -42.5t-11.5 -48.5
q15 3 57 18t78.5 25.5t78.5 18t74 -1.5t48 -35q9 -1 18 -9.5t14 -9.5q24 -11 52 -8q66 6 116 -4q8 -6 8 -16l-11 -1v-1h11q0 -8 -3.5 -14.5t-11.5 -9.5t-13 -4.5t-15.5 -3t-12.5 -1.5q-13 -3 -23 -5t-20 -5t-19.5 -7.5t-19 -10t-20.5 -12.5q-14 -36 -31 -50
q-4 -4 -21.5 -13.5t-24.5 -20.5l1 -12l-5 -1q-7 -18 -5 -30l-8 -5q-8 -18 -19 -32h1l9 -9q0 -10 -4.5 -19t-14 -17.5t-16.5 -13.5t-20.5 -12.5t-16.5 -9.5l2 -6q-15 -1 -33 2q-10 -3 -29 -15t-27 -15z" />
    <glyph glyph-name="T" unicode="T" horiz-adv-x="462" 
d="M212 615q-95 -30 -154 12q-10 7 -18 16.5t-12.5 20t-4 20.5t9.5 17.5t25 10.5q7 1 26 -3.5t28 -3.5q11 1 32 7.5t23 6.5q97 24 103 26q-30 45 102 27q6 -1 7 -1q29 1 94 12.5t102 10.5q57 -2 81 -24q23 -22 -17 -51q-13 -10 -29.5 -13t-38.5 -4t-32 -3q-4 -1 -16.5 -4.5
t-22.5 -5.5t-16 0q-6 -4 -13.5 -6.5t-16 -4.5l-14.5 -3.5t-16.5 -3t-14.5 -2.5q-17 -20 -18 -117q-1 -15 0.5 -45.5t0.5 -46.5q-3 -118 -4.5 -133.5t-9.5 -52t-8 -55.5q11 -11 4 -23q1 -4 1 -14q12 -14 -1 -28q5 -10 6 -21q12 -19 12.5 -34.5t-9 -26.5t-23.5 -18t-34 -11
q-28 26 -30 49q-7 8 -9 21.5t-3 28.5t-5 24l2 5q-7 12 -11 25t-5 27.5t-0.5 26.5t1 28.5t0.5 26.5q0 7 -1 25t-1 27t2.5 23t8.5 25q-16 35 -5 116q1 13 1.5 34t0.5 24q0 4 2 15.5t2.5 17t-1.5 15.5q-28 0 -63 -12z" />
    <glyph glyph-name="U" unicode="U" horiz-adv-x="588" 
d="M520 512v3l-2 -4v-1zM514 517l6 -2q0 1 -0.5 2l-0.5 1q-3 1 -5 -1zM146 84q-14 -11 -28 -13t-25 5t-22 19.5t-19 27t-15 31t-11.5 29.5t-6.5 23q-5 22 -8.5 49t-4 39t-2 51t-1.5 44q-1 27 1 60.5t4 55.5t7.5 64t7.5 56q0 6 3.5 30.5t5 37t0.5 31.5t-6 32q16 22 40.5 22.5
t43.5 -16t23 -40.5q2 -29 1.5 -43t-4.5 -45.5t-5 -43.5q7 -7 9 -25t0.5 -44t-1.5 -29q1 -11 -3 -22.5l-8 -24t-5 -22.5q0 -9 3.5 -18t1.5 -15.5t-14 -21.5q0 -9 7 -15t8 -12q1 -10 2 -13.5t-1.5 -14.5t-3.5 -15t-4.5 -14.5l-4.5 -13.5q3 -4 5 -9t3 -11t1.5 -10t0.5 -11.5
v-9.5q9 -5 14 -22q12 8 22.5 22.5t16 26t14 33t10.5 27.5q10 22 32 66.5t32 67.5q6 13 20.5 51t24 60t28.5 50t40 44q-2 14 5 32t23.5 44t17.5 29q14 26 54 81v-19q15 10 20.5 11t14.5 -5t19 -8q81 28 70 -114q-2 -24 -8 -65l-2 -19q8 -9 6.5 -30.5t-6.5 -39l-11 -39.5
t-7 -33q-1 -6 -5 -35.5t-4 -45.5q0 -4 2 -32.5t3 -59t1 -62.5t-4.5 -53.5t-13.5 -22.5q1 -22 -1 -41q9 -2 12.5 -11.5t1.5 -19.5h-16q0 -19 -23 -54t-41 -43q-11 -7 -20.5 -3t-15.5 9.5t-10.5 17t-6.5 20.5t-4 20q-5 31 -5.5 69t0.5 83.5t1 70.5h1q5 37 18 183l-4 7
q1 6 4 30l4.5 36.5t3 32t0.5 35.5t-4 30q-2 -7 -9.5 -14.5t-13.5 -4.5q-4 -6 -13 -15t-14 -17q8 -6 -2 -24t-19 -23q0 -10 -2.5 -23t-5.5 -22.5t-5.5 -21.5t-2.5 -22l-7 -8h-8q-4 -9 -17 -70t-29 -110.5t-31 -47.5q-9 -30 -23.5 -55.5t-40.5 -46.5t-56 -22z" />
    <glyph glyph-name="V" unicode="V" horiz-adv-x="477" 
d="M16 676q-1 4 -2.5 17.5l-2.5 22t-1 21.5t1.5 22t5.5 18t10 14q22 14 48 5.5t40 -28.5q4 -6 7.5 -14.5l6 -15t4.5 -18t3 -16.5t3 -18t2 -16l4 -20t5 -26.5t3.5 -25.5t1 -26t-2.5 -21q10 -13 13.5 -37t5 -54t3.5 -43q4 -16 1.5 -35.5t0.5 -39.5t16 -26q0 -20 12 -59.5
t11 -60.5q16 19 29.5 62t21.5 58l13.5 22l11 17.5t6 16.5t3.5 26q18 -4 26 12t10.5 44t5.5 35q5 14 12.5 26.5t19 29.5l16.5 24q7 12 20 41.5t23 43.5q10 12 26.5 23.5t34 11.5t23.5 -22q1 -7 -5 -22.5t-16 -31t-20.5 -28.5t-16.5 -15q-4 -7 -10.5 -23t-10.5 -24
q-12 -22 -20 -43q-22 -57 -44 -80q8 -8 1.5 -50.5t-13.5 -52.5q3 -10 3 -19.5t-5 -27t-9 -30l-9.5 -28.5t-7.5 -21q17 -12 -3 -59.5t-55 -83t-52 -18.5q-20 -21 -38.5 -10t-30.5 29.5t-16 34.5l-23 76.5t-24 92.5l-9.5 49l-11 59.5t-6.5 49.5q-3 27 -11 55q-4 14 -5 25.5
t-0.5 19t1.5 20.5t1 24q0 2 -8.5 20t-9.5 23q-13 54 -17 98z" />
    <glyph glyph-name="W" unicode="W" horiz-adv-x="708" 
d="M400 185l1 -1l5 1h-6zM704 619q-4 -7 -5 -12t0 -13t1 -12q11 -15 12 -88.5t-9 -141t-26 -67.5q1 -5 0 -16l-3 -1v-1l-5 -1q2 -9 2.5 -20.5t-0.5 -19.5t-2.5 -22t-2.5 -20q-17 -16 -21 -27q10 -11 6.5 -36.5t-11.5 -49.5t-15 -35q-12 -21 -32.5 -44.5t-37.5 -36.5
q-107 -78 -174 27q-49 76 -65 190q-4 24 -11.5 50.5t-18 58.5t-15.5 49q-6 -8 -13 -22t-12 -26t-7 -18l-10 2l8 -7q-2 -2 -23 -69q-30 -95 -63 -95q-11 0 -22 9q-11 -11 -22.5 -12.5t-20 6.5t-16.5 20t-14 27.5l-11 29t-9 26l-5 15.5q-5 19 -8.5 39t-5.5 36t-4 37.5t-3.5 36
t-3 38.5t-2.5 38q-5 51 12 126q1 5 2.5 22l3 33.5t5 31.5t7.5 19q-8 20 1.5 67t27.5 57q16 8 29.5 5.5t23.5 -13.5t16 -24.5t6 -26.5q3 -31 -13.5 -88.5t-18.5 -68.5q-3 -15 -0.5 -46t0.5 -46q8 -12 5.5 -27.5t-9 -28t-6.5 -28t12 -28.5q-4 -17 -4 -30.5t3.5 -36t7.5 -38
l9 -36.5t7 -32q8 15 26.5 58.5l36.5 82t42 77.5t54 58t61 9q15 -4 26 -18.5t17.5 -38t11 -46.5t6 -54.5t2 -51.5t0 -48t-0.5 -35h4q3 -59 48 -143q7 -11 12.5 -17.5t10 -7t9 1.5t9 8.5l8.5 12.5t10 16l10 17l4 1q5 12 24.5 53.5t25.5 64.5q1 5 5.5 43t12.5 66.5t20 29.5
q-1 2 -1 7.5v8t1 7t3 7.5v16v14.5t2 14.5t6 16l-2 2l-4 -1l-8 19l3 2q0 18 14 28q0 12 -4 18l1 5q-3 7 -3.5 16.5t1 18t3 19.5t1.5 16q0 8 -4.5 43t1.5 41q12 40 44 39q27 -1 36 -28q7 -24 -12 -53z" />
    <glyph glyph-name="X" unicode="X" horiz-adv-x="556" 
d="M428 116v-1v1zM357 558h-1h1v0zM212 248v-4q2 3 3 4h-3zM470 126q8 -10 17 -19q35 -2 58 -30.5t14.5 -58t-51.5 -33.5q-25 -2 -58.5 19.5t-46.5 24.5q-17 11 -45 46.5t-33 40.5q-13 14 -36 47t-38 47q-4 -4 -6 -9.5t-2.5 -11t-0.5 -12.5v-11q-3 -10 -17 -31.5t-14 -37.5
l2 -3l6 -9.5t5 -15.5l11 -15l-11 5q-2 -15 -21 -33t-42.5 -28.5t-48 -9t-34.5 20.5q-6 7 -5 22.5t4.5 29.5t11.5 33.5t15.5 36t17.5 36l17.5 33l15.5 27.5l11 19q15 29 18.5 57t-5.5 56.5t-18.5 50t-27.5 54t-26 52.5q-62 138 -107 221q11 33 43.5 60.5t62.5 19.5
q25 -7 41 -30t30 -61.5t18 -47.5q25 -6 38 -42t22.5 -78.5t22.5 -56.5l8.5 23t10 26t11.5 22q4 6 13 17t15 21t8 20q2 5 6 17.5t8 23l10 26t12 27.5l13 25t15 21t16.5 13.5t18 5t18.5 -6.5q7 -5 12 -11.5t6.5 -14.5t2.5 -14.5t-2 -17t-4 -16t-6.5 -17t-7 -15.5t-7.5 -15.5
t-7 -12.5q-3 -6 -19.5 -34.5t-21.5 -44.5q-3 -6 -4.5 -15.5t-3 -14.5t-6 -11t-11.5 -11q8 -8 4.5 -23.5t-10 -27l-15.5 -27t-11 -21.5q-3 -9 -4.5 -18.5t-1.5 -20.5v-18.5t1 -21.5t1 -20l4 7q6 -5 10 -11.5t6 -10.5t5 -13.5t5 -12.5q9 -5 15.5 -11t10 -17l5 -16t3.5 -19
q3 -13 10.5 -38.5t9.5 -33.5l3 -3q1 1 18.5 -7t18.5 -7z" />
    <glyph glyph-name="Y" unicode="Y" horiz-adv-x="593" 
d="M413 431l1 1l-1 1v-2zM325 217q16 41 17 47q-8 -2 -16 -5t-14 -6t-14 -9.5t-12.5 -9.5t-13 -12l-11 -11.5l-12 -12.5l-10.5 -11q-33 -34 -39 -57q-2 -8 -1.5 -28.5t-3.5 -27.5q6 -7 9 -17.5t4 -17t4.5 -13.5t10 -6.5t21.5 4.5q8 3 31 26t40 21q-9 7 -14 19q2 5 8.5 16.5
t10 18.5t7 17.5t3.5 19.5q-27 36 3 51zM173 312q5 4 4 11q-3 0 -8 -1zM638 391q-1 -10 -8.5 -22t-17 -17t-20.5 7q-36 -2 -98 -27.5t-45 -51.5l7 -1q0 -7 2 -14.5t3 -10.5t-2 -9t-13 -14q11 -11 -9.5 -49t-34.5 -42q0 -11 -6 -23t-12.5 -23.5t-7.5 -21.5q0 -1 4.5 -12.5
t4.5 -15.5q0 -12 -13 -34l-2 1q-1 -2 -4.5 -8l-5.5 -9.5t-6.5 -10t-7.5 -10t-7.5 -8t-8.5 -6t-9 -2.5t-9.5 1.5t-9.5 6.5h-1q3 -6 0.5 -12.5t-9.5 -8.5v-8q-15 -3 -21 3q-11 -11 -25 -10l-3 3l-6 -2l4 4q-1 1 -2 1q-31 -6 -75 21.5t-58 55.5q-7 14 -11.5 31t-2.5 37t13 30
q-1 77 63 134q13 12 39.5 31.5t37.5 28.5q12 10 27.5 18l31.5 15.5t27 16.5q22 16 28 33.5t3.5 49t-2.5 42.5q2 27 7.5 60.5l11.5 68t8 61.5q-12 -10 -29 -37.5t-14 -39.5l-9 3q-1 -2 -5 -8.5t-7 -10.5t-7.5 -7.5t-8.5 -3.5q-3 -30 -13 -60t-20 -50t-29 -53q-5 -9 -12 -23.5
t-11.5 -23t-11.5 -18.5t-17 -16.5t-23 -11.5q-64 -23 -99 1q-41 29 -61 153q-3 19 -4 38t-0.5 42.5t1 36t2.5 42t2 38.5q2 19 3.5 31.5t6 27.5t12.5 21t22 5t33 -14q7 -5 12.5 -10.5t9.5 -10.5t7 -13t5 -12t3 -14t1.5 -14t0 -15.5t-1 -14t-1.5 -15.5t-1 -15q-5 -36 -3.5 -83
t16.5 -81q9 14 39 56.5l46 66.5q5 7 21 26.5t24.5 35t8.5 31.5q12 10 36.5 37l44.5 49t47 37.5t51 10.5q21 -4 33.5 -18.5t16.5 -33t4 -44t-3 -46.5t-6 -45t-3 -36q-6 -9 -25 -54q6 -13 4.5 -22t-6 -24t-4.5 -22q9 -5 11 -13t-6 -16q2 -6 1 -11q3 0 16 3.5t26.5 6.5t32 6
t34 4t29 -1t21.5 -8.5t8 -17.5z" />
    <glyph glyph-name="Z" unicode="Z" horiz-adv-x="703" 
d="M699 88l5 -5q-3 -12 -11 -19q8 -12 -5 -26.5t-26 -10.5q-8 -8 -30 -6.5t-38.5 6.5l-39 12t-30.5 8q-25 2 -39.5 3t-38.5 -3.5t-37.5 -8t-37.5 -10.5t-39 -10l-17.5 -4.5t-19 -4.5t-18 -3.5t-20 -2t-17.5 2t-18.5 6t-15.5 10.5q-8 8 -12.5 15t-4.5 14.5t1 13.5t4 16.5
t4 17.5q1 5 1 19t2 24.5t9 14.5q-2 7 8.5 23t25 33t16.5 21q-13 6 -12 13t7.5 11.5l14 10t7.5 9.5q-6 -9 -38.5 22t-35.5 42q9 28 26 33q11 9 23.5 6t32 -9t28.5 -4q30 6 62 54q46 69 97 125q-11 -3 -26.5 -1t-24.5 -1q-9 -2 -28.5 -11.5t-26.5 -12.5q-99 -35 -148 -40
q-29 -4 -60.5 10.5t-54.5 40t-36.5 56t-8.5 62.5t30 55q21 -1 31.5 -10.5t18.5 -27t16 -25.5q8 -9 21 -13t34 -3t30.5 1.5t37 5.5l27.5 5q31 5 85 20.5t70 19.5q9 2 24 6.5t26.5 7.5t27 6t28 4.5t26 1t23.5 -4.5q9 9 18.5 9.5t19 -6t18.5 -16t18 -22.5t15.5 -23.5
t12.5 -21.5t8 -14q0 -3 -1.5 -6.5t-2.5 -7t-1 -5.5q14 -13 -2 -46.5t-41.5 -62.5t-41.5 -39q0 -5 -2 -10t-6 -10.5t-9 -11l-10.5 -11t-10.5 -9.5t-9.5 -8.5t-7.5 -6.5q22 -4 35.5 -14t15 -25.5t-18.5 -34.5q-8 -8 -26 -10t-35 -0.5t-31.5 -2t-18.5 -13.5l22 -21q-16 5 -32 4
q0 -1 -1 -1q-4 -3 -12 -4.5t-12 0.5q0 -3 2 -9q-4 -5 -15 -21.5t-20.5 -26.5t-21.5 -12q-1 -2 -3 -3q0 -11 -20 -21v-13t2 -12q2 5 65.5 9t76.5 3q46 -6 96 -19.5t72 -35.5z" />
    <glyph glyph-name="bracketleft" unicode="[" horiz-adv-x="243" 
d="M82 575h1h-1zM30 51q4 9 4 12q-6 2 -6.5 78t1.5 85l11 91.5t12 116.5q0 11 8 27t8 23q1 5 -1 15.5t-1 16.5q3 37 10 93q2 17 3 46t2.5 49t7 43.5t19 40.5t34.5 28q12 7 33.5 11t44 4t37.5 -11.5t12 -34.5q0 -4 -2.5 -7.5t-5 -6t-7 -5t-7.5 -3.5t-8 -3t-7 -3
q-12 -5 -24 -8.5t-17 -4.5t-10.5 -5.5t-8.5 -12t-7 -22.5q-30 -126 -40 -226q-5 -48 -13 -102q-1 -4 -1.5 -25t-2.5 -38.5t-6 -21.5q-14 -120 -8 -187q1 -7 1.5 -18.5t1 -16t2.5 -12t5.5 -11.5t10 -8t15.5 -7q31 -9 94 -9v-8l1 -1l2 9q16 0 28 -5t16.5 -15.5t-7.5 -27.5
q-12 -18 -40 -21t-48 1q-10 1 -18.5 2t-22.5 3t-25 4.5t-24.5 6.5t-22.5 9t-19 12.5t-13 16t-5 19.5t4 24z" />
    <glyph glyph-name="backslash" unicode="\" horiz-adv-x="448" 
d="M139 579q64 -111 103 -171q9 -14 30 -44t35 -53t24 -47q6 -14 21.5 -40l29.5 -48t26 -49t15 -48t-8 -40t-38 -30q-17 6 -35 23t-29.5 33t-27.5 45t-20.5 39l-16.5 37q-15 32 -45 76l-54.5 78t-45.5 79t-25 85q-21 16 -36.5 45t-15 61.5t23.5 51.5q12 9 23 9.5t18.5 -6
t15 -18t12 -23.5t10.5 -25t10 -20z" />
    <glyph glyph-name="bracketright" unicode="]" horiz-adv-x="264" 
d="M196 298h5v0h-5zM223 -23q-15 1 -45.5 0.5t-61.5 -2t-55.5 9t-26.5 34.5q-3 24 17.5 33t47.5 7.5t55 2.5t38 19q-12 7 -12 34.5t6 57.5t6 61t-12 47q6 17 8 80q1 6 -1.5 26t-1.5 28q2 9 5.5 18.5t5.5 17.5t0 21q-1 18 -7.5 62.5t-8.5 68.5q-1 26 0 44l2.5 43.5t0.5 43.5
q-19 8 -64.5 7.5t-64.5 10.5q-15 8 -25 26.5t-5 34.5t30 15l4 -7q18 -8 52 -11.5t65.5 -5.5t62 -8t49.5 -24.5t20 -49.5q1 -22 -6 -64.5t-8 -61.5q0 -13 1.5 -38t1 -45t-5.5 -40q-3 -15 -5.5 -30t-3.5 -33.5t-1.5 -31t0.5 -34.5t1 -31.5t2.5 -34.5t3 -31t3.5 -34t3 -31
q3 -20 1.5 -67.5t-0.5 -65.5q1 -19 1 -28.5t-1 -21t-5.5 -16.5t-12.5 -9t-21 -3t-32 6z" />
    <glyph glyph-name="asciicircum" unicode="^" horiz-adv-x="356" 
d="M39 530l26 34.5l27 36.5t23 34t22 39.5t15 40.5q35 1 69 -17.5t58.5 -44t50.5 -67t40 -69t31 -65.5q-11 -13 -24 -17t-26.5 0.5t-26.5 14t-26.5 24.5t-25.5 30t-23.5 33l-20.5 32l-17.5 28t-12.5 19q-3 -3 -49 -86q-60 -105 -101 -105q-26 0 -48 37q30 55 39 68z" />
    <glyph glyph-name="underscore" unicode="_" horiz-adv-x="458" 
d="M32 101q170 0 265 8q5 0 28 2.5t36 3t36 1t37.5 -3t30.5 -9.5t25.5 -18t12.5 -28q-3 -15 -9.5 -23t-17.5 -9.5t-19 -1t-23 3.5t-22 4l-20 2t-22 0.5t-19 -0.5t-22 -2t-19.5 -2t-22 -2.5t-19.5 -2.5q-11 -2 -33.5 -5l-34 -4.5t-34.5 -3.5t-34.5 -1.5t-32.5 1.5
q-59 6 -77 31q-5 6 -8 15.5t-3.5 19.5t5 17t16.5 7z" />
    <glyph glyph-name="grave" unicode="`" horiz-adv-x="110" 
d="M58 610q-1 1 -12 18.5t-14.5 25t-9 22t-3 25t10.5 19.5q73 -31 125 -123q-5 -55 -46 -35q-31 15 -51 48z" />
    <glyph glyph-name="a" unicode="a" horiz-adv-x="545" 
d="M277 380q-28 -4 -42 -12.5t-33 -34.5q-40 -52 -56 -123q14 16 34.5 47l27.5 41q6 8 25.5 24t34 31t14.5 28q-2 0 -5 -1zM438 499q22 0 36.5 -10t19.5 -28t7 -38.5t-1.5 -46t-7 -45.5t-8 -43t-6.5 -32q-2 -18 -7.5 -46t-9 -51t-3.5 -46q0 -117 -12 -159q1 1 7.5 -5t8.5 -8
q-7 -15 -2 -33q12 28 26.5 87.5t24.5 86.5q6 15 14.5 46t18.5 53t27 38q6 24 41 51q44 33 56 6q3 -7 3 -19q7 -8 -2 -16q-10 2 -23.5 -17.5t-26.5 -51.5l-20 -50.5t-12 -35.5q-28 -85 -44 -167q-1 -9 -3.5 -26.5t-4.5 -28t-6.5 -25t-11 -23t-18.5 -16t-28 -8.5
q-28 -4 -55 13.5t-30 45.5q-11 10 -14.5 23.5t-2 24.5t-2.5 27q-1 8 -8 24.5t-9 26.5q-6 38 4 113t11 88q1 16 3.5 36.5t6 41t4.5 35.5q1 10 7 43t6 47q-6 -2 -10 -3q7 -1 -12 -20q-7 -7 -10 -7q-5 -9 -15 -17.5l-20 -17.5t-16 -19q-4 -7 -8 -23.5t-11 -26.5t-22 -15
q-22 -26 -47 -92t-48 -92q-29 -30 -59.5 -30t-56 24t-31.5 60q-3 -3 -20 19l-4 5q-2 10 6 33q17 3 20 6q-1 66 42.5 158.5t108 136.5t139.5 -33l26.5 21l30.5 24t30.5 18.5t32.5 8.5z" />
    <glyph glyph-name="b" unicode="b" horiz-adv-x="402" 
d="M153 176q0 -38 -8 -48q8 -25 37.5 -29t60 8.5t48.5 31.5q26 26 34 79q1 5 0 17.5t0 17.5q2 8 10 23t9 22q-4 2 -6.5 5t-3 8t-0.5 8.5t0.5 9t0.5 6.5q0 9 4 23t4.5 21.5t-6.5 28.5q-8 16 -15 22t-14 2t-13.5 -10.5t-16.5 -14.5t-19 -10q2 -6 -17.5 -26t-28.5 -26
q-6 -14 -19 -34t-25 -30q-3 -33 -25 -49q-1 -3 -3 -30q12 -18 12 -26zM173 14q-12 -1 -20 -1q1 -3 2.5 -16t2.5 -19.5t2 -19.5t0 -20.5t-2 -18t-5 -16.5t-9 -12t-13.5 -9t-18.5 -3l-1 9l-1 -9q-33 1 -55.5 15t-32 36t-12 49.5t3.5 55.5q5 34 2 62.5t-1.5 64t14.5 59.5
q-8 12 -7 35t6 41.5l11 42.5t7 37q-6 3 -3.5 23t7.5 38.5l11 41t7 28.5q3 16 6.5 49t8 59t9.5 48q10 39 49 161q3 9 5 22t3.5 21.5t5 19t9 14.5t16 7.5t25.5 -2.5q25 -6 36.5 -20t10.5 -34.5t-5.5 -38.5t-12 -42.5t-10.5 -36.5q-5 -30 -23 -82t-24 -73q-2 -9 -4 -51t-16 -60
l-2.5 -20.5t-2.5 -23.5t-1 -21q4 2 9 6l8.5 7t8.5 6.5l9 6.5q-4 2 25.5 27.5l36.5 31.5q54 34 102 25q20 -3 34.5 -10.5t23 -19t13 -22.5t6 -28.5t1 -29t-1.5 -31.5t-1 -30q-2 -48 -11 -92.5t-28.5 -88t-47.5 -75.5t-70.5 -52.5t-94.5 -20.5z" />
    <glyph glyph-name="c" unicode="c" horiz-adv-x="386" 
d="M1 157q-1 101 36 195.5t110 142.5q6 19 22 30.5t35 13.5t40 -2.5t38.5 -14.5t29.5 -25.5t13 -32.5q1 -13 -1.5 -30.5t-9 -35t-14.5 -25.5q-17 -16 -29.5 -14.5t-20 14t-10.5 29.5t0 32q-23 -4 -43.5 -23t-36 -46.5t-25.5 -52t-17 -47.5q-5 -15 -7.5 -49t2.5 -71t21 -45
q32 16 60.5 38t67 58.5t52.5 48.5l3 3q88 77 116 45q6 -7 6 -15.5t-4.5 -16.5t-12 -16.5t-15 -15.5l-15 -14.5t-9.5 -13.5q-30 -10 -61 -42t-63.5 -70t-54.5 -55q-37 -26 -74.5 -28t-65 17t-45.5 54.5t-18 79.5z" />
    <glyph glyph-name="d" unicode="d" horiz-adv-x="530" 
d="M398 487q1 5 1 10h-1v-10zM335 403v-0.5v-0.5v1zM124 132q17 36 56 103t56 100q13 13 18 35q-68 -38 -103.5 -109t-38.5 -154zM45 245q6 15 18 30.5l25.5 31.5t20.5 29q3 5 5.5 14t4 16.5t4.5 15.5t8 13q4 5 23.5 14.5t22.5 20.5q4 12 17.5 15.5t35.5 1.5t23 -2
q16 1 26 8t13.5 15.5t11.5 17.5t21 13l3.5 5.5l7 11.5t4.5 8q6 28 19.5 56t32 60t27.5 53q4 7 12 28.5t14 35t17.5 30.5t23.5 24.5t29.5 8t38.5 -10.5q24 -13 25.5 -33t-9.5 -43q-5 -13 -8.5 -30.5l-7 -34.5t-7.5 -29q-4 -11 -18 -35.5t-16 -41.5q-4 -18 -1.5 -33.5
t-3.5 -30.5t-23 -24q8 -6 7 -14.5t-8 -14.5q7 -9 7 -16.5t-4 -12.5t-13 -11q-1 -7 -1.5 -26.5t-1.5 -32.5t-6.5 -28t-15.5 -23q9 -4 0 -30t-16 -29q7 -9 8 -22.5t-1.5 -24l-6 -25.5t-4.5 -23q-1 -4 -2 -35t-6 -46q8 -8 8.5 -17.5t-8.5 -17.5q6 -9 2 -16.5t-14 -10.5
q-12 -16 -4 -57q-3 -6 -4 -13q5 -8 6 -23.5t-1.5 -33.5t-7.5 -35t-14 -29t-19 -15q-20 -6 -31.5 5.5t-13.5 28.5t-4 40.5t-4 31.5q2 16 1 33t-3 30.5t0.5 28.5t11.5 27q-8 6 -8 13t4.5 13l10 14t6.5 13h-15l19 20q-11 6 -12 19t6 27t14 24l13 18q-4 1 -3 20.5t3.5 40t6 42.5
t3.5 27q1 9 2.5 16.5l2.5 12.5t4.5 12t5.5 10t7.5 12.5l8.5 14.5h-6q-6 20 -5.5 31.5t4.5 35t4 33.5l-9 -2q-2 -6 -4 -27t-7 -34.5t-17 -14.5q0 -10 -1 -18.5t-4 -24.5t-10 -23.5t-17 -2.5q0 -7 -3 -12.5t-6 -8t-9.5 -6.5t-9.5 -7q0 -2 -0.5 -8t-1 -10t-1.5 -9.5t-2 -10
t-2.5 -9.5t-4 -8.5t-6 -6.5t-8.5 -5q-28 -112 -75 -192q-38 -67 -100 -56q-37 6 -61 34t-31 68q-8 43 37 153z" />
    <glyph glyph-name="e" unicode="e" horiz-adv-x="276" 
d="M95 328q14 2 37.5 12.5t47 27t31 35t-11.5 38.5q-18 18 -44.5 -4.5t-45 -56t-20.5 -52.5h6zM-12 368q17 17 49 62t54 65q33 28 56 38t57 0q41 -11 71 -35.5t34 -61.5q4 -39 -25.5 -81t-68.5 -75q-26 -20 -53 -30q-10 -3 -39.5 -2t-35.5 -3q-4 -2 -7.5 -5.5t-5.5 -7
t-3.5 -9t-2 -9t-0.5 -10.5t0.5 -10.5l1.5 -11t2 -11t2.5 -11.5t2.5 -10q3 -18 6 -27t9 -14.5t15.5 -3t25.5 11.5q18 11 49 39t42 37q4 3 21 18q126 112 152 92q7 -5 8 -18q1 -12 -15 -26t-37.5 -28.5t-26.5 -20.5q-30 -37 -51 -59q-5 -5 -21 -25.5l-33 -41t-36.5 -40.5
t-37 -29t-27.5 -1q-8 -8 -15 -13q-81 7 -116 55q-6 9 -14.5 29.5t-14 43t-1.5 29.5q-12 20 3 36q-12 36 -2 85.5t29 83.5z" />
    <glyph glyph-name="f" unicode="f" horiz-adv-x="452" 
d="M343 588q2 16 13 39.5t22 37.5v9.5v10.5t0.5 9.5t1 10.5t1 10t1.5 10.5l2.5 9t3.5 9.5t4.5 8.5t6.5 8.5q-7 2 -10.5 5.5t-3 7.5t3 8.5t6 8t7.5 6.5q-4 3 -7 6q-22 -16 -38.5 -52.5t-30.5 -84.5t-20 -63q-3 -5 -23 -41.5t-22 -56.5q-1 -6 1.5 -18t1.5 -19q-2 -8 -7 -18.5
l-10 -21t-7 -19.5q3 4 8 7q3 12 20 35.5t21 35.5q1 2 3.5 10.5t4.5 14t5.5 12.5t8.5 10.5t12 2.5q4 4 10 7q1 8 5 22.5t5 21.5zM149 -198q0 15 7 46.5t6.5 56.5t-14.5 43q-5 -9 -4.5 -73.5t0.5 -71.5q-3 -85 -3 -186q9 30 11 57.5t-0.5 70t-2.5 57.5zM248 672q7 6 13.5 19
t10 23.5t8.5 28.5t6 22q14 40 28 65q11 11 25 46t35 44q42 17 69 -10t32 -70q8 -63 -11 -134.5t-58 -119.5q-1 -20 -5 -27.5t-19 -15.5q0 -20 -4.5 -39.5t-9 -29.5t-17 -32.5t-17.5 -32.5q-13 -27 -28 -52l-39.5 -63l-31.5 -49q5 3 33 22t39 25.5t34 18.5t42.5 17t39.5 6
q35 2 48.5 -9t0.5 -26.5t-45 -25.5q-22 -6 -45 -18t-35 -20t-40 -29l-36 -27q-15 -10 -43.5 -24t-42.5 -28t-21 -43q19 -40 33 -79t23 -84.5t5.5 -90t-22.5 -79.5q10 -15 12 -32.5t-1.5 -31l-8.5 -33.5t-5 -34v-44t-0.5 -45.5t-6.5 -44.5t-16 -39q19 -5 -4 -38
q-12 -18 -20 -20q-13 -4 -34 4t-31 18q-15 16 -27 68t5 68q-4 10 7 34q-6 4 -8 10.5t3 12.5q-4 10 -3 18t4.5 21t3.5 19q0 8 -3 28.5t-2 31.5q-6 -1 -14 5q-1 5 1 12t3 10l8 1l-5 5l4 2q-2 8 4 15q1 14 4.5 49t3.5 54q-3 4 -3 11.5t2 14.5l4.5 16t3.5 12h-1l-2 5
q-11 10 -5 23l-4 6h6q1 18 1 37q-3 1 -10 5q1 12 0 23t1.5 23t9.5 20q-7 9 -19 18.5l-18 14.5t-9.5 12t3.5 15.5t25 20.5q25 17 40 31.5t25 37t11 52.5q-10 7 -11 16.5t2 14.5t12 18q-1 2 -1 5l-6 3q26 19 35 79q-8 5 -10 16t1.5 26t10 31t15.5 34l16.5 32l14.5 27t10 18
l3 -2v1l-3 2q4 7 7.5 38t13.5 40z" />
    <glyph glyph-name="g" unicode="g" horiz-adv-x="490" 
d="M278 -426h-8q0 15 10 50.5t11 47.5q1 4 2.5 18.5t2.5 19.5t3.5 15.5t6.5 18t10 15.5q-7 5 -9 16t-0.5 25t4 27.5l5 26.5t2.5 19q-12 -10 -21 -24.5t-19 -35t-15 -29.5q-49 -81 -64 -120l-12.5 -29l-13.5 -31.5t-10 -29t-6 -32.5q-10 -98 20 -115q4 1 15 0.5t15 -0.5
q2 4 5 14t5 15.5t6 15.5l6.5 16.5t6.5 15.5t7.5 15.5t8 14t9 13.5t9.5 10q-1 7 0 15l8 1v1zM318 300q-52 -22 -93 -64t-84 -104q82 55 102 85v15l6 -6q5 7 22.5 20.5t32 26.5t15.5 22q-1 2 -1 5zM313 379q10 -2 25 -14.5t24 -14.5q-13 16 42 21q31 3 37 1q59 -13 65 -54
q2 -14 -2.5 -30.5t-14.5 -37.5t-12 -29q-25 -72 -25 -112q15 2 44.5 20t49.5 18q35 -1 49.5 -26.5t-14.5 -46.5q-14 -10 -51.5 -20t-55.5 -26q-49 -45 -67 -80q8 -15 2 -30.5t-17 -26.5q19 -14 -8 -34q5 -5 5 -10.5t-3 -12.5t-3 -11q10 -10 8.5 -20.5t-7.5 -16t-13.5 -14.5
t-9.5 -16t2 -29.5t2 -31.5q-2 -14 -9.5 -37.5t-9.5 -31.5q3 -1 7 -6q0 -8 -3 -17.5t-5.5 -14t-10 -16t-9.5 -13.5q5 -8 5.5 -15.5t-5.5 -21t-11.5 -23t-12.5 -20.5t-8 -14q26 -11 -4.5 -59t-55.5 -57q-44 -15 -94.5 15t-62.5 75q-11 40 -9.5 89t13.5 88q5 16 18.5 43
t15.5 32t5 16l5.5 20t7.5 18t11 13l2 1q3 13 18.5 35t18.5 26q1 2 7 18.5t13.5 24.5t18.5 8q12 34 41.5 70t60.5 51q17 39 22.5 60t5.5 58q0 15 1 35t2.5 40t0.5 36q-5 -5 -9.5 -7t-11.5 -3.5t-11 -2.5q-3 -5 -10 -21l1 -2l-2 -1q-1 -6 -12 -15h-1q-61 -45 -79 -66
q-8 -11 -16 -25.5l-15.5 -29t-15.5 -24.5q-29 -36 -70.5 -38.5t-71 27t-27.5 76.5q1 26 10.5 52t28 53t30.5 42.5l35 43.5l22 24.5l20.5 22t21.5 20.5t22.5 16t25.5 12.5t26.5 6.5t31.5 2t35 -5z" />
    <glyph glyph-name="h" unicode="h" horiz-adv-x="491" 
d="M271 613l-1 1v-1h1zM417 -22q33 34 49 72q7 18 17.5 39l22 42.5t18.5 38.5q62 145 100 143q12 -2 21 -16t-8 -44t-44 -65t-32 -44q-20 -38 -40 -80q-3 -8 -13.5 -48t-21.5 -51q6 -25 -16 -49t-46 -20.5t-42.5 24.5t-27 44t-13.5 48q-9 47 -10.5 144.5t-2.5 108.5
q-15 -9 -28.5 -19t-24.5 -26.5t-9 -31.5l-8 6q-32 -42 -73 -139q-3 -7 -6.5 -16l-5.5 -14t-5.5 -12t-6 -9t-8 -6t-11.5 -3t-16 1q-36 6 -50 26t-10 49t13 57.5l19.5 60.5t10.5 49q1 18 11.5 51t12.5 51q2 24 14.5 62t15.5 54l1 29v6q-6 6 -3 20.5t9 27.5l13 27.5t8 19.5
q2 7 3 20t3.5 23.5t9.5 19.5h1q1 4 5.5 34t11 53.5t14.5 28.5q24 13 47.5 -11.5t25.5 -49.5q1 -18 -5 -38.5t-16.5 -45t-14.5 -36.5t-8 -36t-9.5 -43.5t-16.5 -32.5q-1 -6 -2.5 -20t-1.5 -22h-4q-6 -17 -11.5 -48.5t-8.5 -43.5t-10.5 -30.5t-12 -34t-5.5 -32.5q4 4 16.5 22
t20.5 25q5 5 17 11t17 9q7 24 35.5 39.5t55.5 15.5q8 6 18.5 4t21.5 -9t19.5 -15t12.5 -15q11 -18 11.5 -50t-3.5 -52q-2 -18 -9 -58.5t-11 -69.5t-3 -63.5t12 -56.5z" />
    <glyph glyph-name="i" unicode="i" horiz-adv-x="307" 
d="M118 539q-24 0 -35.5 24.5t-2 49.5t35.5 27q43 2 52 -34q8 -32 -16 -54q-14 -13 -34 -13zM73 470q36 0 59.5 -18.5t33 -46t11.5 -64t-2 -68t-12 -62.5q11 -12 6 -58.5t8 -64.5l16 18.5l17 19.5t14 18t14 21q7 11 12.5 28.5l10.5 33.5t12 27q7 9 18.5 16.5t25 7
t21.5 -12.5q4 -6 4.5 -12t-1.5 -12.5t-5 -11.5l-7.5 -12t-6.5 -11q-7 -14 -20.5 -44l-24 -51.5t-25.5 -46.5t-34 -42.5t-40 -26.5q-34 -14 -67.5 1.5t-56.5 47.5t-37.5 69.5t-15.5 66.5q-1 27 2 69t9.5 94.5t22.5 89.5t38 37z" />
    <glyph glyph-name="j" unicode="j" horiz-adv-x="292" 
d="M109 570q-1 34 18.5 50t42 4.5t26.5 -44.5q6 -41 -26 -59q-29 -16 -48 6q-13 15 -13 43zM97 -324q0 -1 3 -4q4 7 1 14q-4 -7 -4 -10zM60 -215h-1h1zM-87 -375q24 -9 40 0.5t31.5 31.5t24.5 29q2 8 15 18.5t15 20.5q2 6 -2 18.5t-4 14.5l-6 6q0 11 8 25.5t9 17.5
q14 37 23 90v6q3 14 4.5 24l5 34t5 38t4 35.5t2 26.5t-1.5 11q-1 1 -48.5 -45l-52.5 -51q-8 -9 -17.5 -22t-15.5 -22.5l-16 -26t-14 -22.5q-20 -32 -35 -80.5t-11 -101.5t37 -76zM91 167q0 31 -7.5 88.5t-8.5 85.5q-1 57 19 74t72 6q50 -52 61 -87l2 -1v-7l-6 -1h6
q-6 -57 5 -108q56 19 132 7q15 -8 17.5 -16t-4.5 -14t-16 -10t-18 -7q-10 -2 -36 -4t-43.5 -8.5t-28.5 -22.5q-15 -23 -17.5 -57t2 -64t0 -62.5t-22.5 -53.5q-4 -46 -10 -53q-1 -10 -11 -47l-6 -6q-1 -12 -13 -18q-3 -43 -21 -86.5t-48 -61.5q-1 -11 -11.5 -23.5
t-21.5 -13.5l-4 -21l3 -4q-4 -25 -38 -32.5t-48 13.5q-57 -5 -91 16t-55 76q-17 44 -17.5 109t17.5 109q26 60 66 115t89 92l27.5 17.5l38.5 24.5t31.5 27t14.5 29z" />
    <glyph glyph-name="k" unicode="k" horiz-adv-x="346" 
d="M180 437q-51 -53 -68 -105q6 0 11 -5q31 21 58.5 63.5t32.5 78.5q-13 -10 -34 -32zM55 152v1v1v-1v-1zM54 209h-1h1zM327 99q45 -12 64 -46q-12 -28 -40 -37t-55 -5t-56 14q-22 8 -43 28t-35.5 40t-35 40.5t-41.5 30.5q-3 -9 -5 -17q10 -14 14.5 -39t-2.5 -42
q23 -22 31 -54t-4 -61q-21 -48 -57 -30q-24 12 -28 35q-2 11 5 16q-6 9 -14 18q-6 5 -10.5 17t-6.5 29.5t-3 30t-1 30.5t-1 20q-1 34 2 95t3 82q0 20 -1.5 86t0 111.5t8.5 88.5l-4 6l-3 6l-2 4q0 6 4.5 10t9 7t4.5 7q0 6 -4.5 20t-1.5 26q1 6 8 17t7 20q0 6 -4 21t-4 23
q-1 69 4 78q10 19 34 22.5t47 -7.5t30 -29q6 -12 5 -32.5t-4.5 -36l-8 -36t-4.5 -33.5q-1 -22 -8.5 -56.5t-8.5 -49.5q9 -7 7.5 -28t-6.5 -39l-11 -40.5t-6 -32.5q16 21 25 31.5t27.5 29.5t36.5 28.5t36 10.5q37 2 51 -22.5t4 -60.5q-28 -98 -114 -166v-3q7 -24 37.5 -63.5
t68 -73t60.5 -39.5z" />
    <glyph glyph-name="l" unicode="l" horiz-adv-x="228" 
d="M88 -3q-12 27 -10 65q1 17 -4 73q-3 27 3 76.5t21 56.5q-6 13 -6 22.5t3.5 26.5t2.5 24q0 12 -6.5 41t-5.5 48q8 81 26 137q-4 -5 -9 22q-3 17 -3 19q0 13 2.5 36.5t3.5 31.5q0 11 -1 30t-0.5 32t3.5 27.5t13 24t27 12.5q26 6 42 -1t21 -22.5t5.5 -36.5t-4.5 -44.5
t-8.5 -46.5t-7 -41.5t0.5 -29.5q8 -3 11 -13q-11 -19 -14 -39q10 -12 3 -25q4 -5 5 -10t-0.5 -10.5t-3 -10l-3.5 -10t-3 -9.5q-1 -10 -1.5 -36t-0.5 -28q12 -13 11 -22.5t-14 -21.5q3 -3 5.5 -7t4 -7t2 -8t0.5 -7.5t-1 -8t-1.5 -8t-2.5 -9t-2 -8.5q4 -6 4.5 -18t-1 -19
t-5.5 -23t-4 -17q8 -4 11 -13.5t1.5 -22t-4 -23.5t-6.5 -23t-5 -16q-3 -14 5 -50.5t2 -51.5q-19 -41 -102 -8z" />
    <glyph glyph-name="m" unicode="m" horiz-adv-x="703" 
d="M632 129v-1v1zM81 25q-28 20 -36.5 58.5t-3.5 71t15.5 79.5t12.5 64q1 10 1.5 30t1.5 35.5t5 33t12 28.5q9 13 27 15t35 -4.5t30 -20.5t13 -29q1 -1 -7.5 -42.5t-19 -86.5t-14.5 -52l14 -32q52 74 106 122q29 3 45.5 -2t23 -18t8 -33t-0.5 -46q55 76 80 127
q15 24 51 64.5t41 46.5q91 114 143 47q12 -16 13.5 -43.5t-2 -51t-11 -57t-8.5 -44.5q-1 -7 -1.5 -38.5t-5.5 -53.5t-19 -29q1 -7 1 -15h6q1 -7 7 -12l-2 -3v-4l-5 -2q-2 -10 -13 -12q-1 -9 -5.5 -27.5t-7.5 -33t-1.5 -30.5t10.5 -25q23 26 46 80t30 67q9 16 32 26.5t42 3.5
t16 -34l-8 -3q-64 -91 -80 -139q12 -25 -19.5 -88.5t-56.5 -77.5q-20 -10 -36.5 -10.5t-31 9.5t-25 23.5t-18.5 32.5q2 8 9 13q-2 9 -11.5 24.5t-11.5 26.5q-1 10 0.5 22.5t5 27.5t4.5 22q0 6 1 21l2 29t3 29.5t6.5 27t11.5 15.5q-5 9 -7 18t-1 18t3.5 18t6 18t7.5 17.5
t7.5 18t5.5 17.5q2 26 2.5 32t-3.5 33.5t-4 32.5q-3 -7 -10.5 -14.5t-16 -15t-12.5 -14.5q-4 -8 -13.5 -34.5t-22.5 -38.5q1 -13 -10.5 -36t-27 -48t-19.5 -35l-10.5 -33t-15.5 -38q-16 -28 -43 -32t-53 17q-8 7 -14.5 14.5t-10.5 18l-7 18.5t-4.5 21.5t-2.5 19.5t-2 22
t-1 19q-13 -18 -32 -56t-31 -55q-18 -27 -52 -47.5t-56 1.5z" />
    <glyph glyph-name="n" unicode="n" horiz-adv-x="433" 
d="M441 139q4 4 19 31.5t31.5 39t35.5 -1.5q12 -11 12.5 -24.5t-9.5 -30t-21 -28.5t-21 -20q-4 -20 -11.5 -44.5l-17 -54.5t-13.5 -44q-29 -97 -66 -129q-17 9 -32 -1q-24 -1 -41.5 10.5t-26.5 30.5t-13.5 39t-5.5 43q0 8 -3 37t-2 43q1 11 10.5 29t11.5 27q-5 7 -5 12
q-7 5 -8 12.5t0.5 12.5t6 14.5t5.5 12.5q-5 7 -6 12t1 8.5l5 8.5t3 11q1 9 -0.5 41t2.5 41q-21 -19 -41 -52t-32.5 -62t-34 -59.5t-46.5 -47.5q-28 -19 -49 -21t-32.5 9.5t-19.5 30t-9.5 42l-3 45.5t0.5 40v37v46t4 47.5t10.5 42t20.5 30.5t34 13q32 2 46 -27t10 -73
t-11 -78.5t-15 -59.5q18 15 37.5 41.5l36.5 51t36.5 48.5t44.5 40t53 20q35 5 53.5 -20t20 -61.5t-5.5 -73t-21 -57.5q16 -25 -2 -36q3 -7 7 -10q-23 -42 -13 -138q6 9 16.5 40t23 53.5t28.5 25.5q-1 21 12 35z" />
    <glyph glyph-name="o" unicode="o" horiz-adv-x="395" 
d="M277 259q-1 6 -1 11q-11 -3 -40 -9t-50.5 -14t-28.5 -20q-9 -15 -10.5 -62t7.5 -60q6 -9 12.5 -13t12.5 -2.5t10.5 5t10.5 11.5t9.5 14t8.5 15.5t8 13.5q3 5 14 22t13.5 22l9 18t9.5 24t5 24zM269 345q0 38 -43 80t-81 42q-18 16 -33.5 -17.5t-15.5 -52.5q3 3 7 5.5
t8.5 3t8 1t9.5 -0.5t8.5 -1.5t9.5 -3t8.5 -3.5t9 -4t8.5 -3q32 -14 37.5 -28t-12.5 -42q13 -1 42 6.5t29 17.5zM29 263q3 23 2.5 51t-6 56t-5.5 55.5t5.5 49.5t26.5 37t58 18q78 8 151 -35q40 -24 62 -58q0 -1 6.5 -17.5l12.5 -32t7 -15.5q2 12 65.5 29.5t87.5 19.5l2 2
q36 -8 35.5 -29.5t-30.5 -33.5q-11 -4 -53.5 -12.5t-69 -23t-30.5 -42.5q-1 0 -8.5 -28t-15.5 -62t-9 -37q-16 -58 -99 -141l-7 6l-2 -1l-1 -9q-8 -3 -17 -8.5t-20 -13t-16 -10.5q-186 51 -132 285z" />
    <glyph glyph-name="p" unicode="p" horiz-adv-x="394" 
d="M184 326q-6 -11 -18 -29.5l-20.5 -32t-14.5 -32t-4 -35.5q1 -6 2 -15q1 -12 3.5 -13.5t18.5 1.5q6 1 9 1q23 5 57 33q52 44 79.5 104.5t26.5 128.5q-20 0 -60.5 -30.5t-53.5 -35.5q0 -43 -25 -45zM16 409l-16 16q18 -3 25.5 13.5t10.5 42.5t9 35q-3 20 -1.5 41.5t9 40.5
t23.5 22.5t42 -12.5q24 -16 28 -47.5t-4.5 -60.5l-19 -66t-10.5 -56q5 -6 5 -12q25 34 44.5 56.5t46 45t52.5 31.5t59.5 9t70.5 -14q18 -16 26 -33.5t7 -38.5t-5 -37t-13 -41q-9 -27 -23.5 -53t-32.5 -50.5t-35.5 -44.5t-41.5 -44q5 -17 -16.5 -29.5t-52 -18t-57.5 -8
t-38 -0.5q-11 -20 -15 -50.5t-0.5 -62.5t9 -60t13.5 -52q1 -3 6 -16.5t6 -18t0.5 -14t-7 -15.5t-18.5 -11q-23 -9 -38.5 -4t-25 22.5t-13.5 36.5t-4 38q-11 12 -1 24q0 16 -3 36l-6 40t-3 37q1 37 0 57q-1 18 4.5 50t5.5 47q0 2 -1.5 7.5l-3 11.5t-3 13t-1.5 12q1 42 18 63
q-5 15 -4.5 21.5t3 20.5t2.5 23q0 12 -12 57z" />
    <glyph glyph-name="q" unicode="q" horiz-adv-x="418" 
d="M168 148q0 1 -1.5 2t-2.5 0zM147 -62zM147 -62q13 80 41 146q4 11 15.5 34t17 40t6.5 36q-1 -4 -8 -9t-12.5 -9.5t-5.5 -8.5q0 -5 -1 -10t-2.5 -9t-5 -9.5t-5 -8.5t-6.5 -9t-6.5 -7.5t-7 -7.5t-5.5 -7q-11 -12 -27 -36t-24 -34q-35 -39 -80 -26.5t-66 58.5
q-15 32 -0.5 81.5t39.5 93.5q21 38 52 75.5t62 57.5q19 13 36.5 13.5t39.5 -5.5q3 -1 37.5 -16.5t41.5 -13.5t20 20t19 22q33 19 65 -8q14 -11 14.5 -25.5t-6 -25.5t-18 -28t-15.5 -27l-10 -21l-11 -23.5t-8 -21.5t-6 -24q-1 -7 -1 -14.5t-0.5 -14.5t-5.5 -11t-15 -2
q-4 -6 -19 -39.5l-28 -64.5l-13 -31q54 24 146 75q9 4 22.5 13l26 17t26.5 16t27.5 13t25.5 5q46 0 15 -28q-15 -15 -35 -24q-62 -27 -127 -69q-80 -53 -102 -72q-16 -15 -20 -31t-1.5 -41.5t0.5 -38.5q-1 -17 -13 -48t-14 -46q-1 -8 3 -23t4 -22q1 -14 -7 -39t-9 -37v-17.5
t-0.5 -18.5t-2.5 -16t-5.5 -14t-12 -9.5t-20.5 -5.5q-7 -1 -14 0.5t-11.5 3.5t-9 7.5l-7 8.5t-6 11.5t-4.5 11.5t-4 13t-4 12q-5 10 -4 27.5t3.5 28.5l6.5 29t6 31q2 16 5 36t6.5 35.5t7 36t6.5 35.5zM130 255l-18.5 -22.5t-32 -32.5t-19.5 0q-3 -7 -11 -24t-10 -23
q-3 -7 -3 -12t1.5 -7.5t3.5 -8.5t3 -13q1 -5 2 -13t1.5 -9.5t2 -4.5t3 -2.5t5.5 3t8 6.5t13 12q38 36 100 112.5t70 85.5q-44 29 -114 -41q-3 -4 -5 -6z" />
    <glyph glyph-name="r" unicode="r" horiz-adv-x="408" 
d="M389 387q-7 -5 -16 -16.5t-14 -18.5t-15 -5t-22 19q-8 10 -11.5 24.5t-5 36.5t-2.5 28q-44 -38 -74.5 -92t-44.5 -99.5t-33 -113.5t-34 -107q-5 -13 -10.5 -24.5t-15 -25t-19.5 -21t-22.5 -6.5t-24.5 14q-11 11 -13.5 26t-1 37.5t1.5 28.5q-1 9 -2.5 28t-2 29t2.5 25
t10 28q-8 14 2 47q-4 2 -8 10l6 13l5 1q3 4 6 10.5t5.5 14t4.5 11.5q-5 17 16.5 82.5t52 118t46.5 37.5q35 7 52 -5t25 -47q6 7 19 24.5t21.5 27.5t23 23t26.5 18t29.5 5t35.5 -10q31 -16 40.5 -51t-2 -70.5t-37.5 -54.5z" />
    <glyph glyph-name="s" unicode="s" horiz-adv-x="424" 
d="M290 10q3 3 8 12.5t11 16t13 6.5q-1 4 -2 6q-12 -4 -31 -23l-22 -22q-8 -6 -29.5 -21t-33.5 -25q-2 -2 -8.5 -7l-9 -7t-7 -6t-7.5 -7t-7 -8l-7 -9q-11 -16 -14 -25t-3 -24.5t-2 -25.5q1 3 9.5 3.5t16.5 0t11 0.5q6 3 32 28q10 10 15.5 19.5t11 24t11.5 24.5
q4 9 12.5 18.5t16 19t11.5 19.5l-3 6l7 6l3 -4zM627 215q0 -13 -4.5 -21t-14.5 -11.5t-17.5 -5t-21 -2t-18.5 -1.5q-34 -4 -53 -16q-2 -1 -14 -14t-21 -12q-4 -4 -19.5 -11t-20.5 -16q11 -10 4 -21t-20 -11q5 -19 -7 -38l5 -9l-9 3q-11 -13 -28 -18q4 -31 -37 -57
q0 -11 -1.5 -19t-5 -14.5t-7 -10.5l-10.5 -11.5l-12 -12.5q-3 -5 -11 -20t-16.5 -25t-18.5 -10q-19 -30 -78.5 -50.5t-88.5 -2.5q-23 15 -30.5 40t0.5 54t18.5 52t23.5 44q19 29 50.5 58.5t53.5 46l62 44.5q9 6 27 13t33 15t24 20q8 11 12 52t-8 46h-2.5h-7h-9t-9 1t-6.5 2
q-54 -22 -107 -59q-9 3 -14 6q-33 -23 -55.5 -22t-52.5 22q-1 0 -4 2q-79 52 -43 77q-4 34 9.5 67.5t41.5 64t55 54t63 51.5t53 44q5 -1 13.5 -1.5t16 -1.5l15.5 -2t15 -3.5t12 -6.5q12 -8 18 -15t5.5 -13.5t-1.5 -11t-8.5 -11t-11.5 -9l-15 -9t-14 -8.5q-69 -42 -142 -165
q8 2 32 10t40 12.5t42.5 10.5t45 8t41 0.5t37.5 -8.5t27 -22t17 -37q6 5 11 5t8 -4t5 -8.5t3 -12l1.5 -11.5t0.5 -9q9 -5 14 -10q3 -3 15 -4h8t12.5 2t16 5l17 6.5t12.5 4.5l6 -1.5l8 -2t7.5 -2t8 -2.5l7.5 -3t7 -4t5.5 -4.5t5 -5.5t2.5 -6.5t1 -7.5z" />
    <glyph glyph-name="t" unicode="t" horiz-adv-x="381" 
d="M146 146q4 5 4 6l-6 6v-14q1 2 2 2zM143 201q3 9 -2 18q-4 -3 -8 -5h2q8 -6 8 -13zM114 208h-1v-1h1v1zM108 205q1 0 1 -0.5t1 -1.5q0 1 2 3q-3 -1 -4 -1zM362 149h-3q9 -9 7 -20l-13 -8l-4 3q-1 -3 -7 -8t-8 -7v1q-1 0 -2 -2q0 -10 2.5 -38t1.5 -47.5t-7 -37.5
q-2 -6 -9.5 -17t-8.5 -13q-2 -4 -3 -12t-2 -12.5t-6 -8t-15 2.5h-8q1 -14 -23 -36t-37 -24q-19 -32 -69 -15q-36 13 -45 34q-3 11 3 18q-3 10 -15 37.5t-12 47.5q-1 16 8 41t9 39q-3 2 -4 5q-12 1 -13.5 22t5.5 42t16 22v6q-15 5 -15 37l20 4q-9 1 -23 10q3 5 12.5 10
t12.5 8q-6 4 -6.5 11t2 15.5t1.5 13.5q-6 5 -6.5 17t2 27.5t2.5 20.5q-14 0 0 54q8 29 14 34q-3 6 -4 21q-2 -3 -6 -6q-14 -1 -52.5 -15t-66.5 -8q-41 10 -48.5 32.5t33.5 37.5q34 11 117 54q4 3 11 6t9 4t6 4t5 5t3 6.5t3 10t2 13.5q7 39 0 78q22 46 56.5 48t53 -32
t1.5 -77q2 -4 3 -9q14 6 40.5 13t38.5 12q5 3 14 9.5l14 10t14.5 5t16.5 -5.5q17 28 47 3q27 -23 27 -53q-1 -33 -49 -33q-5 0 -10 -1.5l-8.5 -2.5t-9 -0.5t-11.5 3.5q-16 -9 -67.5 -27.5t-74.5 -41.5q1 -5 0 -13t-4.5 -15.5t-8.5 -9.5q-2 -16 -12 -89q-1 -11 -1 -36t-2 -36
h-8q5 -17 -5 -33h17q-31 -97 -31 -192q1 1 4 -4q14 -22 11 -33q0 -3 -5.5 -9.5t-5.5 -10.5q9 -9 8.5 -21.5t3.5 -20.5q10 0 20 14t20.5 36t12.5 25q12 19 29 41l35 45t30 40q-3 10 7 17.5t21 7.5q9 -9 9.5 -21.5t-7.5 -22.5z" />
    <glyph glyph-name="u" unicode="u" horiz-adv-x="474" 
d="M648 185q-9 -29 -43 -79t-43 -70l-24 -54.5t-32 -69.5q-11 -23 -28 -38.5t-39.5 -20t-44.5 16.5q-16 14 -24 38t-9 40.5t0 44.5v8q-1 0 -1.5 4t-2 10.5l-3 13l-2.5 11l-1 4.5q-3 40 -2 73q0 23 6.5 74t5.5 78q-18 -10 -36 -31t-30.5 -45.5t-16.5 -45.5q-20 -11 -32 -55
t-19 -55q-20 -28 -53 -38t-66 4q-17 7 -30 19.5t-21 26t-13 34.5t-7 35.5t-2 40t0.5 38t2.5 38.5t2 32q1 8 1 19.5v21t1 21.5t2 21.5t3.5 20t6 17.5t9.5 13.5t13.5 9t18 2.5t23.5 -4q27 -9 39.5 -33t11.5 -54t-4 -65t-7 -64.5t3 -53.5q52 75 130 150q159 154 196 53
q4 -9 6 -22q3 -13 3.5 -29.5t-0.5 -31.5t-4 -33.5l-5.5 -33l-5.5 -32.5l-5 -30q-2 -18 -10.5 -53.5t-12.5 -64.5t-2 -55q5 9 40 76.5t56 102.5q2 4 8 14t9.5 16.5t9.5 14t12 12.5q5 3 12.5 6.5t16 6t16 2t12.5 -6t5 -16.5z" />
    <glyph glyph-name="v" unicode="v" horiz-adv-x="337" 
d="M611 375q0 -23 -28.5 -35t-72.5 -18t-51 -8q-12 -4 -31.5 -8.5l-34 -8t-30.5 -9.5t-28.5 -15.5t-21.5 -22.5q-49 -74 -89 -181q-8 -21 -14.5 -34t-17.5 -27.5t-26 -20.5t-36 -5q-37 26 -54 70.5t-17 97.5t6 103t14 106.5t7 87.5q0 7 -1.5 18t-1.5 16.5t2 12t8.5 10
t19.5 5.5q23 4 45 -9t30 -34q9 -26 -2 -100.5t-11 -77.5q-1 -13 -2 -37t-2 -44t-2 -38l15 22l16 24.5t13.5 23t11.5 26t6 25.5q1 8 1 17v16t3 14.5t10 14.5q5 4 11.5 7.5t14.5 5.5t15 3t16 2.5t13 2.5q7 1 30.5 7.5t48 12.5t56.5 12.5t59 8.5t51 0.5t37.5 -11.5t13.5 -28z
" />
    <glyph glyph-name="w" unicode="w" horiz-adv-x="694" 
d="M509 -38q-4 -7 -16 -15t-15 -15q-6 -11 -6 -33.5t-3 -30.5q-6 -25 -24.5 -59.5t-35.5 -44.5q-8 -5 -29 -7.5t-32 -0.5q-14 3 -35.5 25.5t-31.5 39.5q-35 58 -12 188q2 12 8 41.5t9 51t4 42.5q0 3 4 26t6 37.5t-2 21.5q-4 -4 -12 -18.5t-12 -17.5q-5 -6 -18 -16.5
t-19 -17.5q-10 -13 -27 -43.5t-29 -44.5q-33 -39 -74 -40t-70 42q-12 20 -16 112q-6 133 31 134q2 0 5 -1q-1 5 -1.5 41t21.5 69.5t56 18.5q17 -7 24.5 -17.5t6 -24.5t-5 -25.5t-10.5 -27.5t-9 -24q-22 -73 -12 -162q12 8 26.5 22.5t28 30l30 33l31.5 32.5t33 27.5
t34.5 19.5t35.5 6.5t38 -10.5q16 -9 25.5 -24t13 -29.5t2.5 -37t-4 -37l-7.5 -37.5t-6.5 -32q-1 -11 -10 -56t-12 -70q-1 -11 -5.5 -29t-7.5 -32t-3 -30.5t5 -29.5q10 12 18.5 38.5t14.5 35.5q2 3 6 6l7.5 5.5t5.5 5.5q3 5 4.5 18t4.5 19q2 3 13 15.5t15 22.5q2 3 11 19
t15 29t4 16q1 1 -0.5 8t-1.5 8q1 7 9.5 16t10.5 12q7 13 9.5 18.5t6.5 16.5t5.5 20.5t0.5 19.5q-2 11 -7 26t-7.5 25t-2.5 21t9 19t28 14q26 8 87 8.5t64 0.5q17 0 40.5 0.5t44.5 -10.5t20 -33q-1 -18 -22.5 -27t-49.5 -9t-55 -0.5t-39 -2.5q-9 -3 -17.5 -8.5t-14.5 -11.5
t-12 -16.5t-9.5 -18t-8 -20.5l-6.5 -19t-5.5 -20.5t-5.5 -17.5q-3 -13 -9 -34l-10 -36t-10 -33t-12.5 -35t-13.5 -32z" />
    <glyph glyph-name="x" unicode="x" horiz-adv-x="508" 
d="M539 461q0 -10 -7 -19.5t-13 -14t-20.5 -13t-15.5 -9.5q-8 -5 -30.5 -24t-35.5 -25q-4 -7 -11.5 -17l-16 -21t-17 -20t-15.5 -13q-8 -19 -26 -23q-3 -8 -7.5 -14.5t-14.5 -17l-11 -11.5q8 -40 32 -65t66 -44q7 -3 29 -9.5t37.5 -13.5t30 -17.5t13 -26.5t-20.5 -36
q-6 -7 -13.5 -11t-16.5 -5t-16.5 -1t-18 2t-16.5 3.5t-17 5t-15 4.5q-53 15 -89.5 34t-62.5 54q-6 -7 -17.5 -15.5t-15.5 -13.5q-7 -7 -16 -24.5t-16 -24.5q2 -8 3.5 -23.5t2.5 -20.5q-21 -9 -35.5 -34.5t-12.5 -49.5q0 -5 2.5 -15.5t4 -18.5t2 -19t-3.5 -16t-12.5 -8.5
t-25.5 2.5q-19 5 -28 27t-7.5 45t3.5 42q6 38 23.5 90.5t37.5 65.5h-24q17 24 40 27h1l1 1l4 -4q5 17 7 34.5t1.5 31t-4 32.5t-6.5 29.5l-9.5 32.5t-9.5 33q-16 61 -32.5 103t-21 49t-17.5 16.5t-16 15.5q-16 27 1.5 45t52.5 25q71 13 112 -47q32 -48 46 -116q1 -5 2 -17.5
t2.5 -22t5 -20t10.5 -18t18 -10.5q0 1 1 1q-7 2 -9 19q17 22 40.5 44.5l49 46t41.5 41.5q1 1 12 13t15.5 16l14 12.5t18 12t16.5 3.5q17 0 42 -17.5t25 -32.5z" />
    <glyph glyph-name="y" unicode="y" horiz-adv-x="464" 
d="M240 -265q0 19 13.5 55t13.5 55q-9 -9 -25.5 -33.5t-24.5 -38.5q2 -7 -8.5 -25.5t-25.5 -40t-18 -28.5q-14 -31 -23 -85q0 -3 -3 -13.5t-5.5 -20.5t-4 -21t1.5 -18.5t10 -8.5q4 -1 10.5 2t14 9.5t14.5 13.5t15 16t13 15.5l10.5 14t6.5 8.5q-6 15 -5 20.5t7 16t7 17.5
q-7 7 -6 18t5 19t8.5 19.5t4.5 18.5q-6 8 -6 15zM639 112q-32 0 -63 -16t-69.5 -45.5t-53.5 -38.5q-4 -3 -14.5 -9t-13.5 -8l-11.5 -7.5t-11.5 -8.5t-9.5 -8.5t-10 -10.5l-8 -12t-8.5 -15q-4 -6 -8 -20.5t-9.5 -26t-11.5 -17.5q6 -14 4.5 -45t-14.5 -40q2 -2 3.5 -6
t0.5 -9.5t-2 -9.5t-3.5 -10t-4 -9t-5 -9.5l-3.5 -6.5q7 -10 6 -53h-2q-3 -16 -5 -25l15 2q-23 -20 -37.5 -55.5t-21.5 -66.5t-27.5 -60t-54.5 -41q-47 -15 -82 4t-51.5 56.5t-15.5 81.5q0 19 3.5 38.5t10.5 40t13.5 36t19 37l19.5 33.5t21.5 35l20.5 33q53 88 79 122l12 15
l12 15t9.5 14.5t8.5 18.5q3 8 6.5 23.5t8 26t13.5 19.5h-2l-8 10q0 8 5.5 29l10 39t3.5 37t-9 27q-11 -3 -21 -11.5t-16.5 -19t-8.5 -21.5l-11 2l7 -8q-16 -18 -53 -69t-63 -74q-46 2 -76 32.5t-39 70.5t-5 85q3 1 5.5 26l5 51.5t3.5 28.5l4.5 19.5t6.5 19.5t10 19.5t14 13
t19 7.5q30 4 47 -9.5t20.5 -40.5t2.5 -52t-5 -55.5t-4 -39.5q57 40 103 83q5 5 29 32t43 40.5t42 14.5q39 1 57.5 -19.5t18 -56.5t-7 -71.5t-15 -74t-7.5 -53.5q22 11 53 32.5t59.5 38t57.5 23.5q37 8 60 2q17 -5 30 -20.5t9 -31t-30 -18.5z" />
    <glyph glyph-name="z" unicode="z" horiz-adv-x="540" 
d="M577 70q0 -35 -69 -24q-9 1 -18 1.5t-16 0.5t-16.5 -0.5t-15 -1.5t-17 -2.5t-18.5 -2.5q-5 -1 -23.5 -3t-25.5 -3t-22.5 -3.5t-25 -5l-22.5 -6t-25 -8.5q-29 -11 -39 -14.5t-37 -11t-43 -8t-38 3.5t-40 15q-31 19 -48 55t-13 73q5 3 16.5 5.5t14.5 3.5q8 18 35.5 47
t36.5 45q-19 8 -28.5 26.5t2.5 36.5q8 10 15 11t18.5 -3.5t18.5 -5.5q18 -2 37.5 5t41 24t32.5 27t31 30q-57 -2 -99.5 8.5t-79.5 42.5q-19 17 -37 61q-24 61 17 59q12 -1 25.5 -18t15.5 -19q27 -21 72 -23q17 0 39.5 2.5t39 5.5l42.5 8l37 7q5 1 26.5 5t29.5 5t26.5 3
t29.5 0.5t25.5 -5t26.5 -10.5q30 -18 48 -52t1 -62q-9 -15 -28 -24t-46 -15.5t-37 -10.5q-71 -29 -108 -50q5 0 25.5 1.5t33.5 1.5t29 -3.5t24 -11.5q10 -10 11.5 -18.5t-3.5 -13.5t-13 -8.5t-19.5 -5t-20 -2t-16.5 -0.5q-44 0 -77.5 -4t-71 -22t-57.5 -50l5 -5
q-30 -17 -31 -29q22 6 54.5 11t82.5 11.5t96.5 6t88.5 -6.5t68 -26t26 -51z" />
    <glyph glyph-name="braceleft" unicode="{" horiz-adv-x="289" 
d="M102 81h1q2 -3 4 -5q-38 37 -28 113l-12 17q-2 4 -2.5 9t0.5 10.5l2 10.5t2.5 11t2.5 9q1 7 7 32.5t7 36t-1 31.5q-4 15 -18.5 29t-25.5 21.5t-17.5 23.5t5.5 37q4 11 20.5 33.5t21.5 40.5q17 59 12 104q-3 25 -14 71t-13 60q7 10 15.5 25l14.5 26t14.5 23.5t17.5 20
t20.5 12.5t27 4.5t34.5 -6.5q20 -7 43.5 -24.5t27.5 -34.5q1 -16 0 -23t-9.5 -6.5t-15.5 3.5l-17.5 7.5t-15.5 5.5q-31 5 -50.5 -14.5t-25 -48t0.5 -56.5q1 -7 15 -51.5t10 -73.5q-4 -41 -30 -121q24 -19 34.5 -47.5t8 -65t-7 -61t-14.5 -62.5q-9 -35 4 -88q13 -55 40 -31
q7 7 15 21q3 4 11.5 24t17.5 28.5t25 8.5q11 1 18 -1t10.5 -6t4.5 -9t-1 -12t-4.5 -13t-6.5 -13.5t-7.5 -13l-8 -12.5l-6.5 -10l-9 -17.5t-10 -18t-10.5 -13.5t-14 -12.5t-17 -7t-23.5 -3.5q-29 0 -57.5 22t-22.5 50z" />
    <glyph glyph-name="bar" unicode="|" horiz-adv-x="199" 
d="M139 640q-4 -10 -3 -13t5 -9t5 -13q3 -27 -6 -93q-2 -16 -3 -48.5t-5 -55t-17 -44.5q6 -17 1 -38t-17 -34q1 -1 5.5 -7t5.5 -7t4.5 -6t4 -7t1.5 -6.5t0.5 -7.5t-2 -7.5t-4.5 -8.5q22 -23 20 -77t-20 -79q12 -14 37 -47q-15 -4 -35.5 -7.5t-41 -7.5t-35.5 -8
q-10 14 -16.5 30t-8.5 37t-2.5 34.5t0 39.5t0.5 34q0 17 4 46t5 39q1 12 -3 39t-0.5 46.5t20.5 33.5q-8 8 -12.5 15.5t-5.5 13.5t0 13.5t3.5 13.5t5 15t3.5 17q1 7 -2 23t-1.5 23t6 12t10 10t8.5 10q-2 11 -7 22.5t-8.5 18.5t-3 18t7.5 24q-9 16 -7.5 36.5t7 34.5t11.5 33.5
t6 35.5l-4 11l-8 19q0 -2 2 -9q-4 15 5 65q1 10 7 32.5t7 34.5q109 51 114 -72q4 -88 -36 -202z" />
    <glyph glyph-name="braceright" unicode="}" horiz-adv-x="195" 
d="M0 61q0 16 10 23.5t23.5 7.5t29.5 2.5t24 9.5q14 13 16.5 28t-2 39t-4.5 33q-1 19 1 67t-1 67q-1 14 -5 44t-5.5 52.5t-1.5 44.5q-5 6 -7.5 14.5t-2 17t2.5 19.5t5 20.5t7 20l7.5 19l7 17l5.5 13.5q-4 15 7.5 45t26 57t20 55t-10.5 38q-10 8 -27 1l-38 -15.5t-39.5 -15
t-29.5 2t-9 34.5l13 8l1 -1q28 20 63.5 32t70 14t57.5 -21t22 -70q-1 -36 -19 -85.5t-35.5 -87.5t-29 -87t0.5 -84q5 -16 14.5 -31.5t18 -26t14 -27t3.5 -36.5q-2 -29 -12.5 -93t-12.5 -100q-2 -43 -24.5 -77t-62.5 -39q-27 -3 -59.5 11.5t-32.5 39.5z" />
    <glyph glyph-name="asciitilde" unicode="~" horiz-adv-x="288" 
d="M98 324l28 14t31 14t34.5 11.5t33.5 5t32 -2.5t26.5 -15t20.5 -29q8 -20 7.5 -37.5t-9.5 -26t-20.5 -10.5t-24.5 9.5t-22 34.5q-20 -5 -51.5 -20.5t-52.5 -25t-48 -4t-49 34.5q-7 10 -13.5 24.5t-8 32t9.5 26.5q12 11 22 4.5t15.5 -20.5t15.5 -22t23 2z" />
    <glyph glyph-name="nonbreakingspace" unicode="&#xa0;" horiz-adv-x="177" 
 />
    <glyph glyph-name="exclamdown" unicode="&#xa1;" horiz-adv-x="138" 
d="M35 680q0 34 24 48t52.5 3.5t40.5 -38.5q16 -38 -18 -59q-32 -21 -66 -3q-26 14 -33 49zM34 168q0 22 7 69.5t5 73.5q-1 5 -1 69.5v70.5q0 8 -1 23t-1.5 25t1 22t6.5 21.5t13 17.5q13 10 28 16t32 4.5t27 -12.5v-101t-1 -115q-15 -37 -17.5 -93t0.5 -100t-8 -96
q-7 -28 -27.5 -45t-47.5 -5q-22 10 -25.5 37.5t3.5 68t7 49.5z" />
    <glyph glyph-name="cent" unicode="&#xa2;" horiz-adv-x="414" 
d="M229 346q-29 -23 -51 -73t-28 -94q-3 -19 5.5 -45t25 -48.5t33.5 -28.5q2 19 4.5 47.5t4.5 49t4 47.5t3 49t1 47.5t-2 48.5zM264 590q27 -4 37.5 -13t10.5 -20t4 -28.5t16 -32.5q8 -11 35.5 -23.5t35.5 -26.5q6 -9 11.5 -31t6.5 -27q-5 2 -18.5 8l-25.5 11.5t-24 9.5
t-16 2q-6 -2 -10 -9t-6.5 -18t-3.5 -20.5t-2.5 -22.5t-2.5 -18q-7 -56 -13.5 -162.5t-8.5 -122.5q25 -4 38 10.5t22 41.5t15 35t13.5 13t20 6t18 1.5t22.5 -1.5t20 -2q-12 -37 -23 -62t-29.5 -49.5t-46 -37.5t-65.5 -15q-3 -50 1 -137q-24 0 -38.5 6t-20.5 18t-9 25t-8 31.5
t-12 32.5q-12 20 -44 35.5t-42 23.5q-25 19 -64 80q-28 45 -33.5 91t6 86t38.5 88l20 35t21 34t26.5 34.5t29 26.5t35.5 20t39 5q0 2 5.5 29t5.5 42z" />
    <glyph glyph-name="sterling" unicode="&#xa3;" horiz-adv-x="677" 
d="M193 155h9q-10 15 -13.5 49t-2.5 63.5t0 52.5q-4 0 -11 1q-27 0 -40.5 1t-33 5.5t-28.5 13t-15 25.5t-3 42q24 3 69.5 7l67.5 6q1 6 2 18q3 37 5.5 59t9 61t17.5 63t27.5 49.5t41.5 38t58 12.5q47 1 92 -26.5t57 -71.5q13 -49 -10.5 -68t-64.5 4q5 33 -16 68
q-24 38 -47 7q-4 -5 -7 -12q-10 -18 -13.5 -64t-6.5 -59q-2 -5 -4.5 -15t-3.5 -14.5t-2.5 -12t-0.5 -11t3 -8t6.5 -7t11.5 -4t17 -1.5q5 0 32.5 2t50.5 2t48.5 -3.5t37.5 -18t6 -37.5q-7 -26 -38.5 -31.5t-77 0t-54.5 4.5q-59 -5 -71 -52q-6 -20 -1 -70t19 -61
q33 -26 97 -37t119 -9q18 0 30 3.5t19.5 9.5t12.5 13t15 16.5t22 18.5q42 28 70 -14q14 -26 7.5 -50.5t-26.5 -44.5q-6 -6 -17.5 -14t-26 -15.5t-27 -10.5t-20.5 2q-11 -2 -30.5 -7t-35.5 -7.5t-32 0.5q-22 3 -64 18t-62 19q-85 18 -142 5t-125 -66q-35 24 -39.5 53.5
t15.5 52t52 39t65 18.5z" />
    <glyph glyph-name="yen" unicode="&#xa5;" horiz-adv-x="447" 
d="M412 557q-14 -23 -40.5 -75t-42.5 -77l-11.5 -15.5l-15 -21t-14.5 -23.5t-12 -25t-3.5 -22t6.5 -18q8 -7 23 -7.5t28.5 1.5t25 -5t14.5 -26q3 -18 -2.5 -28t-17 -11.5t-23 -0.5t-26.5 3.5t-22 2.5q0 -3 -1.5 -11t-2.5 -14.5t-0.5 -13.5t3.5 -11q6 -8 28.5 -8.5t30.5 -3.5
q43 -20 25 -49q-9 -15 -36 -15t-33 -4q5 -3 2 -27t-7 -31q-12 -23 -36 -31q-24 -6 -35 -2.5t-18 16.5t-9 26.5t-7.5 28t-13.5 21.5q-9 7 -22.5 8.5t-25 0t-24 3.5t-19.5 18q-23 41 19 41q6 0 62 -9q6 -1 10 -1q8 9 11 22q-5 5 -7 13.5t-3.5 17.5t-5.5 15q-9 -1 -21.5 -1
t-28 1.5t-27.5 5.5t-21.5 11t-8.5 18t10 27q7 0 24 -2.5t30 -4t27.5 1.5t22.5 11q-2 9 -11 21.5t-19 25t-14 22.5q-3 10 -9 33t-11 35q-13 35 -33.5 101.5t-26.5 84.5q-2 6 -8.5 21.5t-9.5 25t-4.5 21t5.5 18.5t21 9q25 4 66 -21.5t28 -50.5q8 -6 13 -20t10 -34.5l6 -24.5
q18 3 24.5 -16.5t4.5 -45t-1.5 -50t7.5 -27.5q10 22 36 64l29 47q12 21 34 69.5t38 73.5q8 13 13.5 20.5t15 17.5t18 14t20.5 3t24 -8q8 -6 13 -12.5t7.5 -13t2.5 -15t-1.5 -16t-5 -17t-7 -16.5t-9 -17t-9 -15.5l-9 -14.5t-7.5 -12z" />
    <glyph glyph-name="section" unicode="&#xa7;" horiz-adv-x="419" 
d="M168 402q-19 -17 -28 -27q22 -2 46 1t37.5 6.5l43.5 11.5q-20 20 -48 23t-51 -15zM367 28q-20 -16 -42 -25.5t-50.5 -12.5t-45 -3.5t-53 2t-48.5 2.5q-22 1 -40 7.5t-29 15t-22 26t-16.5 29.5t-15.5 36q-3 9 -5 13q20 -2 90 -21.5t112 -14.5q6 1 37.5 2t51.5 5.5t31 16.5
q6 5 8 10t1 10t-2.5 8.5t-7 9t-8.5 8t-10.5 8t-9.5 7.5q-61 48 -125 67q-6 2 -13.5 4l-13.5 3.5l-13.5 3.5t-13.5 4t-12.5 5t-12.5 6.5t-11.5 8t-11.5 10.5q-12 13 -19.5 26t-9.5 27t-1.5 26.5t6 27t10.5 26t14.5 26t16.5 24l18 23.5q-18 35 -20 65.5t11 56t35 46.5t56 40
q2 2 11 7.5t13 7.5l12.5 6.5t14 5.5t12.5 3t14 1t14 -3q18 -6 39 -29.5t31 -43.5q5 -1 7.5 -6t2 -9.5t-1.5 -12t-1 -10.5h-7q-24 -2 -38 -4t-39 -7.5t-40.5 -13t-30 -21t-19.5 -31.5q10 -5 38 -17.5l46 -21t41.5 -22t40.5 -28t28 -30.5q18 -26 19.5 -48.5t-9.5 -37.5
t-31.5 -27t-42 -19t-46.5 -10q22 -14 45.5 -34t47 -48t37 -55.5t9 -56t-32.5 -50.5z" />
    <glyph glyph-name="copyright" unicode="&#xa9;" horiz-adv-x="447" 
d="M256 540q22 0 50.5 -14t39.5 -31q5 -10 8 -17.5t2.5 -12t-2 -8t-7 -4.5t-9 -1.5t-11 0.5t-11.5 2t-12 2q-5 1 -9.5 2.5t-7 2t-4.5 1t-3.5 0t-2.5 0t-3 -1.5l-3.5 -3.5t-6 -5.5t-7.5 -7q-18 -17 -30 -40q-13 -27 -19.5 -62t-0.5 -62q8 -33 22 -43t30 -1.5t34.5 22
t34.5 26.5t30 13t21 -19q9 -27 -72 -86q-3 -2 -4 -3q-53 -39 -116 -21q-2 3 -5 10t-5 10h-1h1q-29 5 -40.5 43.5t-10 74.5t7.5 64q3 15 8 31.5t13 36.5t18 37.5t22.5 32.5t28 23.5t32.5 8.5zM325 534q-46 31 -77.5 28.5t-73.5 -39.5q-107 -94 -107 -207q1 -147 136 -193
q74 -26 125 8q15 10 28 28.5l25.5 37.5t25.5 29q2 8 6.5 22l7 22t5 20.5t3.5 24.5q1 8 -2 39t2 37l-12 20t-12.5 21t-9.5 20t-7 23q6 1 11 2l-11 -2q-23 31 -63 59zM277 59q-62 -20 -123.5 11.5t-104.5 88.5q-61 82 -34 208q23 113 107 212q28 33 109 36t112 -29l8 -2
t16.5 -4.5t10.5 -3.5q5 -3 10 -6.5t8 -6.5t8 -9.5l6.5 -8.5t6.5 -10t6 -9q36 -55 52 -107q19 -64 6 -107q-1 -4 -7 -13.5t-8 -14.5q-1 -5 2 -15t2 -14q-3 -12 -14 -30.5t-14 -29.5l1 -2q-36 -55 -72.5 -86t-93.5 -48z" />
    <glyph glyph-name="guillemotleft" unicode="&#xab;" horiz-adv-x="505" 
d="M464 95q-13 9 -36.5 31t-35.5 31q-8 6 -20.5 12.5l-24 13t-19.5 13.5q-43 37 -49 117q20 -2 33.5 6.5t31.5 27.5q3 4 4 5l137 136l17.5 -19.5t16.5 -19t10 -17t3 -21.5t-10 -24q-18 -28 -68 -70t-67 -68q104 -90 144 -149q-11 -13 -17 -29q-3 1 -22 9t-28 15zM173 223
l-18 -26q19 -22 51 -46.5t58.5 -49.5t41.5 -57q-110 12 -208 101q-20 18 -30 37t-13 35t3.5 35t13.5 32t24 32.5t27.5 30l30.5 29.5q5 4 7 7q8 7 20 21.5l23.5 27.5l25 28t27.5 25.5t28.5 17.5t29.5 6t30 -10q48 -36 40.5 -72.5t-44 -66t-79.5 -39.5q-10 -22 -44.5 -52
t-44.5 -46z" />
    <glyph glyph-name="registered" unicode="&#xae;" horiz-adv-x="465" 
d="M233 378q0 -1 -1 -8.5t-1.5 -13t0.5 -9.5q15 14 31.5 45.5t1.5 40.5q-8 4 -13.5 3.5t-8.5 -4.5t-5.5 -10.5t-3 -13.5t-0.5 -14v-12v-4zM406 245l6 -6q23 28 28.5 84t-12.5 88v8l2 4q-9 45 -50 84.5t-87 48.5q-36 7 -98 -17t-76 -56q28 -13 31 -29q5 7 7.5 18.5t6 21.5
t10.5 15q7 6 15.5 6.5t15.5 -2t16 -5t16 -2.5q-1 8 44 -16q49 -27 55 -46q6 -20 0.5 -43t-17.5 -50t-15 -41q11 -7 26.5 -15.5l26.5 -14.5t24.5 -15.5t24.5 -19.5zM379 177q-9 5 -34 22t-45.5 27.5t-36.5 10.5q-10 0 -16.5 -4t-9.5 -10t-5.5 -14.5l-4.5 -15.5t-8 -14
t-15 -10q-37 -14 -48 47t4 121q2 10 5 15q-7 13 -10 42.5t-8 41.5q-32 -48 -46 -95t-3.5 -99t53.5 -92q59 -57 132 -30q23 9 59.5 28t36.5 29zM343 594q53 -20 83 -52.5t54 -88.5q14 -34 17 -66t-2.5 -59t-19.5 -64q3 -9 -2 -21.5t-14 -21.5t-18 -14q-1 -2 -3 -10.5
t-3.5 -13.5t-6 -9.5t-10.5 -4.5q-13 -36 -44.5 -63t-70 -40t-80 -12.5t-74.5 15.5q-40 19 -69.5 55.5t-45.5 83t-23.5 89.5t-10.5 90l3 3q12 52 30 65q39 90 130 131t180 8z" />
    <glyph glyph-name="paragraph" unicode="&#xb6;" horiz-adv-x="484" 
d="M399 371q-5 -31 -7 -65t-2.5 -83.5t-0.5 -65.5q-2 -36 0 -101.5t2 -87.5q-23 10 -40 26t-27.5 38t-17 42.5t-10 50t-4.5 49t-2 51.5t-2 46q-2 82 -0.5 127t7 126t7.5 126q-84 5 -113 -10q0 -7 4 -62t4.5 -67.5t3 -61.5t2.5 -68t0.5 -61.5t-1 -68l-3.5 -61.5t-6.5 -67
t-10.5 -61q-44 -1 -72 10.5t-39 47.5q-8 37 -6.5 79t8.5 79q2 11 7.5 31t9.5 36t7.5 35.5t2.5 37t-7 32.5q-6 16 -30.5 40.5t-31.5 36.5q-33 57 -27 116q5 45 34 79.5t72 33.5q16 -1 45.5 -10t41.5 -11q10 -2 24 -1.5t23.5 1.5l23.5 2.5t24 1.5q22 1 68.5 -5.5t74.5 -4.5
q31 4 49.5 -2.5t29.5 -23.5t15 -48q-68 -9 -88 -20q-7 -4 -12.5 -9t-8 -8.5t-4.5 -12.5t-2.5 -11.5t-1 -15.5t-0.5 -16q-1 -19 -2.5 -60t-4 -72t-6.5 -59z" />
    <glyph glyph-name="guillemotright" unicode="&#xbb;" horiz-adv-x="442" 
d="M487 328q0 -16 -5.5 -32.5t-14 -29.5t-22 -28t-24 -25.5l-25.5 -24.5l-23 -21q-11 -11 -29.5 -32.5t-35 -38.5t-32.5 -29q-36 -27 -70.5 -16.5t-51.5 54.5q-11 29 9 57.5t50.5 45.5t59.5 24q6 11 13.5 19.5t22.5 20.5t18 15q8 7 16.5 16t13.5 15.5l14.5 18.5l13.5 17
q-19 24 -52 48.5t-61 49.5t-43 57q31 -3 74 -18.5t84.5 -38.5t70.5 -56.5t29 -67.5zM199 238q-19 -20 -43 -42l-52 -47l-45 -41q-3 4 -12 14t-11 12.5t-8 11t-7 12.5l-3 11.5t0.5 13.5t5.5 14.5t10 17.5q18 26 64 65t63 63q-95 80 -141 149q7 13 12 27q34 -10 77.5 -49.5
t62.5 -50.5q53 -30 72 -56t24 -85q-6 0 -11.5 -0.5t-9.5 -1.5t-9.5 -4t-8 -4.5t-8.5 -6.5t-7 -6.5t-7.5 -8.5t-7.5 -8z" />
    <glyph glyph-name="questiondown" unicode="&#xbf;" horiz-adv-x="317" 
d="M207 609q-31 0 -35 34q-4 35 22 58q20 17 46 10q12 -4 22.5 -13.5t16.5 -22.5t4 -25q-4 -45 -76 -41zM77 194h1h-1zM77 190v-3q1 0 4 1v1zM71 193v-1v1zM50 217q0 38 20 77t44 67.5t46.5 67.5t26.5 75q0 9 0.5 18.5t1 17.5t5 16t14.5 16q35 27 66 -4q21 -21 23 -57
t-8.5 -67t-25.5 -57l-12 -18q-199 -304 -94 -294q13 1 26.5 11.5t22.5 21.5t19.5 31t14.5 29.5t11 27.5q2 4 4.5 11t4 10t4 7.5t5 6.5t6.5 4t9.5 2.5t12.5 0.5q33 -3 65 -44q-9 -47 -38 -89t-72.5 -68.5t-90.5 -26.5q-44 -1 -75.5 17.5t-45 48t-11 67t20.5 74.5z" />
    <glyph glyph-name="Agrave" unicode="&#xc0;" horiz-adv-x="449" 
d="M201 987q0 8 18 25q75 -27 129 -121q-13 -96 -84 5q-25 36 -46 76q-4 0 -8 2t-6.5 5t-2.5 8zM220 441q-46 -73 -25 -93q18 1 46.5 9t41.5 17q18 12 19 25.5t-6 40.5q-1 6 -6.5 29t-9.5 41.5t-4 36.5t7 24l-6 24q-5 -11 -11 -34.5t-13.5 -41t-20.5 -27.5q2 -16 -0.5 -26
t-11.5 -25zM0 44q0 11 14 37.5t15 30.5q6 17 14.5 50t11.5 43q2 5 8 22.5t8.5 30t2.5 23.5q0 7 -2.5 15.5l-4.5 15t-1.5 14t4.5 15.5q5 0 12.5 3t11.5 3q1 36 13.5 77.5t29.5 87.5t24 75q4 17 12 36t18 40t15 35l11.5 31t13 27t18.5 26t24 15t33 7q7 0 14.5 2.5t14 2.5
t16.5 -7q3 -2 6 -5.5l5 -6t4.5 -8t3.5 -7.5t3 -8.5t2 -7.5q28 -78 17 -137q15 -26 25 -75.5t8 -83.5q0 -9 -2 -19t-3.5 -16.5t-1 -16t3.5 -20.5q8 -21 37 -65q-2 -5 -5.5 -16.5t-5.5 -17.5q4 -17 12 -61t14 -68q21 -74 19 -122q-3 -3 -16 -14.5t-18 -15l-16 -11t-17.5 -7.5
t-16.5 0.5t-18.5 7.5t-16.5 19q-15 21 -28 74t0 65q-1 3 -1.5 15t-1.5 20l-2.5 21t-3.5 22.5t-5 19.5t-7.5 17t-10.5 11q-3 -2 -22 -11.5t-26 -12.5t-21.5 -7t-27.5 -3q-7 -4 -28.5 -11.5t-29.5 -14.5q-11 -11 -17.5 -30.5t-11 -46t-7.5 -35.5q-16 -58 -39 -81
q-8 -7 -21.5 -13t-27.5 -7.5t-24.5 6.5t-10.5 26z" />
    <glyph glyph-name="Aacute" unicode="&#xc1;" horiz-adv-x="449" 
d="M412 1016l-10 -7l11 6q9 -10 9 -21t-14 -14q-3 -7 -9.5 -24.5t-12.5 -31t-14.5 -29t-19.5 -26.5t-23 -15q-42 -12 -46 44q22 39 55.5 75.5t67.5 50.5zM197 375q-1 -10 -1 -18q52 3 76 16q13 7 19 8q1 0 1 1q-1 1 -1 2t0.5 5t2.5 9q9 27 -1 90.5t-10 75.5q-11 10 -5 23
q-2 11 -3 12q-3 -9 -9 -34t-14 -39t-24 -25q7 -25 -12 -66t-19 -60zM58 220q4 13 5 31t1 29t-1.5 35t-1.5 29h12q9 10 17 11q4 90 62 198q4 7 6 14.5t2.5 14t0.5 13t0.5 14t2.5 14.5q4 17 21.5 46.5t21.5 38.5l11 23.5t14.5 26.5t17.5 27t20 21.5t24 14.5t26.5 2t28.5 -12
q29 -21 41.5 -87t-3.5 -96q16 -29 22.5 -71.5t6.5 -78t8.5 -76.5t28.5 -69q-2 -6 -5 -17t-5 -16q3 -12 9.5 -35.5l10 -37t7 -33.5t5.5 -37q1 -17 10 -53.5t9 -56.5q-11 -7 -25.5 -22.5t-23.5 -21.5q-19 -13 -35.5 -8.5t-28 18t-19.5 35.5q-16 41 -26 128q-12 95 -24 106
q-7 -1 -23.5 -8l-30.5 -13t-29 -8.5t-19 6.5q-14 -11 -35.5 -23t-31 -24t-16.5 -41q-3 -11 -8 -33l-8 -36t-11 -31.5t-18 -30.5q-15 -18 -34 -22t-32 9t-11 39q3 30 25.5 84.5t27.5 69.5z" />
    <glyph glyph-name="Acircumflex" unicode="&#xc2;" horiz-adv-x="458" 
d="M405 937q19 -38 19 -76q-13 -19 -26.5 -20t-25 13t-21 30.5t-19 36t-14.5 25.5q-4 -5 -18 -27q-46 -73 -69 -77q-17 -4 -27 26q0 1 -1 2q-7 5 -6 16q14 14 42.5 58t47.5 59q16 12 31.5 13.5t27 -4.5t23.5 -20t19.5 -26t16.5 -29zM196 368q0 -12 4 -16q20 1 59 8t43 8
q8 3 6.5 33t-4 51.5t-5.5 37.5q-2 12 -4.5 31t-5.5 36t-7 31q-5 -11 -10 -32.5t-12 -37.5t-21 -26q6 -25 -18.5 -63.5t-24.5 -60.5zM11 45q-9 16 36 136q14 37 16 72.5t-3 74.5q5 4 9.5 6t12 3.5t10.5 2.5q2 25 9 51.5t13.5 43.5l19.5 49l18.5 46.5t12 39.5t7.5 31
q6 18 22.5 49t21.5 45q2 3 4 10l9 21l9 20.5t11.5 21l13 17.5t15.5 15t18 9.5t22 4t25 -4.5q18 -6 31.5 -22t20 -36.5t9.5 -44t1.5 -45t-6.5 -36.5q7 -13 11.5 -29t6 -37l2.5 -34t0.5 -38t0.5 -31q0 -37 10.5 -65.5t33.5 -62.5q-2 -5 -3.5 -11t-2.5 -12t-2 -11l12 -47
t13.5 -55t9.5 -47t8 -56t1 -48q-8 -5 -19 -16t-21.5 -20.5t-19.5 -12.5q-41 -12 -74 54q-19 38 -24 111q-1 5 -1.5 28.5t-1.5 39.5t-6.5 34.5t-13.5 25.5q-20 -3 -54.5 -18.5t-44.5 -18.5q-40 -13 -52 -26.5t-23 -56.5q-1 -4 -7 -25.5l-8.5 -30t-8.5 -23.5t-13 -26
q-14 -23 -47 -40q-48 -21 -50 25z" />
    <glyph glyph-name="Atilde" unicode="&#xc3;" horiz-adv-x="460" 
d="M199 362q0 -10 2 -16q14 1 33.5 4.5t39 9.5t30.5 13l-5 44l-5 46t-4 44t-2 46q-5 9 -1 19l-4 12q-3 -10 -8.5 -34t-13 -39t-22.5 -27q0 -23 -20 -61t-20 -61zM183 927q-2 25 8 36q12 0 20.5 -9.5t16.5 -21.5t18 -14q14 -3 56.5 19t54.5 23q36 6 68 -20.5t20 -63.5
q-7 -24 -22 -29t-29 5t-23 28q-16 -3 -50 -20t-57 -17q-35 -1 -58 23.5t-23 60.5zM146 159q-23 -83 -44 -114q-7 -9 -19.5 -19t-26.5 -16.5t-26 -1t-15 25.5q-7 2 -1.5 30.5t12.5 53l16.5 55t11.5 37.5q1 6 3.5 43t10 59.5t25.5 19.5q3 32 12 63t26 74.5l23 59.5l17 55.5
t18.5 58.5t20.5 52t29 54q15 23 35 39.5t45 20.5t47 -19q25 -25 35.5 -83.5t-1.5 -88.5q8 -17 8 -45v-46q1 -9 3 -19.5t4 -19t4 -19t3 -19.5q3 -40 12.5 -68t31.5 -60l-19 -36q5 -19 23 -76t26 -97.5t8 -79.5q-6 -3 -19 -12.5l-20 -14.5t-19.5 -11t-21.5 -6.5t-20.5 3.5
t-20.5 14q-16 16 -30.5 74t-4.5 72q-11 104 -28 116q-7 0 -44 -11.5t-47 -7.5q-5 -1 -7 -1q-5 -3 -26.5 -10.5t-28 -14t-10 -17.5t-7 -27t-4.5 -20z" />
    <glyph glyph-name="Adieresis" unicode="&#xc4;" horiz-adv-x="450" 
d="M382 999q33 -7 42 -22.5t-1 -45.5q-6 -19 -24 -48.5t-32 -31.5q-19 -1 -27.5 38t2 78.5t37.5 38.5zM326 945q4 -33 -23 -75q-28 -43 -50 -22q-9 9 -16 30q-7 19 -4.5 59.5t15.5 56.5q11 13 26.5 13.5t28 -8t20 -24t3.5 -30.5zM196 369v-14q39 3 76 18q25 11 26 12
q3 6 0 33q-1 12 -9.5 66t-8.5 83l3 3q-5 13 -7 19q-5 -12 -10.5 -33t-13 -35.5t-22.5 -25.5q7 -14 2.5 -32t-12.5 -30.5t-16 -30.5t-8 -33zM116 85q-1 0 -10.5 -14l-21 -29.5t-15.5 -17.5q-20 -13 -44 -5t-21 35l7 4q9 27 19 81.5t17 77.5q1 5 5 38t9.5 59t13.5 25q5 5 12 8
q2 38 14 78t32.5 92t28.5 75q1 5 7 24l9.5 29.5t11 30.5t13.5 32.5t15 29.5t18 27.5t19.5 21t23 15.5t26.5 5q6 0 15 2.5t17 2t18 -7.5q27 -18 37 -71q14 -68 -3 -110q14 -28 19 -92.5t6 -71.5q15 -79 49 -129q-3 -7 -10.5 -20.5t-8.5 -16.5l16.5 -60.5t17 -66t10 -59
t2.5 -66.5q-72 -84 -114 -23q-10 14 -18 47t-10 37q-2 5 -6.5 15t-6 15t-0.5 13t7 16v5q-1 27 -2.5 45t-9.5 42t-22 28q-13 4 -41.5 -9.5t-39.5 -13.5q-10 -9 -36 -12.5t-36 -14.5q-20 -21 -24.5 -74.5t-14.5 -71.5z" />
    <glyph glyph-name="Aring" unicode="&#xc5;" horiz-adv-x="483" 
d="M345 917q14 0 22 11t4 22.5t-18 14.5q-20 3 -27 -19q-6 -22 11 -28zM266 905q0 6 -0.5 23.5t0 23.5t1.5 20t3 20.5t6 18t10 18.5t15 15.5t21 15.5q19 -6 37 -14.5t37 -21.5t31 -28.5t17.5 -35t-3.5 -40.5q-9 -25 -34.5 -47.5t-50.5 -25.5q-10 -2 -20 0.5t-16.5 5
t-15.5 10.5t-12.5 12l-13 15.5t-12.5 14.5zM223 363q0 -6 1 -9q8 0 25.5 -0.5t25 -0.5t20 1.5t18 5.5t11.5 10.5t8 17.5t2 26q-1 14 -16.5 71t-9.5 79q-2 8 -4 17q-4 -9 -14 -46.5t-26 -50.5q1 -18 -9.5 -39l-21 -42t-10.5 -40zM374 156q-10 110 -30 116q-10 3 -29 -5
l-39 -16.5t-32 -6.5q-7 -3 -20.5 -7t-22.5 -8.5t-16 -13.5q-6 -7 -10 -20t-7.5 -31t-5.5 -24q0 -2 -2 -7q-6 -25 -11.5 -40t-16 -39t-25.5 -36.5t-34 -12.5q-21 0 -30 11t-7.5 30.5t6 36.5t12.5 39t9 27q3 10 9.5 29.5t10.5 35t5 30.5q1 5 0 17.5t-1.5 24t0.5 23.5t6 19.5
t15 7.5q7 6 14 6q2 57 24 117.5t53 127.5t44 110l9 27t11 26t14 23.5t16.5 18t20.5 11.5t25.5 2t30.5 -8q30 -14 44.5 -45t13.5 -64t-3 -67q7 -13 11.5 -29t6.5 -38t2.5 -33.5t0 -39t-0.5 -31.5q0 -36 10.5 -62.5t35.5 -63.5q-1 -3 -23 -37q4 -17 16.5 -52.5t17.5 -54.5
q3 -13 6 -43t7 -46q2 -4 6 -16.5t5.5 -21.5t1.5 -18q-17 -16 -28.5 -24.5t-26.5 -14.5t-29 -1t-27 21q-20 23 -41.5 75t-1.5 65z" />
    <glyph glyph-name="AE" unicode="&#xc6;" horiz-adv-x="758" 
d="M521 531l1 1zM451 496v-1v1zM410 511q0 13 1.5 30.5t2.5 35t1 30.5q-48 -64 -83 -152t-35 -161q6 -1 28 -5.5t33.5 -6.5t29 -0.5t28.5 8.5q-13 10 -12 36.5t8 53.5t14 39q-14 16 -14 34.5t10 36.5q-12 6 -12 21zM392 63q1 34 15 136q-11 7 -57.5 11.5t-60.5 -3.5
q-9 -5 -12 -22.5t-3 -40.5t-3 -33q-16 -56 -51 -84.5t-78.5 -20.5t-79.5 55q-21 28 -30.5 90t10.5 110t72 31q26 -8 36.5 -26.5t9.5 -41.5t-5 -47t-3.5 -50t10.5 -43q23 39 35.5 94.5t15 102t14 102.5t32.5 97q13 23 27 57l28.5 66t28.5 57q27 45 59.5 56.5t96.5 10.5
q6 0 22.5 0.5l34 1t41.5 1t46 -1t44.5 -4t40.5 -7.5t31.5 -12t19.5 -18t3 -25q-3 -13 -15.5 -20.5t-32 -9.5t-36 -2t-37 1t-27.5 1h-21.5h-22t-19.5 -1t-18 -3.5t-14.5 -7t-12.5 -12t-6.5 -18t-2.5 -24.5q-2 -2 2.5 -7t9 -9.5t3 -10.5t-11.5 -10q-10 -14 -11 -47t-5 -44
q3 -3 8.5 -5.5t13.5 -3l15.5 -1t20 0t20 1t22.5 2.5q59 11 105.5 0t28.5 -58q-4 -11 -15 -17.5t-28 -8t-30.5 -2t-33.5 0.5t-25 1q-9 0 -23.5 0.5t-23 1t-21 -0.5t-21 -3.5t-18.5 -7t-18 -12.5t-16 -20h5l-10 -10q-1 -14 7.5 -30.5t12.5 -27t-4 -35.5q4 -10 4 -15t-2 -15
t-2.5 -15t2 -36t-0.5 -34q27 -5 61 -6t60 -0.5t61 -1.5q19 -1 31.5 -6t21 -18t12.5 -22.5t12 -32.5q-21 -5 -42 -7.5t-42.5 -2.5t-39.5 0.5t-43 1t-42 1.5q-12 0 -33 -1.5t-33.5 -2t-27.5 2.5t-23 10t-13.5 22t-4.5 38z" />
    <glyph glyph-name="Ccedilla" unicode="&#xc7;" horiz-adv-x="450" 
d="M391 282v10q4 6 9 16.5l9 19.5t10 17.5t14 13.5t19 5q20 0 26.5 -12.5t-2 -27t-24.5 -19.5l-1 12v-12q10 -13 -12 -32q-24 -22 -38 -9q-6 5 -7 15zM183 -185q0 14 -4.5 29.5t-14.5 17.5t-21.5 -9.5t-18.5 -11.5q-8 1 -14 3t-9 7.5t-4.5 9t-3 14t-2.5 14.5q9 12 26 53
q-3 1 -9 3.5l-9.5 4t-8 4.5t-7 7t-3.5 10q-16 17 -22.5 24.5t-15.5 21.5t-15 30q-13 31 -13 40t13 36q-9 6 -13 15.5t1 19.5q-7 6 -8 22t0 38t1 28q-2 18 2 33.5t11 35t10 33.5q5 24 6 67.5t4 62.5q2 12 10 23t16.5 18.5t15.5 18.5t7 22h9h1l-9 4q3 10 7.5 20t10.5 18.5
l11.5 16l12.5 16.5t12 18q1 2 14 33t28 41q31 22 90 8t72 -49q8 -21 -7.5 -86.5t-36.5 -74.5q-8 -4 -14.5 -4t-11 3t-8.5 8t-6 12t-3.5 14t-2.5 15.5t-1.5 15t-1 14.5t-1.5 11q-7 -5 -13.5 -13.5t-10.5 -15t-10.5 -19l-8.5 -16.5q-4 -11 -13 -13q-5 -9 -18 -28t-19.5 -34.5
t-5.5 -32.5h-6q-13 -23 -16.5 -48.5t-1.5 -46.5t-3 -50q-1 -7 -10.5 -46t-7.5 -63q9 -115 40 -136q9 -6 18 -7t18 2.5t16.5 8l17 10.5t16.5 9q-2 6 0 10.5t6 7.5t10 3l1 1h2q8 4 24 34t32 29q2 4 3 16.5t5 20t14 9.5q4 32 36 55l8 -13q4 6 23 14q19 -11 11 -41
q-7 -23 -21 -23q-8 1 -14 8q-2 -5 -5 -8q6 -28 -14 -43q0 -6 -0.5 -13t-3 -17t-7.5 -12t-14 1q-5 -32 -52 -84v-4h-4q-5 -5 -11 -10v-9l-8 -1q-31 -61 -76 -63q-2 -7 -4 -19q21 -4 62 -52q49 -57 30 -73q-3 -2 -7 -3q-3 -62 -52 -89.5t-111 -12.5q-44 11 -39 53q4 32 26 45
q24 14 33 -26q0 -2 1 -5q22 1 42 17t20 37z" />
    <glyph glyph-name="Egrave" unicode="&#xc8;" horiz-adv-x="393" 
d="M151 878q-1 4 -5 13t-5.5 14t-2.5 12t1.5 13t8.5 12q45 -19 73.5 -47t54.5 -72q-6 -43 -48 -36q-47 8 -77 91zM75 168l2 1h-2v-1zM143 615h-1l-4 -3q1 -12 3 -27t4.5 -30t3.5 -27q2 -19 -2 -52.5t-4 -46.5q0 -24 14.5 -31.5t35.5 -2.5t45 6t43 -6q37 -21 27 -51t-48 -41
q-9 -3 -49.5 -1.5t-45.5 -7.5q-11 -8 -9 -33t-8 -36q9 -6 10 -20t-2 -27.5t-5.5 -29.5t-0.5 -25q3 -2 6 -5t4.5 -7l2.5 -6.5t1.5 -8.5t1 -8t0.5 -8.5v-8.5q22 -4 77.5 -2t72.5 16q13 -1 21.5 -2t22.5 -3.5t22.5 -7t16.5 -13t9 -19.5q3 -14 -2.5 -24t-17 -15.5t-24.5 -9
t-30.5 -4.5t-30 -0.5t-28.5 1t-20 0.5q-14 0 -45.5 -2.5t-56 -4t-52 1.5t-43.5 12q-15 8 -23.5 21t-11.5 31t-3.5 31.5t0.5 36.5t1 31h1q2 18 7 27q-3 12 -3 24q-6 3 -7.5 20t-0.5 35.5t2.5 38.5t1.5 24l-3.5 38t-2.5 42q0 29 5.5 87t5.5 89q-8 7 -10.5 24.5t0 38t8.5 40
t16.5 34t22.5 17t30 -1t34 -9t35 -10t31 -4.5q15 11 69.5 12.5t105.5 -13t51 -42.5q6 -6 6 -14q-3 -11 -0.5 -16t-0.5 -9t-16 -10q-14 -7 -79 -11q-14 -1 -27.5 0.5t-33 6t-26.5 5.5q-17 3 -50.5 3.5t-49.5 2.5z" />
    <glyph glyph-name="Eacute" unicode="&#xc9;" horiz-adv-x="425" 
d="M204 827q20 34 55.5 65t73.5 47l4 -7q10 -3 10.5 -14t-9.5 -14l-13 -32.5t-15.5 -35t-19.5 -27t-31 -19.5q-21 -9 -38 -1t-19 32zM224 0q-20 2 -54 -3.5t-56 -8.5t-51 5q-17 7 -27 19.5t-13 30t-3 32t2 36t2 31.5q-3 1 -1 29.5t2 29.5q-11 9 -12.5 37.5t3 68t4.5 45.5
q0 18 2.5 57.5t2.5 59.5q0 8 -2.5 40.5t-3 63t1 64.5t9.5 57.5t23 29.5q4 9 15.5 9.5t22.5 -4t24.5 -9.5t18.5 -5q9 -3 46 -1t46 2h1q23 0 48 -1.5t72.5 -7t69 -19.5t5.5 -35q35 -36 -43 -44l-50 -2q-98 4 -185 16q5 -9 2.5 -58t-2.5 -59q0 -5 -1.5 -21.5t-2.5 -31.5
t0.5 -29.5t6.5 -19.5q12 -10 35 -9t45.5 7t45 3t33.5 -20q9 -13 10 -24t-6 -18.5t-16.5 -12.5t-24.5 -8t-25.5 -4.5t-24.5 -2.5t-18 -2q-21 -3 -31 -12t-11 -18.5t-2 -28.5t-6 -33q8 -7 9.5 -19t-1.5 -23.5t-6 -25t-2 -21.5q3 -2 5.5 -5t4 -5.5t2.5 -6.5t1.5 -6.5t1 -7
t0.5 -7v-7.5v-7q10 -2 31.5 1.5t41 8t38.5 4t28 -8.5q5 6 12 10q16 0 31.5 -3.5t32 -11.5t21.5 -21t-1 -33q-18 -43 -177 -26z" />
    <glyph glyph-name="Ecircumflex" unicode="&#xca;" horiz-adv-x="397" 
d="M173 778q-17 0 -29 8t-11 24l9 7l4 -1q10 12 25 38.5t26.5 44.5t32.5 31t46 8q33 -6 59.5 -59t27.5 -92q-13 -10 -25.5 -10.5t-21.5 6t-18.5 18.5t-16 24l-14 26t-12.5 21q-6 -7 -17 -23.5l-20.5 -31.5t-21.5 -27t-23 -12zM213 609q-43 3 -64 6q0 -19 -1 -59t0 -72.5
t6 -57.5q1 -7 1.5 -12t0 -7t1 -3.5t2 -1t5.5 -0.5l10 -2q11 -2 26 0.5t26.5 5.5t26.5 2.5t28 -7.5q38 -21 26 -55q-3 -8 -8.5 -14t-10.5 -9t-15 -5.5t-14.5 -3t-16.5 -1.5t-15 -1q-4 0 -17 -0.5t-21 -1t-17.5 -4.5t-14.5 -11q-7 -10 -1 -38t-2 -40q18 -16 -2 -89q4 0 7 -1.5
t4.5 -4t2.5 -5.5t1 -7t-0.5 -8l-1 -8t-1.5 -7t-1.5 -6t-0.5 -4q27 -7 46 -6t50 4t47 2q9 9 14 12q17 -1 34 -5t34.5 -12.5t20.5 -23t-8 -35.5q-13 -21 -43.5 -23.5t-69.5 3.5t-54 4q-9 -1 -38.5 -5.5t-47 -6t-41.5 0t-40 8.5q-20 9 -32 28.5t-14.5 41.5t-4 46.5t0.5 43.5
l4 -1q8 18 13 25q-4 10 -6 20q-17 15 -8 109q0 4 5 13t5 14q0 4 -5.5 12.5t-5.5 13.5q-1 21 5 62.5t7 55.5q0 11 -2 44.5t-3 67t1 68t13 56t30 21.5q10 -9 23 -14.5t30.5 -8t30 -3.5t33 -1t27.5 -1q10 0 59.5 4t88 1t54.5 -18q20 -20 16 -44.5t-26 -35.5q-7 -4 -16 -6.5
t-20.5 -4t-22 -2t-24.5 -0.5t-23.5 0.5t-24.5 1.5t-22.5 2t-21.5 2t-17 2z" />
    <glyph glyph-name="Edieresis" unicode="&#xcb;" horiz-adv-x="455" 
d="M267 844q9 68 27 78q2 9 10.5 11t18 -0.5t18 -7t13.5 -9.5q9 -9 13 -17.5t1 -18.5t-6.5 -16.5t-11.5 -19.5q-12 -19 -25 -31.5t-25.5 -16.5t-21.5 8t-11 40zM163 835q1 19 2 28.5t5 26t10.5 24t18.5 12t28 1.5q15 -4 23 -7.5t10 -10.5t1.5 -10.5t-5 -15t-5.5 -16.5
q-2 -6 -6 -31t-10 -42t-18 -24q-23 -14 -38.5 12t-15.5 53zM73 724q20 -8 43.5 -12.5t44.5 -5t45.5 -1t46.5 -0.5q6 0 38 0.5t53.5 0t45.5 -8t34 -21.5q46 -72 -79 -79q-67 -3 -199 16h-1v-1q13 -92 9 -156q-1 -10 -3.5 -23t-3 -17.5t2 -10t10.5 -6.5t24 -1q6 0 29.5 2.5
t37.5 2.5t31.5 -5t26.5 -17q16 -24 6.5 -42.5t-35.5 -27.5q-12 -4 -54.5 -3t-51.5 -9q-10 -7 -13.5 -15.5t-2.5 -17t0 -22.5q0 -6 -2.5 -22t-2.5 -24t-2.5 -25.5t-3 -27.5t2.5 -24q3 -1 6 -3.5t5 -4.5t3.5 -6t2 -5.5t1.5 -7t1 -6.5t0.5 -7.5t0.5 -7.5q13 3 29.5 3.5t30 -0.5
t31.5 -2t30 -1q15 15 30 3q17 0 30 -1.5t28 -6.5t21.5 -16.5t2.5 -29.5q-3 -10 -11 -17.5t-21 -11.5t-26 -6t-30 -2t-29 0.5t-27.5 2t-20.5 1.5q-17 1 -55 -3t-69.5 -3t-52.5 11q-18 8 -29 27t-14 40.5t-4 45t0 41.5l5 -1q8 17 13 24q-10 16 -11 37t3 38.5t7.5 39.5t1.5 37
q-1 9 -10.5 25.5t-9.5 28.5q0 11 7 34.5t8 31.5q0 7 -3 13.5t-2 11t10 10.5q-3 19 -4.5 36.5t-4.5 49.5t-1.5 57.5t6 51t15.5 39t29 12.5z" />
    <glyph glyph-name="Igrave" unicode="&#xcc;" horiz-adv-x="653" 
d="M210 970q0 9 19 28q45 -18 69.5 -45t53.5 -79q-1 -25 -16 -32t-37 4q-7 3 -14 9t-14 15l-12.5 16t-12.5 19.5l-10 18l-10 18.5t-8 15q-8 5 -8 13zM92 731q42 0 71 -2q8 5 17 5.5t16 -2t16.5 -5.5t17.5 -3q1 0 10.5 5t14.5 4t10.5 -6t7.5 -6q20 3 43 3.5t37 0t42.5 -2
t39.5 -1.5q12 -1 55 2t57 -1q2 -1 5 -1q17 -3 25.5 -5.5t18.5 -11t12 -22.5q3 -15 -1.5 -25.5t-11 -16.5t-20.5 -9.5t-22 -4.5l-23 -3q-13 -16 -43.5 -14.5t-42.5 17.5q-46 -28 -66 -17q-5 -6 -4.5 -23t3.5 -32.5t6 -33t2 -24.5q0 -10 -3.5 -22.5t-7.5 -22t-7 -21t-3 -21.5
l1.5 -1.5t3 -3.5l1.5 -2q-1 -4 -1 -8q-4 -3 -5 -6v0q-14 -19 -27 -31q6 -6 1 -18.5t-3 -17.5q1 -6 8.5 -16t9.5 -14q-31 -43 -47 -75q5 -12 8 -24q9 -8 7 -19q9 -1 26.5 -3.5t23.5 -2l29 2.5q69 16 94 17q4 0 30 2.5t45 3t43 -0.5t40 -8t20 -20q19 -9 19 -23.5t-19 -25.5
q10 -8 9.5 -18t-10.5 -18q-32 1 -36 8q-7 -5 -14.5 -7t-13.5 -1t-13.5 1t-15.5 -1q-5 -1 -20 -7.5t-23.5 -9t-20.5 2.5q-16 -8 -49 -12t-50 5q-6 -4 -29.5 -7.5t-30.5 -5.5q-9 -4 -26.5 -8t-25.5 -6q-23 -8 -68.5 -14t-68.5 -13l-32.5 -8.5t-34.5 -5t-35.5 2.5t-27.5 16
t-18 33q-5 18 7 31.5t35.5 21t48 12.5l49.5 10t35 11q2 94 18 177q3 13 4.5 35.5t2.5 39t7 35.5t17 32q-10 15 -11 29.5t4.5 38.5t6.5 32q7 37 0.5 49.5t-42.5 15.5q-5 1 -21 2.5t-23 2.5t-19.5 3.5t-21.5 7.5t-17 12q-22 22 -30 55q-10 36 24 36z" />
    <glyph glyph-name="Iacute" unicode="&#xcd;" horiz-adv-x="679" 
d="M436 992q14 -20 -6 -63t-42 -63q-15 -14 -33 -20.5t-33 1t-16 31.5q27 46 54 74.5t70 47.5zM119 -17q-22 0 -48.5 16.5t-37.5 38.5t7 45q22 23 83 30t80 19q1 8 1.5 47t2 64t5.5 47q2 6 5.5 35t9 47t15.5 27q-10 12 -8 26.5t11 27.5q-6 13 -2.5 37t10 45.5t7.5 44
t-10 32.5q-6 5 -19.5 6.5t-30 0.5t-21.5 0q-31 3 -48 10.5t-31 30.5q-10 0 -19.5 27.5t-2.5 37.5q9 14 46.5 14t49.5 -3q17 6 30 4.5t34.5 -5.5t31.5 -4q61 3 107 1q8 0 24 4.5t23 3.5t18 -7t17 -7q28 -7 96 -8q10 8 22.5 6.5t22.5 -8t17 -17.5t8 -21q0 -20 -8 -32
t-20.5 -16t-28 -5t-30.5 2q-12 -11 -41.5 -12.5t-40.5 10.5q-31 -22 -64 -20q0 -13 2 -31t3.5 -34.5t0.5 -29.5q-1 -14 -5.5 -29.5t-10.5 -32t-7 -28.5q7 -3 11 -10v-9l-8 -8h-5q-16 -21 -29 -32q6 -12 7 -35.5t1 -28.5q-21 -29 -33 -97q7 -3 12 -9t3 -13q3 2 6.5 1.5t6 -2
t5.5 -3t5 -1.5q22 -5 37 -3q19 1 59 12.5t63 12.5q13 0 40.5 -3t42.5 -2q4 0 16.5 1.5t20 1.5t18 -1.5t17.5 -7t10 -15.5q14 -5 22 -12.5t5 -17.5t-19 -19q16 -8 15 -25q-6 -8 -14 -9t-17 1q-1 -1 -4 -1q-1 -2 -6 -5q-9 1 -14 6q-11 -10 -20.5 -11t-22 3t-22.5 4
q-6 0 -15 -4l-17 -7.5t-16.5 -3.5t-14.5 6q-11 -5 -30.5 -11t-40 -8.5t-26.5 5.5q-19 -6 -64.5 -15t-48.5 -4q-7 -5 -15 -8.5t-16.5 -5t-16.5 -2t-18 -1.5t-18 -3q-12 -3 -50.5 -20.5t-57.5 -17.5z" />
    <glyph glyph-name="Icircumflex" unicode="&#xce;" horiz-adv-x="709" 
d="M340 362zM339 368l1 -3v2zM460 940q3 -7 11.5 -23t13 -25.5t8.5 -24t4 -27.5q-13 -16 -26 -16.5t-25 12.5t-21.5 28t-19 33t-13.5 23q-7 -7 -30 -45t-37 -45q-22 -10 -46 11q-18 17 -7 25q3 2 8 3q9 9 22.5 26l24.5 31.5t25.5 30.5t27.5 23.5t26.5 9t27.5 -11t26 -38.5z
M84 91q14 4 38 15.5t38 14.5q9 3 33 4.5t35 5.5q-5 76 4 117l6.5 25.5t7.5 31.5t3 26q1 6 2 28.5t2 35.5t4.5 30.5t10.5 29.5q-6 15 -6.5 32.5t3.5 47t5 30.5q3 35 -2.5 43t-37.5 9h-15h-14t-12 0.5t-12 1t-11 2t-11 4t-10 5.5t-10.5 7t-9 10l-9.5 13q-36 55 -10 81
q8 7 24 8t31.5 -2.5t34.5 -7t28 -4.5q68 -1 109 -4q5 0 21 -1.5t21.5 -1.5t20.5 1q7 1 23.5 7t24.5 7q21 1 66 -9.5t65 -11.5q23 17 49 -11.5t15 -55.5q-15 -32 -79 -24q-9 -14 -22.5 -15t-33 6t-26.5 8q-4 -7 -23.5 -11t-32.5 -4l-4 -4q0 -12 2 -36.5t2.5 -38t-2.5 -36.5
q-2 -14 -12.5 -39.5t-12.5 -40.5q5 -4 8 -9q0 -7 -2 -13l2 -3l-8 -8l-4 2l3 -3l-27 -24q4 -5 1 -18t-2 -19q2 -5 8 -15.5t6 -11.5q-8 -12 -21.5 -38.5t-22.5 -38.5q1 -6 3 -12q11 -9 12 -27q7 0 14 -9q61 -4 80 -2q16 2 45.5 13.5t45.5 13.5q11 1 27 -0.5t27.5 -3t27.5 0.5
q6 1 18 3.5t18 2.5t14 -1.5t14 -8.5t10 -20q12 -3 21 -7.5t15 -11t1.5 -14.5t-20.5 -16q25 -14 7 -29q-17 -15 -40 -5l-6 3q-18 -11 -57.5 -11t-61.5 -2l-24 -8t-32 -10t-29.5 -2.5t-22.5 11.5q-13 -12 -78 -29.5t-79 -8.5q-26 -1 -74.5 -24.5t-71.5 -23.5q-33 0 -67 34
q-38 36 -16 60q9 9 27 14z" />
    <glyph glyph-name="Idieresis" unicode="&#xcf;" horiz-adv-x="655" 
d="M453 942q0 -13 -12.5 -36t-30 -42.5t-30.5 -20.5q-16 -1 -22.5 30t-0.5 64.5t19 38.5q6 8 18.5 6.5t25.5 -7.5t23 -15.5t10 -17.5zM308 370l-2 -1h3zM293 367l-3 -1l4 -1q-1 1 -1 1.5v0.5zM294 365h-4l-1 -1h3h2v1zM335 943q1 -5 1 -8l1 -1q-11 -89 -36 -107
q-14 -10 -26 -5.5t-20 16.5t-12 29q-7 20 0 58t28 49q20 11 40.5 0.5t23.5 -31.5zM662 125q23 -13 9.5 -29t-33.5 -8q-7 2 -12 8q-12 -11 -27.5 -14.5t-30.5 -1.5t-32 3t-33 0q-8 -1 -24.5 -7t-29.5 -10t-29 -5.5t-24 6.5q-3 0 -6 2q-42 -20 -130.5 -37t-127.5 -33
q-21 -9 -30 -11.5t-21 0.5t-29 15q-52 36 -49 61q3 22 38 34.5t80.5 20t58.5 14.5q-3 80 4 124q2 13 12 42t11 43q0 3 -5 11t-5 11q-1 7 0 12t3.5 10.5t3.5 10.5q1 4 3 14.5t3 16.5t4 14t8 14q-12 28 -7 77q1 5 6.5 26t3.5 30q-2 13 -13 20.5t-22.5 9.5t-31 4t-28.5 4
q-37 8 -58 28.5t-15 56.5q1 6 1.5 8.5t1.5 6t1.5 5t2 3t2.5 2t4.5 2t5 1.5t6.5 1t9 2q54 11 72 -2q18 -1 47.5 -4.5t49.5 -5.5t49 -3.5t48 2.5q4 0 13.5 5.5t13.5 5.5q12 1 21.5 -4t17.5 -6q95 -12 103 -12q14 17 43.5 5t34.5 -33q5 -25 -10.5 -41t-38 -18t-41.5 1
q-11 -22 -44.5 -20.5t-43.5 22.5q-20 -11 -55 -15q7 -84 1 -116q-2 -12 -14 -40.5t-12 -46.5l9 -6q-11 -23 -30 -44q8 -4 2 -29.5t-1 -36.5q-8 -11 -15 -38t-20 -42q0 -3 -1 -6q17 -11 19 -28q10 2 18.5 -4.5t13.5 -7.5q12 -2 52 4q13 2 33.5 7l38.5 9t34 3q15 0 47.5 -1.5
t50.5 -1.5q7 1 16.5 0t18 -2t16 -6.5t10.5 -14.5q17 -8 18.5 -22t-14.5 -25z" />
    <glyph glyph-name="Ntilde" unicode="&#xd1;" horiz-adv-x="482" 
d="M337 906q51 0 59 -46q7 -35 -12 -57q-21 -24 -44 13q-5 7 -9 16q-16 -3 -50.5 -20.5t-57.5 -18.5q-33 -1 -67.5 27t-19.5 61q5 11 10.5 14.5t9.5 1.5t11 -8t11 -9q7 -3 10.5 -6.5t4.5 -5t4.5 -2.5t11.5 -1q21 -1 63.5 20t64.5 21zM100 321q1 1 1 2q-1 4 -8 19v-1
q3 -13 7 -20zM65 393h1h-1zM64 393h1h-1zM23 106q3 8 2 14t-3 9t-4.5 8t-2.5 11q-1 9 0.5 25t2.5 22q0 14 -5.5 40t-5.5 36q-1 15 6 34.5t8 31.5q0 10 -4.5 24t-3.5 24t11 21q-1 1 -4 20.5t-4.5 39t-1.5 23.5q1 7 6.5 19.5t5.5 19.5q1 4 -3.5 10t-6 10t4.5 13q1 10 2 34
t2.5 41.5t6.5 40.5t13 37t24 23.5t38 8.5q18 -1 35 -13t28.5 -27t23.5 -39.5t18 -41.5l15 -43t12 -34q15 -2 22.5 -13t3.5 -26q7 -10 11 -21l15 14v-41h-2v-2q11 -9 14 -28q3 -2 5 -7q7 -3 11.5 -10.5t6.5 -15l4.5 -17t5.5 -14.5q5 -11 18 -31l18 -28q1 4 1 7q-4 11 -4 16.5
t2.5 18l3.5 17.5q-13 12 -11 45.5t14 44.5q-4 4 -8 9q2 23 5.5 51.5t6.5 49.5l8 53.5t7 49.5q1 4 2.5 15t2.5 17.5t3 17.5t4.5 17.5t6.5 15t9 12t12 6.5t16 1t20 -7q24 -13 26 -47t-8 -82.5t-10 -60.5q-2 -85 -38 -132l5 -11q-2 -3 -3 -7l-1.5 -6t0 -7.5t0.5 -7.5l2 -3
l-2 -2q1 -9 3 -17h1q2 -13 -2.5 -25.5t-16.5 -13.5q6 -8 5 -23l-5 -2q3 -25 2 -27q7 -11 9 -25t1 -26t0 -27q2 -11 12 -44t8 -56q-1 -3 -2 -9q-2 -20 -3.5 -29t-6 -23.5t-11 -22.5t-18 -16t-26.5 -12q-10 11 -17 27t-13 36.5t-11 30.5q-3 7 -10.5 27.5t-13 34t-15 29
t-19.5 22.5l4 11l-11 -2q-7 27 -32.5 75.5t-31.5 80.5q-16 -8 -26 11t-16 51.5t-6 33.5q-3 -4 -14 -13l-21 42q-10 -26 -10 -79t-4 -72q5 -10 7 -20.5t1.5 -16.5t-2 -19t-2.5 -19q-1 -10 0.5 -20.5t3.5 -22t2 -20.5q-1 -48 -19 -77q5 -16 7 -39.5t0 -49t-14 -43t-34 -17.5
q-25 1 -40.5 24t-16 50t2.5 49z" />
    <glyph glyph-name="Ograve" unicode="&#xd2;" horiz-adv-x="498" 
d="M467 603q0 -2 2 -4l0.5 0.5l0.5 0.5zM307 855q7 -13 13 -23q-3 -56 -48 -29q-39 24 -69 75q-22 37 -15 52q-1 13 10 24q75 -33 109 -99zM444 514q0 23 -8 41.5t-23.5 40t-22.5 35.5q-5 4 -14.5 10.5t-17 11l-17.5 10.5t-18.5 10t-18 6.5t-18.5 2.5t-18 -3q-6 -3 -12 -7
t-11 -8t-10 -11l-9 -12.5t-9 -13.5t-8 -13.5t-7 -14.5t-6 -14l-5.5 -13.5t-5.5 -11.5q-29 -67 -40 -141q-3 -20 -4 -38.5t0 -47t1 -38.5q3 0 6.5 -8.5t6 -18.5t4.5 -20t3 -12q17 -39 58 -103l2 2v-6l9 -14l2 2q3 -1 11.5 -5.5t14 -7l14 -6.5t15 -5.5l14.5 -3.5t15 -2t13 2
q22 7 49.5 40t46.5 64q37 61 43.5 151t-13.5 158q-6 1 -12 7v5zM32 174l3 2q-24 42 -27.5 89t6.5 92q4 28 5 74.5t6.5 83.5t23.5 71q37 74 61 102q22 27 42 33t59 6q19 0 64.5 6.5t70.5 4.5q27 -3 38 -9t21 -20t21 -23q18 -18 27.5 -31t18.5 -35l5 -2l3 -11h-4q4 -6 9.5 -18
l9 -19.5l8 -17.5t7.5 -19.5l6 -19.5l2 -2l-2 -1q6 -23 13 -44q-4 -12 -5 -26t1.5 -31.5t4.5 -29t7 -31.5t6 -27q-2 -7 -7 -12q-8 -36 -15 -45v-9h-3q-2 -90 -68.5 -169t-155.5 -98q-56 -13 -99.5 5.5t-84.5 64.5q-12 14 -34.5 57t-43.5 59z" />
    <glyph glyph-name="Oacute" unicode="&#xd3;" horiz-adv-x="511" 
d="M309 898q31 32 73 50l10 -13l-5 -15l-4 -2q-5 -11 -13.5 -33l-14.5 -37t-19 -30.5t-30 -21.5q-46 -16 -50 36q14 26 53 66zM457 517q0 4 3 9q-2 29 -37 74.5t-65 64.5q-78 51 -130 -47q-51 -95 -69 -177q-10 -43 -6 -79q1 -6 4 -21t4.5 -25t-0.5 -22t-10 -18
q2 -3 6.5 -8.5t6.5 -9t4.5 -9t2 -10.5t-3.5 -10q14 -17 35 -49.5t31 -46.5l2 3v-6q10 -12 16 -20h1l2 -5q13 -2 33 -8t29.5 -8t25 2t31.5 17q27 20 44.5 49.5t34.5 71.5q31 73 29 169q0 11 -14.5 59t-9.5 60zM34 168l8 4q-21 82 -21 135q-4 7 -6.5 17.5t-2 24.5t1.5 27
t3.5 30t4.5 28l4.5 26t3.5 19q21 114 92 207q15 20 36.5 30.5t37.5 12.5t46 3.5t45 3.5q76 9 108 -8q11 -6 23.5 -20.5t19.5 -19.5q19 -16 28 -29.5t16 -34.5q2 0 10 -3q2 -10 -3 -17q23 -55 30 -81q1 0 16 -8l-10 -10q2 -5 4.5 -12.5l5 -14.5l4.5 -13q-6 -9 -7.5 -21t0 -25
t4.5 -25t6 -26t4 -23q7 -7 6.5 -17.5t-7.5 -17.5q-3 -28 -10 -45l3 -5l-2 -2l1 -4l-5 -2v-4h-7q0 -12 -2.5 -25t-4.5 -22.5t-8 -24t-9 -21t-12 -23l-11 -20t-13.5 -22t-12.5 -20.5q-20 -33 -62 -54.5t-88 -29.5q-37 -6 -70.5 2.5t-56.5 24t-56 42.5q-17 15 -41.5 56.5
t-43.5 56.5z" />
    <glyph glyph-name="Ocircumflex" unicode="&#xd4;" horiz-adv-x="517" 
d="M387 812zM308 971q30 0 54.5 -28t36 -63t11.5 -64q-27 -48 -78 47q-3 5 -9 16q-10 19 -13 23q-9 -9 -29.5 -47.5t-32.5 -47.5q-18 -13 -39.5 -2.5t-19.5 34.5q9 10 31.5 45.5t44.5 61t43 25.5zM350 672q-2 0 -5 2q-16 9 -25 11.5t-26 3.5q-12 -9 -22 -20t-19 -27
l-14 -25.5t-14 -30.5t-12 -27q-4 -11 -18 -39t-22 -45.5t-15.5 -42.5t-8.5 -45q17 -18 2 -34q0 -6 3.5 -34.5t5.5 -35.5q1 -4 12.5 -20t7.5 -30q2 1 89 -127q3 -1 18 -4t17.5 -3t14.5 -2t14.5 -1.5t12 1t13 3t11.5 5.5t13.5 8l12.5 11.5l15 14.5q48 55 70 166q13 71 -8 175
q-1 4 -4.5 28t-7.5 36q-6 18 -26.5 47.5t-26.5 42.5l-26.5 18t-31.5 20zM365 -3q-30 -11 -58.5 -12.5t-56 6.5t-51.5 20.5t-51 32.5q-25 18 -51.5 66t-49.5 66l6 3q-39 107 -30 216.5t62 209.5q2 3 8.5 16.5t9.5 18.5l9.5 16l10.5 17.5t10.5 15.5t12.5 16q25 28 43 32
q15 2 19 0t10.5 -6t14.5 -5q16 0 53.5 8t58.5 5q19 -2 35.5 -9t35 -18.5t31.5 -17.5q9 -7 15 -13.5t10 -14l6.5 -12.5t6.5 -15.5t7 -17.5l2 -1l1 -3l2 -3l-1 -3q3 -7 11 -21t11.5 -21.5t8 -20t6.5 -24.5l10 -5l-8 -8q4 -24 11 -42q-8 -11 -9 -24t2 -23t6.5 -24t3.5 -25
q7 -3 9.5 -30.5t-1.5 -31.5q-9 -36 -18 -47v-6h-6q-2 -81 -49.5 -156.5t-118.5 -104.5z" />
    <glyph glyph-name="Otilde" unicode="&#xd5;" horiz-adv-x="508" 
d="M180 917q15 0 23 -8.5t10 -17t12.5 -13t31.5 4.5q7 2 20 7.5l20 8.5t20 7t21 3.5l23 -1.5q30 -5 49 -31.5t8 -55.5q-6 -19 -15.5 -24t-18 1.5t-16 17.5t-13.5 24q-13 -3 -28 -11l-27 -15t-25.5 -12.5t-29.5 -5.5t-33 7q-18 8 -40 48q-30 56 -2 65zM343 676q-5 3 -13.5 7
l-13.5 6.5t-13 5t-17 2.5q-15 -12 -28.5 -30t-21 -32t-18.5 -38.5t-17 -35.5q-22 -44 -38 -95t-16 -92q5 -5 6.5 -15t0.5 -25.5t-1 -16.5q1 -10 2 -17t2 -10.5t3.5 -10.5t4.5 -15q20 -72 66 -126l8 7v-17q2 -3 4 -4l5 -4l7 1l1 -7q11 -1 26 -3.5t22 -3.5t18 -2t17.5 1.5
t15.5 7t17.5 12.5t19.5 21q51 60 75 152q20 74 -1 187q-5 27 -16 51.5t-28 53.5t-26 49q0 2 -12 10.5t-24.5 16.5t-16.5 9zM76 118q-3 6 -9 21.5t-12 25t-15 16.5l5 4q-3 7 -6.5 17.5l-8.5 26t-8 31t-5 30t-0.5 26t6.5 16.5q-3 140 28 226q12 34 27 65t40.5 64.5t52.5 44.5
q17 8 57.5 8.5t45.5 0.5q87 10 128 -17q25 -16 48 -42.5t35 -54.5h2l1 -3l3 -2v-7h-1q15 -22 23 -43.5t15 -50.5t13 -47q-3 -7 -3.5 -13.5t0 -10.5t2 -11.5t2.5 -11.5q2 -19 6 -84l2 -1l-2 -2l1 -6q4 -5 3 -14q-4 -7 -9 -26.5t-12 -27.5v-6l-7 -1q-6 -66 -60 -164
q-21 -38 -50 -58t-77 -38q-69 -25 -148 12.5t-113 106.5z" />
    <glyph glyph-name="Odieresis" unicode="&#xd6;" horiz-adv-x="527" 
d="M356 949q32 2 47 -10.5t13.5 -32t-10.5 -41t-24 -38.5q-38 -46 -51 0q-12 41 3 92q9 29 22 30zM312 885q-1 -1 -2 -1q6 -37 -23 -75q-27 -35 -47 -14q-11 11 -16 36q-3 12 -3.5 29t1.5 35.5t8.5 34.5t16.5 22q29 14 51 -11.5t18 -53.5zM483 351q0 10 1 36t0.5 40
t-3.5 34.5t-10 37.5q-12 4 -11 13.5t11 14.5q-9 18 -31.5 51.5t-31.5 52.5q-1 14 -47.5 31.5t-65.5 18.5q-15 -11 -27.5 -25.5t-21 -31.5t-15.5 -32.5t-15 -35t-15 -33.5q-23 -44 -33 -77.5t-9 -77.5q0 -11 3.5 -30.5t3.5 -28.5q0 -7 0.5 -10.5t0.5 -7.5t0.5 -6.5t1 -4.5
t1.5 -5t1.5 -5t2 -7.5t2.5 -8.5q6 -19 17 -39.5t20 -33.5l26.5 -36.5l25.5 -34.5q11 -2 26 -7t22.5 -7t20 -1t26.5 7q18 8 32.5 22t23.5 27t20 33q49 87 47 167zM523 176q-69 -196 -251 -191q-47 1 -81 18.5t-70 55.5q-12 14 -34.5 53t-42.5 55l7 4q-26 80 -27.5 171
t23.5 180t76 155q17 22 32.5 33.5t33 15.5t46.5 6q13 0 40.5 3t45.5 4t41.5 -1.5t41.5 -10.5q15 -7 37.5 -26t33.5 -34q5 -6 12 -27t13 -27q8 -26 28.5 -76t28.5 -74q-9 -15 -10 -38t2 -38t9 -41q2 -8 3 -11q7 -8 3.5 -16t-13.5 -10q-1 -4 -1.5 -19.5t-3.5 -27t-11 -16.5
q-1 -39 -12 -70z" />
    <glyph glyph-name="Oslash" unicode="&#xd8;" horiz-adv-x="397" 
d="M342 764q-4 13 -18 40q-4 -24 -19 -66.5t-19 -62.5q-2 -12 -3.5 -41t-6.5 -50.5t-18 -34.5q2 -26 -21 -56q6 -22 1.5 -49t-17.5 -54t-28 -40l8 -8q1 -11 4.5 -30.5t4.5 -28.5q34 -25 58.5 -22.5t44.5 41.5q40 77 40 108q-6 7 -6.5 19t3 31.5t3.5 20.5q5 50 1 114
q-2 30 -1 56t-1 58t-10 55zM161 402q4 3 4 4q-1 1 -2 3q-1 -4 -2 -7zM255 887q-22 17 -45 -21t-14 -66q2 -6 5 -10q-13 -19 -20 -45.5t-11.5 -61t-8.5 -50.5q9 -16 6 -37.5t-11.5 -40.5t-6.5 -38.5t21 -30.5q-11 -12 -22 -28q7 -1 17 -6q26 82 53.5 237.5t36.5 197.5z
M29 638q6 11 6 21.5t-3 23.5t-3 22q-1 23 10 69q3 13 5.5 21.5t6 18t8 17t10.5 15t15 15.5q-11 48 15.5 70t68 18.5t78.5 -5.5q19 -2 26 -2q1 4 5.5 19.5t7.5 21t9 14.5t14.5 11t20.5 -1q17 -3 25 -12.5t8 -24t-2 -26t-8 -27.5q30 -30 49 -76t26.5 -104.5t10 -97.5t3.5 -98
q0 -47 -8 -96t-21.5 -107.5t-18.5 -93.5q-9 -1 -43 -2q-6 -20 -16.5 -32.5t-24.5 -19.5t-35 -9q-10 -1 -30.5 2t-32 3.5t-25.5 -6.5q-17 -14 -20.5 -51t0 -86t2.5 -60q-29 12 -64 23q2 14 5 47t4 46.5t1 40.5t-2.5 44.5t-8.5 41.5t-16 47q-2 4 -7 15q-17 38 -26 61t-20 61
t-10 70t13 59q-1 0 -2.5 0.5t-3.5 1l-2 0.5q-1 7 -5 30t-3.5 37.5t8.5 29.5z" />
    <glyph glyph-name="Ugrave" unicode="&#xd9;" horiz-adv-x="568" 
d="M556 101l-3 1l2 -2zM550 109v-4h6q-1 3 -6 4zM550 103h-2h-1v-6l-2 2q0 -3 -1 -4q3 -1 6 0v8zM517 522l6 -4v1q-4 3 -6 3zM297 1011q15 -17 47 -72q-9 -58 -52 -36q-37 19 -65 73q-32 62 -7 90q41 -17 77 -55zM370 537q-2 -39 -19 -52q12 -46 -6 -59q-4 0 -7 1
q-1 -4 -4.5 -20l-7.5 -35t-9.5 -42t-11.5 -43.5t-12 -38t-13 -27.5t-13 -9q-5 -17 -18 -39.5t-30.5 -44.5t-40 -33t-43.5 -3q-18 -17 -35 -13t-31 18t-25 37t-17.5 42t-9.5 34q-14 73 -16 183q0 29 5 67.5l10.5 77.5t5.5 68q0 12 -2 47.5t-0.5 61.5t9.5 44q14 19 36.5 21.5
t39.5 -9t26 -30.5t-3 -43q7 -7 4.5 -42.5t-2.5 -42.5q1 -19 0.5 -28l-1.5 -26t-1 -28q-1 -9 -0.5 -20.5t1 -21t1 -20.5t0.5 -20t-1.5 -19.5t-4.5 -20t-7.5 -19t-11.5 -18.5q0 -8 4.5 -11.5t9.5 -6.5t7 -9q3 -11 -0.5 -22t-11 -25t-9.5 -20q14 -11 18 -47q10 -6 14 -31
q18 24 38.5 75.5t31.5 69.5q6 10 12.5 22l13.5 25.5l12 22.5l6 12.5l8 17.5t8.5 18t9 16t8.5 11q-4 8 -2 16t5 12l8.5 11t7.5 12q4 6 17.5 35t25 45.5t27.5 28.5q-3 27 13 58t53 76t39 48v-15q7 7 12 10.5t8 4.5t7.5 -1.5t6.5 -4.5l8.5 -8.5t9.5 -10.5q-1 5 7 7t16.5 2
t11.5 -1q10 -4 26 -35q29 -57 9 -136q-19 -78 -24 -105q-2 -10 -3.5 -51.5t-10.5 -60.5q8 -5 11 -12q-3 -31 -4 -92t-4 -91q-1 -7 -2.5 -15.5l-3 -17.5l-2.5 -15q-1 -9 0.5 -22t1.5 -24.5t-5 -20.5q11 -5 8 -26h-5q-5 -7 -14 -6q0 -19 -27.5 -60.5t-46.5 -41.5q-32 2 -46 71
q-7 37 -0.5 113.5t-0.5 113.5l2 -1q4 26 10 97q1 3 -2 18t-3 22q4 37 15 50l-1 3q1 17 -2 46.5t-3 42.5q1 10 6.5 33t1.5 42q-3 -11 -13 -18.5t-20 -0.5q-1 -12 -23 -34q32 -18 -21 -44z" />
    <glyph glyph-name="Uacute" unicode="&#xda;" horiz-adv-x="571" 
d="M524 271zM266 922q1 6 -2 15q17 30 31.5 50.5t37.5 41t49 32.5q6 -6 10 -13.5t2.5 -15.5t-10.5 -11q-4 -8 -12 -26t-13.5 -29t-14.5 -25t-20 -21q-19 -15 -41 -16q-19 -1 -17 18zM342 432q-15 -56 -27 -90q-26 -67 -32 -94h1l1 -25l-15 -1q-9 -29 -24.5 -58.5
t-42.5 -55.5t-56 -28q-51 -4 -84 35t-47 95q-6 22 -7.5 51.5t-1 48.5t3 57t3.5 50q2 48 0 88.5t1.5 90t15.5 86.5q-8 9 -6 37t0 42q12 17 30 20t33.5 -4t27 -21t14.5 -30q2 -16 2 -34.5t-1 -33.5t-2 -34.5t-1 -33.5q-2 -10 1 -43.5t3 -40.5q-1 -14 -6 -40.5t-6 -38.5
q7 -10 10 -21q-2 -15 -11 -26q0 -11 -2 -27v-21.5t0.5 -21t-1 -21t-5.5 -22.5q8 -9 13 -43q10 -5 15 -23q27 46 67.5 135t62.5 128q8 14 20.5 48l23 61t29 52.5t40.5 33.5q2 12 9.5 24.5t18 26t14.5 21.5q4 7 10 19.5l11 22.5t12 19v11h8l20 27v-18q14 8 18 7.5t12.5 -5.5
t17.5 -5q2 0 8 3.5t13 7t13 1.5q17 -6 33 -55q21 -63 -3 -141q-44 -152 -23 -211q0 -9 -5.5 -31t-5.5 -34t4 -38.5t3 -41.5v-34t-3 -50t-12 -23q18 -21 2 -47q8 -8 6 -26q-12 -1 -15 -1q3 -24 -11.5 -49t-36.5 -40q-15 -10 -26.5 -11t-20 6t-14 18t-10.5 28q-6 32 -3.5 49.5
t8.5 46.5t5 49q0 14 -8 47t-7 50l5 -1q13 38 16 48l-3 5.5l-6.5 12t-3.5 8.5q-1 4 0 9.5t2 9.5t2.5 9t2.5 9q0 7 -1 24.5t1 30t10 22.5q0 8 0.5 34t0.5 41q0 3 -1.5 21t-1.5 28q1 28 0 38q-4 -7 -12.5 -10.5t-15.5 -0.5l-6 -10v5q-18 -12 -24 -32q8 -3 12 -6.5t4.5 -7t-1 -7
t-5.5 -7t-7.5 -6t-9 -5.5t-9 -4.5t-7.5 -3.5q-1 -9 -4.5 -29t-4.5 -32q0 -4 1 -10t1.5 -10t-0.5 -8t-4.5 -8t-9.5 -7h-3z" />
    <glyph glyph-name="Ucircumflex" unicode="&#xdb;" horiz-adv-x="560" 
d="M235 1006q18 27 39 42.5t45 12.5t44 -31q54 -76 55 -121q-13 -10 -25 -11t-21 5.5t-18.5 17.5t-16 22.5t-14.5 24t-14 17.5q-9 -7 -21 -25.5l-23 -34.5t-23 -21q-16 -9 -37.5 -1t-21.5 28q7 8 17 7q8 11 18.5 34.5t16.5 33.5zM605 715q0 -46 -21 -142t-20 -146
q5 -5 8 -11l-5.5 -46.5t-5.5 -53.5t-2 -46q0 -5 1 -24t1 -32t-3 -28t-10 -21q18 -17 7 -43q3 -4 2 -11l2 -2l-2 -3v-6.5v-6.5h-12q0 -19 -17 -46t-34 -45q-24 -20 -37.5 -14.5t-23.5 34.5q-9 25 -10 65q-1 14 2.5 39.5t4.5 34.5q0 8 -2 27t-2 35t5 25q-16 14 -13 34h2
q8 50 11 85q1 14 0 46.5t1 45.5q0 3 5.5 7.5t5.5 7.5q1 9 -1 24.5t-2 20.5q0 11 1 57.5t-2 57.5q-3 -6 -11.5 -7t-11.5 -3q-5 -12 -26 -43q5 -5 7.5 -9.5t0.5 -8.5t-4 -7t-8 -6t-9.5 -4.5t-10 -4t-7.5 -3.5l-8 -35q9 -13 -2 -32q8 -14 8 -22l-8 -8h-8l-3 -2h-3
q-5 -12 -7.5 -29t-3 -31t-3 -31.5t-6.5 -30.5q-2 -5 -21 -38.5t-14 -54.5h-9q-2 -2 -4 -3q-2 -5 -7.5 -20t-9.5 -23.5t-12 -18.5t-17 -15q-4 -6 -10 -14l-14 -18.5t-17.5 -18t-18.5 -12.5t-18 -3.5t-16 10.5q-22 -5 -39.5 0.5t-29 16.5t-20.5 32t-13.5 38t-7.5 44t-4 41
t-2 38q0 5 -0.5 7.5t-0.5 6v5.5q0 55 -0.5 62t3.5 59t5 61q1 20 -2 59.5t-1 70t16 54.5q-10 4 -6 35.5t1 41.5q21 26 43 22t39.5 -23.5t21.5 -41.5q4 -19 6.5 -44.5t0 -56.5t-13.5 -41q0 -12 2 -49t1.5 -56.5t-6 -47.5t-17.5 -48q0 -10 7 -15.5t8 -12.5q1 -10 2 -13
t-1.5 -14t-3.5 -14.5t-4.5 -14t-3.5 -13.5q3 -3 5 -7.5l3.5 -8t2 -9t1 -8.5t0.5 -9t1 -8q9 -6 13 -21q20 8 29.5 26t15.5 45.5t11 37.5q9 22 33 62.5t33 58.5q8 17 23 53.5t26.5 62t30.5 54t41 43.5q9 34 27 69t31.5 55l42.5 60v-19q19 15 32 8q3 -2 9 -7l9 -6q-3 17 15 14
q22 -5 37 -18q12 -13 19 -40.5t7 -49.5z" />
    <glyph glyph-name="Udieresis" unicode="&#xdc;" horiz-adv-x="571" 
d="M306 924q0 1 0.5 8.5t0.5 9.5t1 9t1.5 10l1.5 9t2.5 9t3.5 7.5t4.5 7.5t6 6.5t7.5 6.5q61 11 63 -33q2 -37 -30 -75q-31 -36 -49 -15q-10 12 -13 40zM199 917q1 3 1.5 12.5t0.5 14t1 13.5t2.5 13.5l4 12t6 11.5t8 8.5t10.5 6.5t13 3q28 2 42 -17t4 -44l-3 -2
q-1 -3 -4 -16.5t-5.5 -22.5t-7 -21.5t-10 -20t-11.5 -9.5q-16 -7 -28.5 2t-18 24.5t-5.5 31.5zM592 590q-4 -7 -6 -10q9 -10 8.5 -25t-5 -28t-11 -29t-8.5 -24q-5 -26 -7 -83q5 -5 8 -11q-15 -164 -16 -178q10 -18 8 -58.5t-11 -59.5l8 -11q-5 -7 -3 -15l-13 -1
q0 -44 -36 -76q-37 -33 -64 -7q-13 11 -20 35q-7 25 -8 57.5t2 59.5l6.5 61.5t2.5 57.5h1q0 8 0.5 25t1 26t3 22t6.5 25q3 6 -3 35t2 40q-14 22 6 28q1 23 1.5 27.5t-2 24t-2.5 26.5q-1 10 1 35.5t-1 35.5q-7 -13 -23 -11q-6 -8 -18.5 -18t-19.5 -19q13 -4 15.5 -11
t-3 -13.5t-12.5 -11.5t-14 -9q-3 -54 -21 -70q18 -23 -3 -40q-4 -1 -8 1q-20 -126 -61 -212q-6 -1 -9 0q-4 -15 -18 -39.5t-34.5 -51t-42 -37t-40.5 3.5q-25 -7 -46.5 3t-36 32t-24 44.5t-14.5 45.5q-3 20 -2.5 26t4 17t3.5 21q1 14 -2.5 41.5t-3.5 37.5q-1 39 5 117t5 118
q0 14 3 39l5.5 45.5t2.5 43.5t-6 37q25 35 71 19q35 -13 44 -42q6 -21 -10 -38q0 -3 2 -9.5t2.5 -8t1 -6t-0.5 -7t-2.5 -7t-5.5 -9.5q9 -22 9.5 -50.5t-2.5 -50.5t0 -50q4 -31 -2 -69t-21 -60q0 -7 3.5 -11t7 -7.5t4.5 -9.5q2 -11 -2 -22.5t-12 -24.5t-11 -21q3 -7 8 -17
t8 -18t5 -18q9 -4 13 -15q16 5 29.5 25t21 39t16.5 48t12 36q11 28 38.5 76.5t36.5 69.5q4 8 8 19l7 20t7.5 19.5t9.5 19.5q8 15 30.5 35.5t29.5 31.5q12 16 22.5 45.5t22 55.5t29.5 42v14q20 0 29 25v-11q10 7 18 7t13 -4t14 -14q10 12 18 16t14.5 0t12 -11.5t9.5 -18.5
t6 -20.5l4 -19.5q1 -8 6.5 -31t7 -35t-1 -30t-10.5 -32z" />
    <glyph glyph-name="germandbls" unicode="&#xdf;" horiz-adv-x="457" 
d="M482 66q-15 -4 -25 -7q12 -31 -15.5 -55t-61.5 -28q-13 4 -26 10q-12 -5 -20 -15q-4 -1 -12 -3.5l-15 -4.5t-15 -3q-32 -5 -72 11.5t-59 45t4 66.5q16 4 50 5t52 7q80 25 109 49q-9 20 -23.5 38.5t-29 32t-30 29.5t-28 31t-21 37t-9.5 47q-2 24 4 42t12.5 27t25.5 31
q41 47 41 104q-9 10 -22 10t-29.5 -7.5t-28.5 -15t-18 -13.5q-35 -32 -59 -99q-9 -24 -14 -51.5t-7 -48t-4 -53t-4 -50.5q-9 -94 -8 -181q1 -23 -5.5 -36t-15.5 -17t-25 -1.5t-28 7t-31 13.5l0.5 54.5t-1.5 54.5q0 6 -4.5 33t-3 45t10.5 29q-11 82 8 177q2 6 6.5 33.5
t7.5 41.5t12.5 31.5t23.5 24.5q13 41 50.5 69t83.5 35t91 0t78.5 -37t41.5 -75q5 -29 -7.5 -59t-30 -51.5t-31 -50.5t-11.5 -54q2 -22 17 -40.5t34.5 -33.5l39 -30t32.5 -36.5t13 -47.5q11 -9 22 -24q-1 -5 -3 -10.5l-3.5 -10l-3.5 -10t-3 -10.5z" />
    <glyph glyph-name="agrave" unicode="&#xe0;" horiz-adv-x="628" 
d="M297 633q33 -35 48 -62q-9 -74 -57 -38q-39 29 -68 92q-24 52 -6 57l5 6q46 -20 78 -55zM267 345q-59 0 -134 -189l30 43.5t31 44.5q5 7 42 43t44 56q-6 2 -13 2zM673 224v-5q-5 -8 -13 -9q-22 -39 -38.5 -84t-33.5 -104.5t-28 -88.5l-6 -23.5t-7.5 -30.5t-9 -34.5
t-11.5 -34t-15 -29.5t-19.5 -22t-24 -10t-30.5 5q-21 9 -42.5 39t-27.5 54q-2 9 0.5 26.5t0.5 25.5q-1 7 -8.5 19t-9.5 20q-3 15 -3.5 35.5t1 36t3.5 38.5l3 34q1 17 6 39.5t10 40.5t9 40t4 40q0 6 -1 24t-0.5 25.5t4 20t11.5 24.5q-2 5 -4 11q-6 -3 -11 -3q8 -1 -13 -21
l-8 -6q-6 -11 -27 -26.5t-29 -29.5q-3 -6 -6.5 -16l-5.5 -16t-8.5 -12t-17.5 -10q-18 -27 -41.5 -94.5t-48.5 -97.5q-23 -27 -64.5 -29t-71 23t-20.5 65q-28 14 -13 52q10 2 12 3q0 63 47 155.5t113 137.5t137 -30q8 6 28 22.5t34 26.5t33.5 19.5t38 7.5t34.5 -16
q20 -17 23 -47t-4.5 -57.5l-17.5 -63t-12 -52.5l-9.5 -84.5t-9.5 -90.5q0 -4 -7.5 -45.5t-7 -68.5t12.5 -40q10 -10 9 -22q16 43 39 127.5t35 118.5q8 26 43 71q18 23 50 43q44 28 44 -17z" />
    <glyph glyph-name="aacute" unicode="&#xe1;" horiz-adv-x="661" 
d="M412 681q9 -8 9 -18t-13 -14l-10 -24.5t-13.5 -31t-15.5 -28t-20.5 -24t-26.5 -11.5q-21 -4 -30.5 5.5t-10.5 31.5q26 47 54 77.5t68 47.5q4 -7 9 -11zM279 337q-1 4 -1 7q-16 -1 -30.5 -8.5t-26 -18t-22.5 -27t-18.5 -31t-15.5 -34t-12.5 -31.5l-10.5 -29q51 70 75 93
l12 11.5l17.5 16.5t16 17t12.5 18.5t4 15.5zM608 111q-4 -28 -17 -78.5t-16 -64.5q-1 -9 -4.5 -17.5t-6.5 -15l-7 -15t-7 -15.5q-4 -11 -5 -21.5t0 -19.5t0 -23q-2 -31 -21 -58t-48 -32q-30 -6 -61 13t-28 49q-12 12 -16 27.5t-4 35.5t-1 29q-1 5 -7.5 16.5t-7.5 20.5
q-1 12 3.5 35t5.5 30q2 21 3 73.5t6.5 88t21.5 68.5q-22 42 12 93q-2 10 -5 20q-8 -1 -15 -2q1 0 -3 -6.5t-10 -13.5t-10 -7q-5 -18 -22.5 -35.5t-22.5 -25.5q-4 -7 -8 -18.5l-7 -20t-10 -16.5t-18 -12q-9 -15 -38.5 -73.5t-54.5 -87.5q-1 -2 -4 -6q-12 -14 -18.5 -20
t-18.5 -10.5t-29 -4.5q-36 1 -58.5 21.5t-23.5 55.5q-18 -1 -20 20t5 33q8 2 9 2q-3 16 4.5 38t20.5 48.5t16 37.5q15 43 55 104q13 21 28 37t31.5 27.5t34 15.5t35 1.5t36 -15t36.5 -34.5q8 6 22 18t25.5 23t27 22t29 16.5t28.5 4.5t28 -11t19.5 -27t6 -37.5t-2.5 -38.5
t-6 -40.5t-5 -33.5q-7 -88 -12 -112q-8 -31 -17 -115q-1 -9 -5.5 -35t-7 -42.5t0.5 -37.5t13 -35q-1 -9 -9 -19q3 -7 9 -18q25 45 47.5 147t44.5 145q3 7 7 13.5l10 16.5t12 18t13.5 16.5t15.5 14t16.5 8.5t17 1.5t15.5 -7.5q17 -12 10.5 -30.5t-20.5 -34t-28.5 -33.5
t-14.5 -29z" />
    <glyph glyph-name="acircumflex" unicode="&#xe2;" horiz-adv-x="630" 
d="M377 604q21 -41 22 -65q-11 -11 -21 -14t-20 2t-18 11t-17 19.5t-13.5 21.5l-12.5 22.5t-8 15.5q-6 -6 -17 -24l-20.5 -33.5t-21.5 -28t-23 -13.5q-52 0 -21 64q18 36 45 72.5t50 41.5q16 2 31 -6t28.5 -26t20 -30zM278 347q-11 5 -15 5q-4 -3 -18 -16.5l-18 -17.5
l-16 -16.5t-17 -18.5t-14 -18t-13.5 -20.5t-10 -20.5t-9 -23.5t-5.5 -24.5l29.5 41.5t39.5 51.5q3 4 31.5 32t36.5 45zM18 124l2 -9l-2 10v-1zM453 -250q-13 0 -26 5.5t-23.5 14.5t-17.5 21.5t-7 24.5q-7 8 -9.5 18.5t-1.5 20t0 21.5q-2 14 -9.5 30.5t-10.5 26.5
q-8 33 3.5 104t11.5 91q0 17 1.5 34.5t3.5 29l5.5 32t5.5 30.5q1 10 1 21t-0.5 21t1 20.5t7.5 19.5q-1 6 -3 11q-5 1 -9 1q2 0 -2 -6.5t-10.5 -13t-9.5 -7.5q-6 -12 -26.5 -30t-27.5 -31q-3 -8 -6 -19.5t-4.5 -19.5t-8.5 -15.5t-19 -11.5q-16 -23 -44.5 -86t-53.5 -91
q-22 -24 -60 -25t-65.5 22.5t-19.5 61.5q-13 6 -14.5 20.5t6.5 26.5l4 1q2 67 47 160t111 140t139 -33q7 5 26.5 22t33 26.5t32.5 19t37.5 7.5t34.5 -15q11 -9 17 -24.5t7.5 -29.5t-0.5 -37t-4 -34.5t-7 -35t-5 -25.5l-7.5 -36.5l-7.5 -37l-7 -36t-6.5 -37.5t-5 -36.5
t-3.5 -37.5q-1 -5 -3 -25t-2.5 -31.5t0 -29t4 -30.5t9.5 -23q-6 -14 1 -32q24 43 46 138t29 115q7 22 25.5 53t34.5 47q15 16 34.5 20.5t29.5 -6.5t1 -35q-4 -11 -20 -31t-21 -31q-4 -9 -7 -20.5t-6 -26t-5 -21.5q-12 -48 -45 -141q-5 -16 -8.5 -43.5t-7.5 -49.5t-11.5 -44
t-25.5 -34.5t-46 -12.5z" />
    <glyph glyph-name="atilde" unicode="&#xe3;" horiz-adv-x="662" 
d="M179 603q-1 19 8 28q9 1 17 -4t13.5 -11.5t13.5 -12t17 -6.5q19 -1 44.5 14t51 25.5t48.5 1.5q43 -16 43 -63q1 -36 -19 -48q-25 -16 -46 36q0 1 -1 3q-11 -2 -21.5 -7t-19 -11l-17 -11.5t-18.5 -11t-21 -7.5q-25 -7 -47 4.5t-33.5 33.5t-12.5 47zM268 346
q-49 -30 -82 -76.5t-40 -101.5q12 15 33 48.5t34 48.5q7 8 19 18t21.5 17t17 18.5t8.5 23.5q-8 4 -11 4zM25 116l2 -9h1l-2 9h-1zM388 -205q-12 15 -14.5 26t-2.5 32q0 15 -2 23t-6 17t-6 18q-5 14 -4.5 41t3 46t6.5 46.5t5 42.5q3 56 19 137q3 19 2 34.5t1.5 34t11.5 32.5
q-4 8 -8 15h-11q6 0 -11 -20q-7 -8 -10 -9q-7 -14 -28.5 -29.5t-28.5 -26.5q-5 -8 -7 -23.5t-7.5 -27t-19.5 -16.5q-9 -12 -17.5 -27.5t-19 -37.5t-15.5 -31q-4 -9 -13 -32.5t-18 -40t-22 -25.5q-30 -18 -60 -14t-53.5 27.5t-25.5 54.5q-4 2 -8 2q-8 6 -9 16t1 16.5t8 17.5
l5 2q2 47 28.5 114.5t58.5 119.5q17 28 42.5 48t53.5 28.5t58.5 -0.5t55.5 -38l28 22t35 26t34.5 19t37 5.5t32.5 -20.5q13 -15 16.5 -42.5t1.5 -47t-9 -56t-8 -42.5q-25 -161 -28 -209q0 -11 -6.5 -45.5t-6 -59.5t12.5 -41q-6 -14 2 -32q15 28 30.5 88.5t23.5 80.5
q5 13 12 41.5t16 50t22 35.5q-6 22 14.5 45t43.5 30q19 5 45 -10q25 -14 -3 -25q-7 -17 -20.5 -44.5l-24 -50.5t-18.5 -45q-11 -28 -27 -82t-25 -79q-5 -14 -9 -47t-13 -58t-29 -38q-15 -9 -30.5 -9t-31 7.5t-28 17.5t-22.5 22z" />
    <glyph glyph-name="adieresis" unicode="&#xe4;" horiz-adv-x="655" 
d="M312 603q6 69 27 79q4 8 15 8.5t21 -3.5t17 -8q20 -13 21.5 -27.5t-10.5 -34.5q-23 -45 -52 -58q-30 -14 -38 36q0 4 -1 8zM208 595q0 1 0.5 10t0.5 11.5t1 10.5t2 11.5t2.5 10.5t3.5 10.5l5 8.5t6.5 8t8.5 6t10 4q19 5 45.5 -8t12.5 -33l4 -5q-3 -16 -16.5 -49
t-20.5 -43q-25 -28 -45 -9t-20 56zM289 350q-11 4 -16 4q-48 -34 -83.5 -81.5t-40.5 -95.5q19 31 33 48t36 36q80 68 71 89zM30 125l2 -9zM271 198q-20 -28 -44.5 -89t-40.5 -87q-18 -28 -42.5 -35.5t-46.5 3t-40.5 31t-25.5 45.5q-6 2 -12 2q-3 3 -5 5.5t-3 6t-1.5 6
t0.5 6.5l1.5 6t2 6.5t2.5 6.5t3.5 6.5t2.5 5.5l5 1q4 77 56 178q61 120 130 137q58 14 108 -53q7 5 17.5 14l20 17.5t21 17.5t23 15.5t23.5 11t24 4t23 -6.5q16 -8 24 -22t8.5 -33.5t-1.5 -35t-7 -38t-6 -31.5q-3 -20 -7 -50l-7 -52l-6.5 -50l-6.5 -52q-1 -7 -7 -42.5
t-8 -55.5t2 -47.5t16 -42.5q-6 -14 -1 -33q8 23 22 80t27 87q5 14 13 43.5t17.5 52t23.5 36.5q-2 14 7 30.5t24 28t28 14.5q17 5 40 -8.5t7 -29.5q-6 0 -12.5 -6t-13.5 -17.5t-12.5 -23t-12.5 -28t-10.5 -25.5l-8.5 -23t-5 -15q-8 -23 -15 -50t-14 -59.5t-12 -50.5
q-3 -10 -8.5 -45.5t-13.5 -62t-20 -37.5q-20 -16 -45.5 -15t-46.5 15q-2 2 -6 6.5t-7.5 9.5l-7 10.5t-6 10l-4 7t-1.5 3.5q-5 4 -8.5 8.5t-5.5 11.5l-3 10.5t-2 12.5t-2 12q-1 11 -6 28.5t-6 24.5q-5 37 -3 60.5t7 65t6 61.5q1 51 22 141q3 16 1.5 29t-0.5 30t8 28
q-2 6 -5 11q-4 0 -9 -1q8 -1 -13 -21l-8 -6q-6 -18 -27 -31.5t-27 -19.5q-7 -8 -10.5 -24t-9.5 -28.5t-21 -16.5z" />
    <glyph glyph-name="aring" unicode="&#xe5;" horiz-adv-x="646" 
d="M318 593q14 0 16.5 21t-8.5 25q-15 5 -22 -16q-9 -24 8 -29q3 -1 6 -1zM277 352v0v-5v5zM232 572l-3 4q0 60 12 96.5t53 63.5q27 -7 50.5 -19t43.5 -29.5t28.5 -42t2.5 -53.5q-12 -47 -47 -62.5t-73.5 -2t-66.5 44.5zM290 332q-8 4 -17 2.5t-16.5 -4.5t-15 -10.5t-14 -15
t-13 -18.5l-11.5 -20t-10 -20.5l-9 -20t-7.5 -17t-6.5 -13.5q8 12 39 40t56 55t27 41q-1 0 -2 1zM680 227q8 -7 5 -16t-13 -10q-6 -18 -16.5 -38l-21.5 -40.5t-17 -37.5q-28 -75 -44 -151q-2 -11 -5.5 -34.5l-6 -41t-9.5 -39t-15.5 -35.5t-24.5 -24t-36 -10q-30 0 -57 17
t-37 45q-4 8 -2 30t0 31q-2 10 -10 26t-10 26q-3 13 -3 32t1.5 35.5l3.5 37.5t3 33q2 105 32 169q-5 20 0 56.5t3 51.5q-4 2 -9 3q8 -1 -11 -24l-10 -8q-5 -15 -13 -23t-20 -15t-20 -16q-6 -7 -9.5 -22.5t-9 -28.5t-18.5 -17q-10 -14 -25.5 -43.5t-22.5 -40.5
q-7 -12 -21 -49.5t-27 -51.5q-15 -16 -45.5 -19t-58 5.5t-43.5 30t-5 48.5q-13 7 -16.5 20t2.5 25q1 1 4.5 2t6.5 2.5t4 1.5q0 26 5 51t17 51t21.5 43l27.5 47l25 42q2 3 7.5 12.5l7 12l6.5 10.5t7 10.5l7 8.5t9 8t10 6.5t11.5 6t12.5 3t16 2.5q60 6 105 -51q9 5 23.5 16.5
l26 21t27 18.5t29 13.5t28.5 3.5t29 -10q19 -12 24 -38.5t1.5 -50t-11 -57.5t-8.5 -46q-4 -34 -16.5 -101t-16.5 -101q-1 -4 -4 -27.5t-4 -36.5t-1.5 -33.5t3 -35t11.5 -23.5q-7 -14 1 -35q7 19 14 57t9 46q17 70 28 88q3 6 8 10l10 8t7 10q6 13 14.5 44t17.5 48
q6 10 13 19.5t18 22t22 19t24.5 6.5t24.5 -12z" />
    <glyph glyph-name="ae" unicode="&#xe6;" horiz-adv-x="507" 
d="M398 321q15 0 32.5 8t24.5 21.5t-13 30.5q-23 18 -45 -6.5t-26 -50.5q13 -3 27 -3zM232 159q-1 15 -1 23q-20 -1 -39 -5.5t-38 -14t-28.5 -27t-4.5 -40.5q12 -60 93 32q2 3 7 8q9 10 11 13v11zM329 210q-8 -46 10 -113q18 -71 51 -67q19 3 41 32q10 12 17.5 31t11 34.5
t10 32.5t14 25t22.5 13t37 -4q-3 -67 -29 -124t-76 -92q-36 -23 -72.5 -14.5t-66 35t-46.5 61.5q-15 -7 -32 -23.5t-33.5 -28t-39.5 -11.5q-38 -1 -65.5 25t-41.5 66q-12 33 -6 68t25 61t48 44.5t62.5 19.5t67.5 -14q3 15 7.5 33.5t9 34.5l9.5 32.5t8 34.5t4 34
q-25 9 -42.5 1.5t-33.5 -22.5t-28.5 -35t-26 -35.5t-26.5 -24t-30.5 -1.5t-36.5 32q9 26 23.5 50t33.5 44t42.5 35t50.5 23q59 17 115 -12q6 -3 14 -9.5t15.5 -12t15.5 -7.5q9 -2 26.5 4t26.5 6q48 -4 91.5 -48.5t37.5 -91.5q-5 -31 -27 -51t-52 -25t-60.5 -3.5t-55.5 8.5
q-14 -19 -20 -51z" />
    <glyph glyph-name="ccedilla" unicode="&#xe7;" horiz-adv-x="415" 
d="M115 -18q-43 -1 -66.5 20t-2.5 61q16 31 35 23t20 -42q35 3 52 42q16 35 -2 51q-8 8 -23 5q-7 0 -13 -5.5t-9.5 -10t-10 -4.5t-15.5 9q-4 3 -6.5 12t-4 20.5t-1.5 14.5q12 16 43 69q-39 7 -62 40.5t-27.5 80t-2.5 87t9 77.5q7 38 26 77t45 71t56 56q9 26 39 34.5t62 1.5
t57.5 -25.5t27.5 -41.5q2 -22 -9 -54t-27 -42q-23 -14 -37 -3.5t-15 32t0 39.5q-25 0 -50.5 -31t-39.5 -63.5t-21 -58.5q-2 -10 -9 -28.5t-10.5 -33.5t-2.5 -30q1 -13 9.5 -47.5t15.5 -38.5q23 4 47 17t46 32t41.5 39l41 40.5t37.5 31.5q83 60 96 12q2 -7 -2.5 -15.5
t-12.5 -16.5t-16.5 -15.5t-16.5 -15.5t-10 -13q-29 -15 -58.5 -43.5t-51 -55t-52 -54t-60.5 -41.5q-8 -19 -14 -38q15 -3 30 -14.5t26 -26t18.5 -31.5t9.5 -32q13 -14 -0.5 -46t-28.5 -48q-18 -17 -42 -23t-58 -7z" />
    <glyph glyph-name="egrave" unicode="&#xe8;" horiz-adv-x="432" 
d="M159 304q21 2 50.5 14.5t50.5 35.5t11 48q-18 45 -72 -17q-38 -44 -48 -78l-1 -2q3 -1 9 -1zM137 692q-3 14 9 26q76 -32 127 -121q-6 -56 -51 -30q-39 22 -69 74q-17 32 -16 51zM328 106q-19 -32 -61.5 -73.5t-70.5 -41.5q-2 -2 -5.5 -3t-6.5 -2t-7 -2t-6 -2
q-39 3 -58.5 12t-44.5 37q-69 75 -40 104q-11 29 -8.5 66.5t12 71t23.5 62.5q-1 3 -3 10q12 14 33.5 41.5l35.5 45t37 38t43 29.5t48 9t58 -14q39 -18 55 -44.5t10 -55t-29 -60.5q-5 -7 -17 -26t-21.5 -30.5t-23.5 -21.5q-19 -15 -35 -21.5t-45 -11.5t-38 -7q-27 -6 -30 -21
t5 -46q1 -6 2 -15.5t2 -15t3 -14t4.5 -12t7 -9t10.5 -5t15 1.5q13 2 27.5 15t30 30t23.5 23q9 8 42.5 33.5t50.5 40.5l20.5 21.5t28 25.5t26.5 12q32 7 37 -9.5t-13 -38.5q-7 -8 -19.5 -17.5l-26.5 -19.5t-22 -19q-4 -5 -14.5 -16t-17 -18.5t-14.5 -18t-13 -18.5z" />
    <glyph glyph-name="eacute" unicode="&#xe9;" horiz-adv-x="421" 
d="M253 667q30 32 75 51q27 -22 -9 -81q-30 -51 -68 -70q-44 -23 -49 32q20 35 51 68zM143 308q18 -1 53 12.5t58 38t6 47.5q-14 15 -32 8t-36.5 -28t-32 -42.5t-18.5 -34.5l0.5 -0.5t1.5 -0.5zM466 263q0 -11 -11 -22t-30 -22.5t-23 -15.5q-16 -13 -39 -41t-31 -36
q-5 -5 -28.5 -34l-43.5 -51.5t-44.5 -39.5t-38.5 -10l-16 -9q-41 4 -69 17.5t-51 45.5q-7 9 -15.5 28.5t-12 39t5.5 26.5q-3 5 -3.5 9.5t0 7t1.5 6.5t1 8l-2.5 5l-5.5 10.5t-3 7.5q-8 28 6 71q20 61 33 79l-1 3q11 12 24 29.5t23 32.5t22 31t23.5 29t26.5 23.5t31 16t37 5.5
t45 -7q49 -15 70 -46.5t14.5 -66.5t-29.5 -70t-56 -58q-52 -36 -100 -42q-4 0 -11 -1q-28 -3 -34.5 -10.5t-4.5 -41.5q1 -2 1 -6q6 -83 34 -83q6 0 15.5 6.5t22 18t14.5 12.5l37.5 29.5t45 36.5l35.5 32q30 30 75 55q60 33 60 -8z" />
    <glyph glyph-name="ecircumflex" unicode="&#xea;" horiz-adv-x="474" 
d="M149 301q15 3 36.5 12.5t43.5 24t30.5 32.5t-3.5 38q-25 37 -72 -27q-34 -48 -39 -79h2q1 -1 2 -1zM122 589q0 8 13.5 27.5t34 44t20.5 25.5l13.5 16.5t13 13.5t15 10.5t16.5 2t21 -6.5q32 -16 55.5 -63.5t23.5 -84.5q-8 -11 -17.5 -13.5t-17.5 2.5t-16 13.5t-16 20.5
t-13.5 22.5l-11 21t-8.5 14.5q-4 -6 -16 -28.5t-23 -38t-23 -22.5q-14 -10 -39 -4t-25 27zM286 73q-11 -4 -26.5 -21t-28 -33t-28.5 -26t-29 -5q-13 -4 -16 -6q-3 0 -19.5 1t-23 1.5t-19.5 4t-19.5 8t-13.5 12.5t-10 20q-19 13 -29 38.5t-10 50t4 47.5l-13 21q-1 1 -1 2
q-4 14 7 51q19 67 32 95q-1 2 -2 8q5 6 47.5 60t70.5 79q32 29 62 31.5t70 -17.5q9 -5 19.5 -11.5t24.5 -17.5t22 -22t11.5 -23.5t-7.5 -23.5q5 -26 -20.5 -62.5t-57 -63t-57.5 -40.5q-29 -16 -42 -17q-4 -1 -27 3t-26 2q-5 -4 -5.5 -16.5t-1.5 -14.5q-6 -15 -4 -52t14 -48
q5 -4 10 -7t10 -2.5t8.5 0.5t9.5 3.5l8.5 5t10 7t9.5 7.5q12 8 24 17.5t24 20l21.5 19l23 20.5l22.5 20q6 5 24.5 23.5t30.5 28.5t30.5 19t33.5 8q63 -4 -3 -56l-19 -14l-21 -17q-6 -7 -11 -15l-10 -16.5t-11 -15.5q-4 -5 -18 -15t-19 -16l-8 -11t-8 -12t-8.5 -10t-11.5 -7z
" />
    <glyph glyph-name="edieresis" unicode="&#xeb;" horiz-adv-x="453" 
d="M279 621q1 3 0 19.5t0 25t3.5 21t9 19.5t17.5 9q19 4 37.5 -9t20.5 -30q3 -29 -30 -73q-31 -41 -48 -25q-10 10 -10 43zM258 684q7 -12 3 -26q-3 -3 -6 -4q-3 -36 -28 -71q-31 -44 -49 1q-3 8 -6 18q-6 18 -3 59.5t16 52.5q17 17 45 7t28 -37zM169 303q13 2 36 14
t45.5 29.5t31 36.5t-8.5 37q-19 18 -45.5 -4.5t-44 -58t-17.5 -53.5q-2 0 0 -1h3zM81 24l-11 16l-17.5 25t-17 28t-8.5 26.5t6 19.5q-5 8 -8 17.5t-3.5 20.5t0 21.5t3 23.5t5.5 23l7 23.5t7.5 22t7.5 20l6 17.5q-3 9 4 17l-1 3q7 6 13.5 14t12 16.5l11 16.5t12 16.5
l11.5 15.5q34 40 74 69q24 17 43 20.5t35.5 -2.5t45.5 -23q7 -4 14 -8.5t18 -13t18.5 -16.5t13.5 -17t4.5 -18t-10.5 -16q3 -8 3 -16t-2 -15t-5.5 -14.5t-7.5 -13.5t-10 -13.5t-10.5 -12.5l-11 -12.5t-9.5 -11.5q-37 -43 -72.5 -54.5t-100.5 -11.5q-6 -6 -7.5 -52t0.5 -51
q4 -22 10.5 -32t17.5 -8.5t20.5 7t25.5 18.5l51.5 43.5t52.5 43.5q9 7 24 22l27 26.5t27.5 23t27.5 16.5q39 14 52 -5q5 -8 5.5 -14.5t-4 -12t-9 -9t-13 -8.5t-11.5 -7q-6 -4 -11.5 -8.5l-10.5 -9t-8.5 -8t-8.5 -9t-7.5 -8.5t-7.5 -9.5t-7 -9.5t-7.5 -10.5t-7.5 -10.5
q-11 -15 -28 -31.5l-37 -34.5t-31 -30q-2 -1 -6.5 -6t-6.5 -7.5t-7 -7t-7.5 -7t-7.5 -7t-8.5 -6.5l-8.5 -5t-9 -4.5t-9 -2.5t-10 -1q-3 -2 -9 -6.5t-9 -6.5q-35 2 -58.5 10.5t-38.5 31.5z" />
    <glyph glyph-name="igrave" unicode="&#xec;" horiz-adv-x="303" 
d="M26 689q-2 16 9 28q76 -32 129 -125q-11 -63 -60 -34q-40 24 -68 77q-20 39 -10 54zM348 244q0 -9 -7 -21.5t-17 -26.5t-13 -21l-12.5 -26t-17.5 -33q-3 -7 -16 -32.5t-20.5 -37t-21.5 -28t-30 -24.5q-42 -21 -76.5 -5.5t-58.5 52.5t-37.5 79.5t-12.5 76.5q0 21 1 41
t4 54t8.5 61.5t13.5 54.5t21.5 43t30.5 18q39 4 62.5 -27.5t29 -77.5t3.5 -90t-10 -71q6 -16 2.5 -58.5t8.5 -58.5q5 6 17.5 19.5t21 24t15.5 21.5q10 14 19.5 42.5t15.5 38.5q0 2 3.5 8.5t4.5 8.5t4 6.5t5.5 6.5t6.5 4t8.5 3t10.5 1q33 -1 33 -26z" />
    <glyph glyph-name="iacute" unicode="&#xed;" horiz-adv-x="300" 
d="M222 680q8 -36 -35 -91q-39 -51 -70 -48q-24 1 -29 41q53 93 124 124q11 -12 10 -26zM345 245q0 -15 -8 -34t-17.5 -33.5l-23 -34t-18.5 -28.5q-7 -10 -21.5 -42t-28.5 -50.5t-36 -29.5q-48 -20 -84 -2.5t-59.5 59.5t-35 88t-9.5 83q1 26 2.5 48.5t7 61.5t13.5 66.5
t23 49t34 23.5q29 2 49.5 -12.5t30.5 -39t14.5 -55t3 -61.5t-5 -56.5t-9.5 -42.5q4 -17 0 -39t-1.5 -46.5t16.5 -33.5q17 21 31 45t30 56.5t25 48.5q10 18 38 32q38 17 39 -21z" />
    <glyph glyph-name="icircumflex" unicode="&#xee;" horiz-adv-x="308" 
d="M353 241q0 -14 -13 -38.5t-33.5 -55l-24.5 -36.5q-4 -7 -14.5 -27.5t-18 -33t-19.5 -28t-23 -23.5q-42 -27 -77.5 -17.5t-62.5 42t-42.5 73.5t-16.5 76q0 25 11 125q0 7 1.5 31t3.5 42t7 40t14.5 36.5t24.5 20.5q24 8 44 -2.5t32.5 -33.5t20 -45t10.5 -42q6 -27 4 -79
t-13 -77v-19t0.5 -22.5t1.5 -21t3.5 -22.5t6.5 -18l33.5 40t26 37t24.5 45q2 5 6.5 21.5t10.5 25t17 13.5q16 7 35.5 -1t19.5 -26zM43 541q-17 0 -30 11t-13 27q14 12 36 49t44.5 63t48.5 26q28 -1 52.5 -31t35.5 -66.5t10 -62.5q-31 -54 -82 45q-3 7 -9 19q-8 15 -11 20
l-19.5 -34t-32 -47.5t-30.5 -18.5z" />
    <glyph glyph-name="idieresis" unicode="&#xef;" horiz-adv-x="307" 
d="M134 598v10t0.5 13t1 13t2 14.5t3 13t4.5 12t7 8.5t9.5 6t12.5 2l3 -6q89 -13 26 -98q-17 -24 -31.5 -32.5t-24.5 2t-13 42.5zM106 604l-4 1zM119 626l-2 -1q8 -35 -19 -71q-26 -36 -51 -17q-11 8 -18 29q-10 19 -3.5 62.5t26.5 55.5q28 17 54 -5.5t13 -52.5zM352 242
q0 -12 -19.5 -37.5t-20.5 -27.5l-30 -56q-6 -12 -17 -42t-23 -49t-32 -31q-47 -27 -84.5 -14.5t-64 52.5t-41.5 85t-17 83q-1 23 4.5 65.5t15.5 88.5t29.5 78.5t42.5 29.5q84 -8 85 -136q0 -5 0.5 -25t0.5 -32.5t-1 -30.5t-5 -31.5t-11 -22.5q0 -2 -0.5 -18.5t0.5 -27t3 -25
t7 -23.5t13 -12q51 61 78 135q2 4 4.5 12.5t4 12t5 9.5t8.5 9.5t12 6.5q10 3 22 2.5t21.5 -8.5t9.5 -20z" />
    <glyph glyph-name="ntilde" unicode="&#xf1;" horiz-adv-x="506" 
d="M104 605q0 15 2 22.5t4.5 10t8 -0.5t9 -6.5l10.5 -10.5q5 -6 8.5 -9t8 -6.5t7.5 -4.5q19 -5 64.5 16.5t64.5 20.5q33 0 60.5 -22.5t16.5 -55.5q-6 -17 -16.5 -23.5t-20.5 -2.5t-19.5 13.5t-15.5 22.5q-11 -3 -23 -9t-20.5 -12t-20.5 -12.5t-24 -10.5q-39 -10 -71.5 14
t-32.5 66zM529 225q14 -14 -4 -47t-36 -49q-2 -11 -5.5 -24t-8.5 -26l-9.5 -24.5t-11 -26t-9.5 -23.5q10 -18 -17 -74t-48 -73q-9 2 -20 -2t-16 -4q-46 4 -71 68q-18 44 -17.5 96.5t22.5 92.5q0 3 -1 5q-13 15 -4 69q1 1 -1.5 7t-2.5 8q0 5 3 9.5t6.5 9t4.5 9.5
q1 11 -3.5 34t-2.5 34q-18 -19 -41 -62l-40.5 -78t-48.5 -63.5t-68 -29.5q-16 -1 -28 4.5t-18.5 14t-10.5 22t-5.5 25.5t-2.5 27q0 4 -2 28t-2.5 39.5t1.5 34t8 27.5q-14 17 -5 72.5t26 70.5q19 16 48 13t42 -23q7 -11 7.5 -26.5t-3.5 -37t-4 -27.5q-1 -10 -1.5 -33.5
t-2.5 -40.5t-7 -34l15 22.5t20.5 28l25 31.5t27.5 31t30 29t32 24t32 17t31 5.5t30 -7.5q20 -10 28.5 -42.5t6 -64t-9.5 -53.5q-5 -16 -10 -44.5t-9 -42.5l3 -5q-25 -44 -12 -138q7 11 15.5 30.5t14.5 34.5t17 30.5t23 23.5q0 14 16.5 45t41 51t42.5 2z" />
    <glyph glyph-name="ograve" unicode="&#xf2;" horiz-adv-x="506" 
d="M159 139q0 -67 45 -28q23 20 39 48q5 8 17 25t18.5 27.5t11.5 27t2 31.5q-7 -3 -58.5 -11.5t-62.5 -21.5q-12 -14 -12 -98zM287 347q-6 37 -47.5 81t-77.5 46q-6 -6 -16.5 -13.5t-17 -11.5t-14 -12.5t-8.5 -17.5t1 -25q11 14 29.5 16t36 -4.5t31 -17.5t18 -19t3.5 -12.5
t-6 -16t-7 -21.5q18 2 36 7.5t28.5 11.5t10.5 9zM120 683q-2 3 -8 15t-7.5 16.5t0 13.5t9.5 16q43 -18 73 -47.5t55 -73.5q-11 -83 -70 -19q-33 36 -52 79zM551 392q0 -15 -17.5 -24.5t-43.5 -15.5l-52.5 -12.5t-46.5 -20.5t-23 -35q0 -136 -126 -260v-3l-20 -10l-1 1
l-22.5 -15.5t-23.5 -15.5q-65 18 -97 52t-48 100q-14 56 4 118q2 5 4 12q10 35 10.5 49t-12.5 55q-27 76 15 123t118 39q84 -9 129 -44q18 -14 28 -30t19.5 -41.5t15.5 -36.5q39 33 149 41q9 22 29 -2q12 -14 12 -24z" />
    <glyph glyph-name="oacute" unicode="&#xf3;" horiz-adv-x="496" 
d="M161 612l-3 13q51 90 128 124q28 -29 -9 -90q-31 -52 -70 -69q-37 -16 -46 22zM143 140q0 -74 52 -16q23 26 40 56l10.5 16.5l11.5 18.5t9.5 17.5t6 19.5t0.5 21q-7 -3 -57 -12.5t-60 -19.5q-5 -4 -7.5 -12t-4 -16.5t-2 -20.5t-0.5 -20t0.5 -18.5t0.5 -13.5zM266 348
q0 41 -43 80.5t-82 39.5q-1 -1 -16 -5.5t-16 -5.5q-23 -20 -18 -63q11 14 23.5 17t24 0t30.5 -13q32 -15 37 -29t-7 -47q26 4 46.5 12.5t20.5 13.5zM504 426q16 0 25.5 -16.5t2.5 -29.5q-5 -8 -15.5 -11.5t-27.5 -5.5t-19 -3q-111 -24 -118 -75q0 -72 -35.5 -139.5
t-93.5 -122.5l1 -4l-19 -8v1q-5 -3 -48 -31q-62 16 -98.5 50.5t-48.5 94.5q-3 14 -3.5 28.5t1.5 29t4 26t6 29t6 27.5q3 17 3 33.5t-2 27l-5.5 30t-5.5 32.5q-10 72 26 107.5t108 33.5q82 -2 130 -45q8 -7 32 -54.5t32 -48.5q41 26 151 36q4 8 11 8z" />
    <glyph glyph-name="ocircumflex" unicode="&#xf4;" horiz-adv-x="494" 
d="M148 140q0 -69 43 -30q32 28 50 66l10 16.5t12.5 21.5t11.5 24t6 23t-5 18q-8 -3 -27.5 -8l-36 -9.5t-32.5 -11t-21 -13.5q-11 -13 -11 -97zM130 473zM94 409q0 -13 1 -17q11 15 23 18.5t22.5 0t30.5 -13.5q29 -16 33.5 -30t-0.5 -46q59 9 65 33q3 14 -19.5 45.5
t-38.5 44.5q-17 15 -37.5 21.5t-38.5 4t-29.5 -18t-11.5 -42.5zM261 735q4 -5 14 -20t14 -21.5l11.5 -19.5t10.5 -22.5t6 -22.5t3 -26q-10 -11 -27 -11l-1 9q0 -1 -1 -1v-8q-20 0 -33.5 14.5t-26.5 42t-17 34.5q-9 -9 -20 -28.5l-21.5 -36.5t-20.5 -23q-19 -14 -41 -1.5
t-19 37.5l10 1q5 5 20 29.5t30.5 45t34 38.5t38.5 16.5t36 -26.5zM539 393q0 -14 -12.5 -23t-31.5 -12.5t-42 -9t-43.5 -11.5t-35 -19t-17.5 -33q5 0 -30 -102q-19 -55 -39.5 -88.5t-60.5 -70.5v-9q-11 1 -22 -4t-25.5 -16l-18.5 -14q-58 16 -93 47t-51 86q-5 19 -7 37t2 42
t6 33l9 41q5 35 3.5 49t-9 42t-9.5 49q-4 48 15 79t53 40t73.5 5.5t78.5 -19.5q46 -20 69 -47q6 -7 19.5 -40.5t20.5 -38.5q11 -7 42.5 0.5t68.5 19.5t50 13l3 2q12 -1 23 -8.5t11 -19.5z" />
    <glyph glyph-name="otilde" unicode="&#xf5;" horiz-adv-x="482" 
d="M270 273h-1h1zM138 197q0 -103 27 -103q12 0 28 15q30 29 52 77t21 86q-13 -5 -34 -8l-35.5 -5t-29 -8t-22 -19t-7.5 -35zM258 350q0 28 -17.5 57.5t-45.5 49t-56 20.5q-6 -5 -15 -11l-15 -10t-14 -11t-10 -13.5t-4 -17t3 -22.5q7 9 11 13t7 6t7 1.5t6.5 -1.5t9 -4
t12.5 -5q40 -12 52 -26t-1 -50q13 -1 41.5 6.5t28.5 17.5zM319 651q0 -30 -13 -40.5t-30.5 -1.5t-27.5 32q-15 -3 -35 -13l-33.5 -17t-35 -10t-38.5 7q-27 13 -41 47t2 59q15 2 33 -19.5t34 -21.5q22 13 50 24t60 16.5t53.5 -10t21.5 -52.5zM527 395q0 -13 -28.5 -24.5
t-65.5 -21t-46 -14.5q-13 -7 -21.5 -17.5t-11.5 -16.5t-7.5 -25t-6.5 -25q-43 -148 -122 -230l-1 -7q-9 -1 -18.5 -4.5t-15.5 -7.5l-16.5 -11t-14.5 -10q-44 12 -77.5 40t-49.5 67q-28 69 -8 159q0 3 9 30.5t8 41.5q-1 12 -9.5 32.5t-10.5 28.5q-18 75 2 114q29 55 141 40
q82 -12 129 -60q14 -14 31 -48t33 -46q11 4 33.5 13t35.5 13.5t32.5 9.5t36.5 7q10 15 24.5 0t14.5 -28z" />
    <glyph glyph-name="odieresis" unicode="&#xf6;" horiz-adv-x="514" 
d="M275 743q43 0 55 -27t-3.5 -60t-44.5 -51q-30 -18 -40 25q-10 46 8 88q10 23 25 25zM161 141q0 -68 47 -29q32 27 50 62l2 2q1 2 6 10.5l10.5 18t11 21t9 21t3.5 18t-5 12.5q-10 -4 -44 -11.5t-52.5 -17.5t-23.5 -29q-3 -12 -8.5 -41t-5.5 -37zM225 709q6 -14 2 -27
l-5 -4q-2 -41 -30 -76q-31 -39 -51 0q-6 10 -10 27q-6 18 -1 58t21 53q18 15 46 4.5t28 -35.5zM114 402q10 8 24 8q11 8 37.5 -3t37.5 -23q13 -14 13.5 -29.5t-5.5 -34.5q24 4 47 13.5t23 15.5q-3 48 -56 91q-51 41 -89 27q-32 -11 -32 -65zM559 394q0 -22 -28 -34
t-62.5 -16t-64.5 -18.5t-34 -38.5q5 0 -7 -46t-17 -59q-20 -53 -41 -86.5t-59 -68.5l1 -5q-12 -3 -23 -9.5t-25 -17t-20 -14.5q-52 14 -90.5 48.5t-52.5 83.5q-15 54 7 134q1 6 7.5 20.5t10.5 27.5t2.5 22.5t-7 20t-12.5 21.5t-10 20q-16 52 5 91t64 55t93 11q35 -3 103 -53
q18 -13 28.5 -29t20 -39t15.5 -35q23 27 153 36q9 14 26 2.5t17 -24.5z" />
    <glyph glyph-name="divide" unicode="&#xf7;" horiz-adv-x="269" 
d="M91 175q3 19 12.5 36t22.5 26.5t27.5 12t29 -8.5t25.5 -34q19 -44 -21 -72q-33 -23 -66 -10q-29 13 -30 50zM125 425q-39 10 -51 52q-11 39 12 57q16 12 44 3q34 -11 44.5 -33.5t-3 -45t-42.5 -34.5zM229 360q36 0 52 -26q14 -23 -12 -35l-20 -5q-18 -2 -42.5 -3
l-49.5 -2t-43 -3q-21 -6 -50.5 -6t-45.5 16q-13 15 -12.5 31.5t15.5 26.5q7 4 21 4.5t31 -1t23 -0.5q91 3 133 3z" />
    <glyph glyph-name="oslash" unicode="&#xf8;" horiz-adv-x="401" 
d="M173 108q0 -10 45 -31q10 8 18 16.5t13 15t10.5 18t7.5 17.5t7.5 21t7.5 21q3 9 8 20.5l9.5 21t8.5 21t6.5 21.5t2.5 21.5t-3 22.5q-55 -53 -90 -117l-17.5 -25.5t-23.5 -36.5t-10 -27zM268 417q-1 28 -60 -50l-6 -8q-4 -6 -11.5 -16l-12.5 -16.5t-11.5 -16.5t-10 -18.5
t-6.5 -18.5t-3 -20l14 22.5l15 24t16 20.5t21 17q-3 5 -5 14q4 2 13.5 11.5l19.5 20t18 20.5t9 14zM439 534l7 -5q-6 -20 -22.5 -45t-26.5 -47.5t-8 -47.5q9 -103 -12 -189q-8 -36 -13 -53.5t-18 -44.5t-31 -46q-77 -80 -185 -27q-6 -8 -19.5 -24l-20.5 -24q-31 12 -48.5 29
t-16 41t25.5 49q0 2 0.5 27.5t-1.5 26.5q-2 8 -7 17l-10 18t-6 17q-3 28 -1.5 42.5t7 43t7.5 41.5q11 2 15.5 13.5t6 29.5t3.5 24q11 30 56 91q3 4 13.5 20.5t16.5 23t16.5 16t22 12t25.5 -0.5q15 -3 36 -14.5t40 -26.5t27 -28q7 11 55 82q45 -26 66 -41z" />
    <glyph glyph-name="ugrave" unicode="&#xf9;" horiz-adv-x="601" 
d="M240 650q15 -16 47 -72q-8 -61 -56 -35q-39 22 -68 73q-23 42 -11 60q-1 14 10 26q49 -22 78 -52zM621 248q6 -5 6 -14t-4.5 -18.5t-12 -20.5t-14.5 -19.5l-14 -17t-9 -11.5q-30 -44 -51 -97q-2 -5 -7.5 -20l-9.5 -25.5t-11 -26.5t-14 -26.5l-15.5 -22.5t-18 -18
t-20.5 -9.5t-24 0.5t-27 14q-20 15 -30.5 38t-11.5 46t-2 49t-1 46q-6 96 11 227q-27 -17 -51 -54t-36 -72q-11 -15 -23 -39l-21.5 -44t-23 -38.5t-34.5 -27t-49 -3.5q-36 5 -58.5 33.5t-29 65.5t-9 77.5t3.5 69.5q1 9 2 22.5t1.5 26t2 28t3.5 27.5t6 25t9.5 21t14 15
t19.5 6.5t26 -3.5q22 -7 34.5 -25t15.5 -41t2.5 -51.5t-4.5 -55.5t-5.5 -52.5t0.5 -43.5q72 102 129 157q6 5 23 22t26.5 25.5t25.5 20t31.5 15.5t31.5 2q31 -5 48 -26t17.5 -48t-3.5 -56l-5 -21.5t-5.5 -20.5t-4 -19.5t-1.5 -21.5q-1 -16 -8 -43t-8 -40q12 -11 10.5 -29.5
t-8 -33.5t-11.5 -34t-1 -32q5 7 23.5 43.5l39 73.5t45 73.5t48.5 52t41 -0.5z" />
    <glyph glyph-name="uacute" unicode="&#xfa;" horiz-adv-x="596" 
d="M247 594q16 34 41.5 54.5t65.5 38.5q29 -30 -10 -91q-31 -49 -68 -64q-40 -16 -43 34q7 11 14 28zM641 233q-5 -16 -15.5 -32.5t-25 -35t-21.5 -29.5l-16.5 -32l-18 -37l-15.5 -32q-4 -7 -14.5 -30t-17 -36t-20 -31.5t-25.5 -26t-30 -8t-37 11.5q-10 7 -18 16t-13 21.5
t-8 22.5t-4.5 27t-2 25t-1 26.5t-0.5 23.5q-5 120 12 243q-26 -22 -50 -55.5t-38 -66.5q-16 -11 -24.5 -50t-11.5 -46q-15 -32 -46 -48t-65 -8q-23 5 -39.5 17.5t-27 26.5t-16.5 36t-8.5 38.5t-2 42.5t1.5 40.5t3 39.5q1 9 2 14q2 17 0.5 38.5t0.5 44.5t6.5 41.5t19.5 28
t38 5.5q10 -2 18 -5t13.5 -6t10 -8.5t7 -9.5t4 -12t2.5 -12.5t0.5 -14t-0.5 -14t-1 -16.5t-2 -16q-7 -100 2 -154q21 20 59 74t68 79q5 5 20 18.5t25 21.5t26 19.5t28.5 17t27.5 9t29 -1t27 -16.5q30 -26 22 -100q-6 -46 -11 -114q-1 -19 -8.5 -54t-9.5 -50
q0 -5 -11.5 -38.5t-3.5 -50.5q11 15 22 32.5t20 35l17.5 34l18.5 36l18 34.5q2 4 9 17l11 20t11.5 16.5t14.5 13.5q9 7 24 10t27.5 -1.5t12.5 -19.5z" />
    <glyph glyph-name="ucircumflex" unicode="&#xfb;" horiz-adv-x="575" 
d="M338 535v1q-1 0 0 -1zM345 614q19 -37 19 -74q-7 -10 -14.5 -14.5t-14.5 -3t-13.5 6t-13 12.5t-12.5 17t-11 19l-9.5 18.5l-8.5 16.5t-7 12q-8 -9 -28.5 -46t-32.5 -46q-18 -12 -40.5 -3t-21.5 32q6 7 14 7q11 12 28.5 43.5t36 53t43.5 25.5q6 3 13.5 1t12.5 -2t11 -4.5
l9.5 -7t8 -8.5l7.5 -10t7 -11t6 -11.5t5.5 -11.5zM620 237q-4 -13 -13 -28.5t-17.5 -27l-20 -27t-17.5 -26.5q-7 -12 -12.5 -24.5t-8 -22t-6.5 -23.5t-8 -24q-7 -19 -18 -40.5t-28 -44t-35 -35.5t-39.5 -10t-40.5 27q-12 14 -18 36t-7.5 39t-2.5 44.5t-1 38.5q-4 38 2 115
t2 116q-11 -6 -22 -15.5t-21 -25.5t-15 -25t-15 -30t-12 -24q-18 -11 -32 -54.5t-21 -53.5q-23 -34 -59.5 -43.5t-72.5 12.5q-12 8 -21 19.5t-14.5 29.5t-8 28.5t-5.5 34t-4 28.5q-3 31 -3 48t2.5 51.5t2.5 49.5q1 21 3 39.5t8.5 40t17.5 33t30 10.5t43 -20q26 -19 29 -67
t-4 -109t-5 -83l18 22q136 172 212 208q69 31 97 -33q6 -14 7 -31.5t-1.5 -30.5t-6 -33t-5.5 -30q-2 -16 -3.5 -52t-4.5 -56q-2 -10 -3 -23.5l-2 -26.5t-3 -23q-1 -10 -6.5 -25.5t-8 -29t-0.5 -26.5q18 24 40 77q7 18 17 34.5t26 39.5t21 32q4 6 13 25t17 28q5 5 15.5 10.5
t21.5 8t19 -2.5t8 -19z" />
    <glyph glyph-name="udieresis" unicode="&#xfc;" horiz-adv-x="608" 
d="M331 669q30 -2 44 -12.5t9 -36.5q-2 -9 -11.5 -27.5t-23 -35t-22.5 -18.5q-27 -6 -35 35q-10 45 10 79q11 18 26 19zM281 642q0 -4 -1 -11l4 -4q-15 -60 -42 -91q-29 -32 -52 14q-10 18 -6.5 60t18.5 55q6 5 16 8t20.5 2t20.5 -4t16 -10.5t6 -18.5zM627 251q6 -9 6 -17.5
t-8 -21t-16 -21.5l-17 -19t-12 -14q-16 -25 -45 -102q-2 -6 -8.5 -23.5t-10.5 -29.5t-12 -29.5t-15 -28.5t-18 -22.5t-22.5 -16t-26 -4t-31.5 9.5q-36 19 -46.5 63t-4.5 93q3 6 2.5 59t-0.5 59q2 87 2 89q1 6 5.5 24.5t4.5 26.5l-1 1q-29 -12 -54 -49t-42 -78
q-12 -12 -25 -54t-23 -56q-22 -31 -51 -41t-65 3q-23 10 -38.5 27t-23.5 40.5t-12 46.5t-3.5 52.5t2 49t4.5 45.5q2 10 2.5 34.5t2 41t7 35t18 27.5t33.5 8q35 -1 52 -22t16 -51.5t-4.5 -66.5t-9 -68t3.5 -57q25 24 80 93.5t97 100.5q19 15 40.5 25t44.5 14.5t42.5 -7
t29.5 -39.5q5 -13 5.5 -29.5t-1.5 -28t-6 -31t-5 -28.5q-2 -11 -4.5 -46.5t-8.5 -55.5q-4 -15 -6.5 -41.5t-4.5 -38.5q-2 -8 -6 -20l-6.5 -19t-3.5 -19t3 -20q6 8 24 45.5t38 75t43.5 74.5t47 52t41.5 0z" />
    <glyph glyph-name="OE" unicode="&#x152;" horiz-adv-x="477" 
d="M155 401q0 -14 -7 -41.5t-6 -43.5q1 -22 -1 -62t-1 -59q1 -50 25 -85t71 -46q-1 50 1 150t1 151q0 14 1 77t-3 77q-1 8 -4 25.5t-4 30.5t0 26q1 8 3.5 23.5t3.5 23t0 23.5q-45 -45 -64 -131q-2 -10 -3.5 -23t-3.5 -25.5t-5 -22.5q-8 -21 -15 -42q8 -12 11 -26zM17 229
q-6 6 -6.5 18.5t2 25t5 27t2.5 21.5q-2 41 8 138q20 188 92 299l31 -8q8 17 15 25.5t14.5 9t13.5 -2t18 -8t22 -7.5q20 -5 59.5 2t56.5 5q11 0 34.5 -1t36.5 -1.5t32 -5t30 -11.5t21 -21.5t14 -34.5q-28 -9 -82.5 -18t-77.5 -15q-3 -8 -3 -15.5t1 -12t2.5 -12.5t1.5 -16
q0 -10 -8 -28t-8 -27q-1 -13 4 -42t4 -42q0 -4 -0.5 -15t-0.5 -15.5t3 -11.5t8 -11q10 -9 41 -6.5t44 -0.5q21 -7 31 -23t17 -44q-22 -7 -71.5 -7t-70.5 -8q-8 -52 -1 -105q3 -24 -1 -72.5t-1 -72.5q13 8 65 6t68 -10q34 -16 39 -75q-34 -1 -98.5 -5.5t-97 -5.5t-99.5 3
q-50 6 -87 25t-60.5 51.5t-37 70t-23.5 88.5q1 -1 -2 2z" />
    <glyph glyph-name="oe" unicode="&#x153;" horiz-adv-x="501" 
d="M397 313q29 0 43.5 32t5 65t-37.5 37q-6 -10 -10.5 -23t-7.5 -27t-5 -26t-4 -28t-4 -25q13 -5 20 -5zM222 226q0 15 1 30t4.5 32.5t5.5 28.5t8.5 31.5t8.5 28t10 31.5t10 28q-30 -23 -53.5 -56t-37 -71.5t-15.5 -76.5q-5 -84 7 -106q7 -13 23 -25t39.5 -25l30.5 -17
q5 0 6.5 4.5t-1 11t-5.5 12l-6.5 12t-4.5 7.5q-31 64 -31 120zM543 109q0 -34 -16.5 -68.5t-44.5 -48.5q-19 -10 -39.5 -10.5t-35.5 4.5l-36.5 12t-36.5 10q-16 2 -54.5 -3.5t-55.5 0.5q-53 16 -116 70q-39 33 -53.5 87t-6.5 109.5t32 107.5t59 85q-8 3 14 26t31 30
q23 17 33.5 20t38.5 -2q7 -2 15.5 -6.5t17 -8t15.5 -3.5q9 -1 22 3t19 5q50 5 95 -20q46 -26 73.5 -70t15.5 -91q-16 -59 -53.5 -80.5t-98.5 -17.5q-13 -9 -16.5 -48t2.5 -55q4 -15 16.5 -36t29.5 -39t30 -21q10 11 15.5 42.5t17.5 42.5q19 18 45 10t26 -36z" />
    <glyph glyph-name="uni3bc" unicode="&#x3bc;" horiz-adv-x="420" 
d="M368 419q1 6 -0.5 28t1.5 28q15 0 44 -4.5t38 -5.5q17 -118 -1 -201q-7 -33 -6.5 -95.5t-6.5 -94.5q-1 -8 -2.5 -25t-3.5 -28t-7 -22.5t-15 -16.5t-25 -3q-16 3 -27.5 13t-17 21.5t-8 31t-2.5 32t0.5 33t-0.5 26.5q-26 -37 -47 -60.5t-50.5 -43t-63.5 -19t-72 22.5
q5 -27 1 -95t-3 -95q5 -89 20 -172q-19 0 -30.5 1.5t-25 5.5t-22.5 14t-14 25q-8 22 -11 51.5t-4 69t-2 53.5q-2 47 -1.5 69t3.5 70t3 69q1 19 1.5 50t1 52.5t1.5 49t4 50.5q0 4 2.5 47.5t8.5 71t17 42.5q22 26 42 24t35 -21t17 -43q3 -27 -1.5 -68t-10 -77.5t-7 -75
t10.5 -72.5t39 -58q7 -9 25 6.5t42 48.5t34 48.5l22 34.5q69 108 74 207z" />
    <glyph glyph-name="quoteright" unicode="&#x2019;" horiz-adv-x="85" 
d="M130 654q0 -57 -79 -119q-11 8 -15.5 21t-5 22.5t2 28.5t2.5 25q-9 13 -15.5 28.5t-5.5 34t14 29.5q20 14 43 5t41 -32t18 -43z" />
    <glyph glyph-name="quotedblright" unicode="&#x201d;" horiz-adv-x="257" 
d="M165 608q1 16 2 24q-8 11 -12.5 24t-5 25t2.5 22.5t10 17t16 9.5t22 -1t28 -15q26 -20 31.5 -45t-7 -50t-30 -45.5t-39.5 -37.5q-17 12 -20 32t2 40zM36 608q2 15 2 24q-11 16 -15 34.5t0 33t13 24t26 7.5t37 -17q27 -20 32 -45t-7.5 -50t-30 -45.5t-39.5 -37.5
q-16 12 -19 32t1 40z" />
    <glyph glyph-name="quotedblbase" unicode="&#x201e;" horiz-adv-x="216" 
d="M261 43q0 -54 -80 -117q-19 13 -18 30l11 2h-11q0 29 1 63q-7 11 -12 25.5t-6.5 30t5.5 28t23 17.5q28 7 57.5 -22t29.5 -57zM133 43q0 -54 -81 -117q-18 13 -18 30l11 2h-11q0 29 2 63q-7 11 -12 25.5t-7 30t5 28t23 17.5q28 7 58 -22t30 -57z" />
    <glyph glyph-name="perthousand" unicode="&#x2030;" horiz-adv-x="612" 
d="M591 94q0 44 -40 86q-1 -3 -2 -8q-9 -36 -13 -56t-4.5 -51t8.5 -56q13 7 25 21.5t19 31.5t7 32zM394 150q-31 -40 -15 -93q20 18 24 43.5t-9 49.5zM312 474q28 19 46 46t21 58.5t-22 59.5q-10 -6 -22.5 -30.5t-20.5 -52.5t-10.5 -52.5t8.5 -28.5zM549 -46
q-26 0 -42.5 14.5t-22 32t-12.5 44.5t-12 39q-4 -7 -10.5 -22t-12 -25.5t-13.5 -22t-18 -18t-23 -6.5q-58 -3 -81 93q-8 22 -1 67t27 61q28 19 64.5 9t57.5 -34l28 49q32 -1 51.5 -3t43.5 -9.5t40 -24.5t25 -43q9 -20 4.5 -53.5t-14.5 -66.5t-31.5 -57t-47.5 -24zM238 485
q-9 23 -11.5 45.5t3.5 47t12.5 42t18.5 45.5q14 32 29.5 41.5t48.5 1.5q42 -11 65 -53q38 -67 -12 -178q-14 -31 -32 -47.5t-46 -12.5q-14 2 -26 8t-21.5 15t-16.5 20t-12 25zM571 562q29 0 56 -44q-230 -213 -478 -495q-121 27 60 210l34 33l30 30q16 18 37.5 40l37.5 38
l41 40l39 37q8 9 31.5 29.5t35.5 32.5q3 4 8 10t8 9l8 8t8.5 7.5l8.5 6t10 5t11.5 2.5t13.5 1z" />
    <glyph glyph-name="Euro" unicode="&#x20ac;" horiz-adv-x="716" 
d="M196 391q0 14 1 23q-36 5 -59 12t-41 21t-24 37.5t-2 59.5q2 -1 17.5 -3.5t23 -4t24.5 -4.5t27.5 -4l26 -2.5t25.5 -1.5t20.5 1.5t17.5 4.5q6 2 20 18.5l28.5 35t31.5 36.5t28.5 23.5t20.5 -3.5q14 8 38 34.5t40 36.5q81 50 135 42q31 -4 66.5 -24.5t54.5 -44.5
q10 -11 17 -27l14 -33.5t14 -29.5q-96 11 -171 -5t-144 -70q31 -7 92 -9.5t89 -8.5q30 -6 43.5 -25t24.5 -56q-8 -22 -33.5 -29t-52.5 -3t-61.5 10.5t-47.5 6.5q-9 0 -40.5 2.5t-48.5 2.5t-39 -4l-12 -5t-9 -5.5t-6.5 -6.5t-4.5 -8.5l-3.5 -9.5t-4 -12l-4.5 -14
q22 -1 130.5 1t129.5 -3q46 -4 70 -22.5t26 -62.5q-17 -18 -42.5 -25t-46.5 -6t-53.5 4.5t-46.5 3.5q-13 0 -48 2.5t-55 2.5t-46.5 -6.5t-44.5 -20.5q63 -177 190 -132q16 5 36.5 16l35 18.5t32.5 12.5t37 1t39 -17q-3 -27 -27.5 -49t-59.5 -36t-66.5 -22t-60.5 -12
q-85 -12 -174 60q-13 11 -24.5 25.5t-18 25t-17 31t-15.5 29.5q4 6 7 13q-5 1 -19 2q1 7 4 35q-11 10 -32 14t-41 3t-41.5 1t-34 8t-18.5 24.5t5 51.5q14 1 40 8t38 9q10 1 24 2t20.5 1.5t15 3.5t12 8.5t6 16t2.5 26.5z" />
    <glyph glyph-name="trademark" unicode="&#x2122;" horiz-adv-x="470" 
d="M444 730q25 0 40.5 -20t19 -48.5t2 -57t-8.5 -46.5q-9 -24 -24 -30t-35 14q-13 16 -10 84q-6 -9 -11.5 -14.5t-11.5 -8t-9 -4t-11 1t-10.5 3.5t-14 6.5t-14.5 7.5q-1 -4 -2 -17t-2.5 -21.5t-5 -19.5t-10.5 -16.5t-17 -5.5q-11 0 -18 6.5t-9.5 16t-4 21.5t-0.5 22t0 18
q0 5 -3 20t-5 28t-1 26t7 20q7 7 16 8t18 -3.5t17 -10l17 -12t14 -9.5q21 13 50 27t37 14zM114 717q19 0 34 1v-3q3 0 18.5 1t25 1t23.5 -1.5t23.5 -5.5t14.5 -11q6 -8 7 -15t-1.5 -12t-8.5 -8.5t-13 -6t-15.5 -5t-16 -3.5t-14.5 -3t-10 -4q0 -3 1 -13q15 -113 -22 -113
q-10 0 -22 6q-20 10 -24.5 33.5t-1 45t-3.5 41.5q-1 -4 -10 -4t-21.5 3t-25 8t-22 10.5t-10.5 9.5q-3 7 -3.5 12.5t2 10t5 8t8.5 6l10.5 4.5t12 3t13 2t13.5 1t12 0.5t12 0.5h9z" />
    <glyph glyph-name="infinity" unicode="&#x221e;" horiz-adv-x="796" 
d="M754 252l-2 -1h2v1zM740 254q0 54 -29 83t-83 27q-56 -2 -96 -31.5t-73 -82.5q30 -52 66.5 -81.5t90.5 -34.5q55 -5 91 29.5t33 90.5zM328 193q11 12 37 58q-31 55 -61.5 82.5t-81.5 29.5q-94 4 -126 -65q-14 -33 -14 -60.5t13.5 -47t34 -32.5t48 -16.5t54 -0.5
t52.5 16.5t44 35.5zM807 321q26 -68 -1.5 -144t-91.5 -113q-58 -32 -116.5 -21.5t-107 47.5t-78.5 89q-41 -72 -107.5 -106t-147.5 -19q-69 13 -113 68.5t-43 127.5q0 66 48 130t109 68q88 6 150 -24.5t104 -104.5q94 142 235 129q116 -10 160 -127z" />
  </font>
</defs>
</svg>
